<svg width="100" height="83" viewBox="0 0 100 83" fill="none" xmlns="http://www.w3.org/2000/svg">
<rect x="10" y="1.5" width="80" height="80" rx="18" fill="#E7F4EB"/>
<g clip-path="url(#clip0_932_4222)">
<path d="M85.582 37.4424H88.2584V40.5996H85.582V37.4424Z" fill="#ED9DA0"/>
<path d="M92.8451 81.3352H91.2826L90.5391 75.3633H92.8453L92.8451 81.3352Z" fill="#ED9DA0"/>
<path d="M86.8529 81.3352H85.2904L84.5469 75.3633H86.8531L86.8529 81.3352Z" fill="#ED9DA0"/>
<path d="M21.8398 82.615V36.7817C21.8398 36.4994 21.953 36.2287 22.1544 36.029C22.3559 35.8294 22.6291 35.7173 22.914 35.7173H27.7071C27.992 35.7173 28.2652 35.8294 28.4666 36.029C28.6681 36.2287 28.7812 36.4994 28.7812 36.7817V82.7344L21.8398 82.615Z" fill="#3F3D56"/>
<path d="M37.668 82.7586V46.3149C37.668 46.1751 37.6958 46.0367 37.7497 45.9076C37.8037 45.7784 37.8828 45.6611 37.9826 45.5622C38.0823 45.4634 38.2007 45.385 38.331 45.3315C38.4614 45.278 38.601 45.2505 38.7421 45.2505H43.5352C43.8201 45.2505 44.0933 45.3626 44.2947 45.5622C44.4962 45.7619 44.6093 46.0326 44.6093 46.3149V82.68L37.668 82.7586Z" fill="#3F3D56"/>
<path d="M9.53721 39.4603C9.46663 39.4603 9.39757 39.4401 9.33836 39.402C9.27915 39.364 9.23234 39.3097 9.20358 39.2459C9.17482 39.182 9.16535 39.1113 9.17631 39.0422C9.18727 38.9731 9.21818 38.9086 9.26533 38.8566L25.2918 21.1427L41.0643 29.9193L56.9306 2.82812L73.094 16.0112C73.1672 16.0727 73.213 16.1603 73.2215 16.255C73.2301 16.3498 73.2007 16.444 73.1397 16.5175C73.0787 16.5909 72.991 16.6376 72.8956 16.6475C72.8001 16.6573 72.7046 16.6296 72.6296 16.5702L57.1307 3.92906L41.3347 30.9001L25.4448 22.0582L9.80933 39.3397C9.77512 39.3777 9.73319 39.408 9.68629 39.4288C9.63939 39.4496 9.58859 39.4604 9.53721 39.4603Z" fill="#3F3D56"/>
<path d="M9.48006 42.4774C11.3632 42.4774 12.8898 40.9647 12.8898 39.0986C12.8898 37.2325 11.3632 35.7197 9.48006 35.7197C7.59691 35.7197 6.07031 37.2325 6.07031 39.0986C6.07031 40.9647 7.59691 42.4774 9.48006 42.4774Z" fill="#4DA16E"/>
<path d="M25.3082 24.9794C27.1913 24.9794 28.7179 23.4666 28.7179 21.6005C28.7179 19.7344 27.1913 18.2217 25.3082 18.2217C23.425 18.2217 21.8984 19.7344 21.8984 21.6005C21.8984 23.4666 23.425 24.9794 25.3082 24.9794Z" fill="#E6E6E6"/>
<path d="M41.1402 33.789C43.0234 33.789 44.55 32.2762 44.55 30.4101C44.55 28.544 43.0234 27.0312 41.1402 27.0312C39.2571 27.0312 37.7305 28.544 37.7305 30.4101C37.7305 32.2762 39.2571 33.789 41.1402 33.789Z" fill="#E6E6E6"/>
<path d="M56.9722 6.75771C58.8554 6.75771 60.382 5.24495 60.382 3.37886C60.382 1.51277 58.8554 0 56.9722 0C55.0891 0 53.5625 1.51277 53.5625 3.37886C53.5625 5.24495 55.0891 6.75771 56.9722 6.75771Z" fill="#4DA16E"/>
<path d="M87.2207 29.6585C89.1915 29.6585 90.7891 28.0754 90.7891 26.1225C90.7891 24.1696 89.1915 22.5864 87.2207 22.5864C85.25 22.5864 83.6523 24.1696 83.6523 26.1225C83.6523 28.0754 85.25 29.6585 87.2207 29.6585Z" fill="#4DA16E"/>
<path d="M86.7188 53.5637C88.0544 53.7231 91.4698 52.5158 91.6549 54.3525C93.4128 59.4806 93.3606 79.1375 93.3606 79.1375L90.6843 79.2639C90.6843 79.2639 88.5456 63.6452 87.5343 60.3037C87.0268 64.3651 87.1158 79.8953 87.1158 79.8953L84.6944 80.0216C84.6944 80.0216 82.5224 66.797 82.51 62.9155C82.246 60.0722 82.8935 55.859 82.6164 53.1104C83.9407 53.5263 85.3345 53.6803 86.7188 53.5637Z" fill="#090814"/>
<path d="M69.332 82.596V29.7702C69.332 29.0928 69.8129 28.5439 70.4062 28.5439H75.1993C75.7924 28.5439 76.2734 29.0932 76.2734 29.7702V82.7342L69.332 82.596Z" fill="#3F3D56"/>
<path d="M82.1743 38.6872C81.6387 37.602 80.9844 36.5785 80.2232 35.6348C80.0642 35.4505 79.9194 35.2547 79.79 35.0488C79.516 34.5781 79.4344 34.0246 79.2611 33.5094C78.7769 32.0646 77.5686 30.9041 77.2742 29.41C77.1671 28.867 76.2629 30.4453 76.5006 31.1186C76.9256 32.3374 76.9797 33.6279 77.5201 34.8051C78.0605 35.9822 78.6951 37.1111 79.1616 38.3146C79.4267 38.9979 79.6382 39.7038 80.027 40.3353C80.4157 40.9667 81.0223 41.4959 81.7551 41.5905C81.7501 41.1327 81.8203 40.6772 81.9629 40.2417C82.1221 39.7443 82.4051 39.1583 82.1743 38.6872Z" fill="#ED9DA0"/>
<path d="M90.1934 39.5056C90.1607 38.6126 90.3013 37.7218 90.6077 36.8814C90.7249 36.5593 90.8626 36.2322 90.8511 35.8904C90.8344 35.5722 90.6816 35.2805 90.5427 34.9925C90.0634 34.0016 89.7271 32.9504 89.3957 31.9023L88.7582 29.9258C88.5504 29.7748 89.7637 29.7226 90.0224 30.0774C90.8687 31.2418 91.5099 32.5796 92.1801 33.8509C92.351 34.154 92.4968 34.4703 92.6159 34.7968C92.7796 35.326 92.8571 35.8776 92.8453 36.431C92.8453 37.4653 92.7078 38.4958 92.5649 39.5212C92.4744 40.1641 92.3559 40.8637 91.8649 41.2893C91.3557 40.6422 90.8433 40.0107 90.1934 39.5056Z" fill="#ED9DA0"/>
<path d="M86.8242 38.7782C88.2847 38.7782 89.4687 37.6049 89.4687 36.1576C89.4687 34.7104 88.2847 33.5371 86.8242 33.5371C85.3637 33.5371 84.1797 34.7104 84.1797 36.1576C84.1797 37.6049 85.3637 38.7782 86.8242 38.7782Z" fill="#ED9DA0"/>
<path d="M84.6732 33.5425C84.6434 33.463 84.6367 33.3767 84.6538 33.2935C84.6709 33.2103 84.7111 33.1335 84.7699 33.0718C84.8359 33.0203 84.9237 33.001 84.9949 32.9518C85.0956 32.868 85.178 32.7647 85.2371 32.6483C85.4177 32.3978 85.6821 32.2188 85.9832 32.1431C86.2844 32.0673 86.6028 32.0997 86.8822 32.2345C87.3197 32.4612 87.5831 32.915 87.9717 33.2206C88.1691 33.3789 88.3978 33.4965 88.5967 33.6549C88.9943 33.9952 89.277 34.4483 89.4066 34.9529C89.5356 35.4541 89.611 35.9673 89.6316 36.4841C89.6523 36.6392 89.6461 36.7966 89.6134 36.9496C89.5732 37.078 89.5132 37.1993 89.4356 37.3095C89.0356 37.9092 88.5094 38.4539 87.8497 38.7634C87.1899 39.073 86.3872 39.1233 85.7372 38.7995C85.6716 38.7733 85.6151 38.7287 85.5747 38.6711C85.5378 38.5835 85.5291 38.4868 85.5497 38.3941C85.585 38.0274 85.5118 37.6585 85.3391 37.3324C85.2179 37.0925 85.0363 36.8865 84.9391 36.6379C84.849 36.3599 84.8104 36.0682 84.8252 35.7766C84.8129 35.0221 84.8647 34.27 84.6732 33.5425Z" fill="#090814"/>
<path d="M6.00781 82.6679V57.1645C6.00781 56.8375 6.48869 56.5723 7.08194 56.5723H11.8751C12.4682 56.5723 12.9492 56.8377 12.9492 57.1645V82.7344L6.00781 82.6679Z" fill="#4DA16E"/>
<path d="M99.8784 83.0001H0.12175C0.0894598 83.0001 0.0584923 82.9874 0.0356598 82.9647C0.0128272 82.9421 0 82.9114 0 82.8794C0 82.8474 0.0128272 82.8168 0.0356598 82.7941C0.0584923 82.7715 0.0894598 82.7588 0.12175 82.7588H99.8783C99.9105 82.7588 99.9415 82.7715 99.9643 82.7941C99.9872 82.8168 100 82.8474 100 82.8794C100 82.9114 99.9872 82.9421 99.9643 82.9647C99.9415 82.9874 99.9107 83.0001 99.8784 83.0001Z" fill="#E6E6E6"/>
<path d="M53.5 82.5781V22.6309C53.5 21.8621 53.9809 21.2388 54.5741 21.2388H59.3672C59.9604 21.2388 60.4414 21.8621 60.4414 22.6309V82.7346L53.5 82.5781Z" fill="#4DA16E"/>
<path d="M76.4282 30.7952C77.0617 30.7952 77.5752 30.2863 77.5752 29.6586C77.5752 29.0308 77.0617 28.522 76.4282 28.522C75.7948 28.522 75.2812 29.0308 75.2812 29.6586C75.2812 30.2863 75.7948 30.7952 76.4282 30.7952Z" fill="#ED9DA0"/>
<path d="M89.1704 30.2903C89.8039 30.2903 90.3174 29.7814 90.3174 29.1537C90.3174 28.526 89.8039 28.0171 89.1704 28.0171C88.537 28.0171 88.0234 28.526 88.0234 29.1537C88.0234 29.7814 88.537 30.2903 89.1704 30.2903Z" fill="#ED9DA0"/>
<path d="M91.9594 43.2232C92.0719 43.1218 92.9838 37.834 92.9784 37.7148C92.9643 37.0634 90.9584 36.3194 90.557 36.5782C90.1783 36.8225 89.5188 39.6254 89.0945 40.1352L88.6455 39.3566H85.0769L84.8607 39.7546C84.3924 39.475 83.9713 39.2174 83.821 39.132C83.7694 39.0973 83.7132 39.0699 83.6539 39.0505C83.283 38.9683 82.9349 38.8062 82.6344 38.5756C82.3413 38.3526 80.9809 36.0115 80.6164 36.0735C80.2048 36.1417 78.8164 37.3313 78.8322 38.4729C79.0072 38.4692 81.2808 42.9748 81.3128 43.1427C81.4878 43.8525 82.0639 54.2031 82.2503 54.6856C83.1074 54.6034 82.4308 54.457 83.2604 54.6856C84.1538 54.9318 85.0969 54.6654 86.0183 54.5669C86.402 54.5292 86.7874 54.5124 87.1729 54.5164C88.5748 54.5227 90.5757 54.5997 91.9329 54.9444C91.9405 54.063 91.1593 52.1559 90.8704 51.3238C90.8325 51.0751 90.8338 50.822 90.8743 50.5736C90.9105 50.2689 91.6568 43.5599 91.9594 43.2232Z" fill="#E6E6E6"/>
<path d="M85.109 80.4727C85.109 80.4727 83.5097 81.5792 82.549 81.5316C81.5882 81.4841 81.4441 82.5673 82.549 82.7101C83.6539 82.8529 86.5732 82.9005 86.8615 82.7101C87.1497 82.5197 87.0536 80.5204 86.8615 80.4728C86.6694 80.4253 85.109 80.4727 85.109 80.4727Z" fill="#090814"/>
<path d="M91.2379 80.4727C91.2379 80.4727 89.6386 81.5792 88.6779 81.5316C87.7171 81.4841 87.573 82.5673 88.6779 82.7101C89.7828 82.8529 92.7021 82.9005 92.9904 82.7101C93.2786 82.5197 93.1825 80.5204 92.9904 80.4728C92.7983 80.4253 91.2379 80.4727 91.2379 80.4727Z" fill="#090814"/>
</g>
<defs>
<clipPath id="clip0_932_4222">
<rect width="100" height="83" fill="white"/>
</clipPath>
</defs>
</svg>
