<svg width="100" height="82" viewBox="0 0 100 82" fill="none" xmlns="http://www.w3.org/2000/svg">
<rect x="10" y="0.524902" width="80" height="80" rx="18" fill="#E7F4EB"/>
<g clip-path="url(#clip0_932_4209)">
<path d="M99.9503 81.0494H67.0078V80.7803H99.999L99.9503 81.0494Z" fill="#3F3D56"/>
<path d="M0.870837 1.74167C1.35179 1.74167 1.74167 1.35179 1.74167 0.870837C1.74167 0.389887 1.35179 0 0.870837 0C0.389887 0 0 0.389887 0 0.870837C0 1.35179 0.389887 1.74167 0.870837 1.74167Z" fill="#E6E6E6"/>
<path d="M5.27709 1.74167C5.75804 1.74167 6.14792 1.35179 6.14792 0.870837C6.14792 0.389887 5.75804 0 5.27709 0C4.79614 0 4.40625 0.389887 4.40625 0.870837C4.40625 1.35179 4.79614 1.74167 5.27709 1.74167Z" fill="#E6E6E6"/>
<path d="M9.68724 1.74167C10.1682 1.74167 10.5581 1.35179 10.5581 0.870837C10.5581 0.389887 10.1682 0 9.68724 0C9.20629 0 8.81641 0.389887 8.81641 0.870837C8.81641 1.35179 9.20629 1.74167 9.68724 1.74167Z" fill="#E6E6E6"/>
<path d="M14.0935 1.74167C14.5744 1.74167 14.9643 1.35179 14.9643 0.870837C14.9643 0.389887 14.5744 0 14.0935 0C13.6125 0 13.2227 0.389887 13.2227 0.870837C13.2227 1.35179 13.6125 1.74167 14.0935 1.74167Z" fill="#E6E6E6"/>
<path d="M18.5036 1.74167C18.9846 1.74167 19.3745 1.35179 19.3745 0.870837C19.3745 0.389887 18.9846 0 18.5036 0C18.0227 0 17.6328 0.389887 17.6328 0.870837C17.6328 1.35179 18.0227 1.74167 18.5036 1.74167Z" fill="#E6E6E6"/>
<path d="M22.9099 1.74167C23.3908 1.74167 23.7807 1.35179 23.7807 0.870837C23.7807 0.389887 23.3908 0 22.9099 0C22.4289 0 22.0391 0.389887 22.0391 0.870837C22.0391 1.35179 22.4289 1.74167 22.9099 1.74167Z" fill="#E6E6E6"/>
<path d="M27.3201 1.74167C27.801 1.74167 28.1909 1.35179 28.1909 0.870837C28.1909 0.389887 27.801 0 27.3201 0C26.8391 0 26.4492 0.389887 26.4492 0.870837C26.4492 1.35179 26.8391 1.74167 27.3201 1.74167Z" fill="#E6E6E6"/>
<path d="M31.7263 1.74167C32.2073 1.74167 32.5971 1.35179 32.5971 0.870837C32.5971 0.389887 32.2073 0 31.7263 0C31.2454 0 30.8555 0.389887 30.8555 0.870837C30.8555 1.35179 31.2454 1.74167 31.7263 1.74167Z" fill="#E6E6E6"/>
<path d="M36.1365 1.74167C36.6174 1.74167 37.0073 1.35179 37.0073 0.870837C37.0073 0.389887 36.6174 0 36.1365 0C35.6555 0 35.2656 0.389887 35.2656 0.870837C35.2656 1.35179 35.6555 1.74167 36.1365 1.74167Z" fill="#E6E6E6"/>
<path d="M40.5427 1.74167C41.0237 1.74167 41.4135 1.35179 41.4135 0.870837C41.4135 0.389887 41.0237 0 40.5427 0C40.0618 0 39.6719 0.389887 39.6719 0.870837C39.6719 1.35179 40.0618 1.74167 40.5427 1.74167Z" fill="#E6E6E6"/>
<path d="M0.870837 6.20505C1.35179 6.20505 1.74167 5.81517 1.74167 5.33422C1.74167 4.85327 1.35179 4.46338 0.870837 4.46338C0.389887 4.46338 0 4.85327 0 5.33422C0 5.81517 0.389887 6.20505 0.870837 6.20505Z" fill="#E6E6E6"/>
<path d="M5.27709 6.20505C5.75804 6.20505 6.14792 5.81517 6.14792 5.33422C6.14792 4.85327 5.75804 4.46338 5.27709 4.46338C4.79614 4.46338 4.40625 4.85327 4.40625 5.33422C4.40625 5.81517 4.79614 6.20505 5.27709 6.20505Z" fill="#E6E6E6"/>
<path d="M9.68724 6.20505C10.1682 6.20505 10.5581 5.81517 10.5581 5.33422C10.5581 4.85327 10.1682 4.46338 9.68724 4.46338C9.20629 4.46338 8.81641 4.85327 8.81641 5.33422C8.81641 5.81517 9.20629 6.20505 9.68724 6.20505Z" fill="#E6E6E6"/>
<path d="M14.0935 6.20505C14.5744 6.20505 14.9643 5.81517 14.9643 5.33422C14.9643 4.85327 14.5744 4.46338 14.0935 4.46338C13.6125 4.46338 13.2227 4.85327 13.2227 5.33422C13.2227 5.81517 13.6125 6.20505 14.0935 6.20505Z" fill="#4DA16E"/>
<path d="M18.5036 6.20505C18.9846 6.20505 19.3745 5.81517 19.3745 5.33422C19.3745 4.85327 18.9846 4.46338 18.5036 4.46338C18.0227 4.46338 17.6328 4.85327 17.6328 5.33422C17.6328 5.81517 18.0227 6.20505 18.5036 6.20505Z" fill="#E6E6E6"/>
<path d="M22.9099 6.20505C23.3908 6.20505 23.7807 5.81517 23.7807 5.33422C23.7807 4.85327 23.3908 4.46338 22.9099 4.46338C22.4289 4.46338 22.0391 4.85327 22.0391 5.33422C22.0391 5.81517 22.4289 6.20505 22.9099 6.20505Z" fill="#E6E6E6"/>
<path d="M27.3201 6.20505C27.801 6.20505 28.1909 5.81517 28.1909 5.33422C28.1909 4.85327 27.801 4.46338 27.3201 4.46338C26.8391 4.46338 26.4492 4.85327 26.4492 5.33422C26.4492 5.81517 26.8391 6.20505 27.3201 6.20505Z" fill="#E6E6E6"/>
<path d="M31.7263 6.20505C32.2073 6.20505 32.5971 5.81517 32.5971 5.33422C32.5971 4.85327 32.2073 4.46338 31.7263 4.46338C31.2454 4.46338 30.8555 4.85327 30.8555 5.33422C30.8555 5.81517 31.2454 6.20505 31.7263 6.20505Z" fill="#E6E6E6"/>
<path d="M36.1365 6.20505C36.6174 6.20505 37.0073 5.81517 37.0073 5.33422C37.0073 4.85327 36.6174 4.46338 36.1365 4.46338C35.6555 4.46338 35.2656 4.85327 35.2656 5.33422C35.2656 5.81517 35.6555 6.20505 36.1365 6.20505Z" fill="#E6E6E6"/>
<path d="M40.5427 6.20505C41.0237 6.20505 41.4135 5.81517 41.4135 5.33422C41.4135 4.85327 41.0237 4.46338 40.5427 4.46338C40.0618 4.46338 39.6719 4.85327 39.6719 5.33422C39.6719 5.81517 40.0618 6.20505 40.5427 6.20505Z" fill="#E6E6E6"/>
<path d="M0.870837 10.6689C1.35179 10.6689 1.74167 10.279 1.74167 9.79808C1.74167 9.31713 1.35179 8.92725 0.870837 8.92725C0.389887 8.92725 0 9.31713 0 9.79808C0 10.279 0.389887 10.6689 0.870837 10.6689Z" fill="#E6E6E6"/>
<path d="M5.27709 10.6689C5.75804 10.6689 6.14792 10.279 6.14792 9.79808C6.14792 9.31713 5.75804 8.92725 5.27709 8.92725C4.79614 8.92725 4.40625 9.31713 4.40625 9.79808C4.40625 10.279 4.79614 10.6689 5.27709 10.6689Z" fill="#E6E6E6"/>
<path d="M9.68724 10.6689C10.1682 10.6689 10.5581 10.279 10.5581 9.79808C10.5581 9.31713 10.1682 8.92725 9.68724 8.92725C9.20629 8.92725 8.81641 9.31713 8.81641 9.79808C8.81641 10.279 9.20629 10.6689 9.68724 10.6689Z" fill="#E6E6E6"/>
<path d="M14.0935 10.6689C14.5744 10.6689 14.9643 10.279 14.9643 9.79808C14.9643 9.31713 14.5744 8.92725 14.0935 8.92725C13.6125 8.92725 13.2227 9.31713 13.2227 9.79808C13.2227 10.279 13.6125 10.6689 14.0935 10.6689Z" fill="#E6E6E6"/>
<path d="M18.5036 10.6689C18.9846 10.6689 19.3745 10.279 19.3745 9.79808C19.3745 9.31713 18.9846 8.92725 18.5036 8.92725C18.0227 8.92725 17.6328 9.31713 17.6328 9.79808C17.6328 10.279 18.0227 10.6689 18.5036 10.6689Z" fill="#E6E6E6"/>
<path d="M22.9099 10.6689C23.3908 10.6689 23.7807 10.279 23.7807 9.79808C23.7807 9.31713 23.3908 8.92725 22.9099 8.92725C22.4289 8.92725 22.0391 9.31713 22.0391 9.79808C22.0391 10.279 22.4289 10.6689 22.9099 10.6689Z" fill="#E6E6E6"/>
<path d="M27.3201 10.6689C27.801 10.6689 28.1909 10.279 28.1909 9.79808C28.1909 9.31713 27.801 8.92725 27.3201 8.92725C26.8391 8.92725 26.4492 9.31713 26.4492 9.79808C26.4492 10.279 26.8391 10.6689 27.3201 10.6689Z" fill="#E6E6E6"/>
<path d="M31.7263 10.6689C32.2073 10.6689 32.5971 10.279 32.5971 9.79808C32.5971 9.31713 32.2073 8.92725 31.7263 8.92725C31.2454 8.92725 30.8555 9.31713 30.8555 9.79808C30.8555 10.279 31.2454 10.6689 31.7263 10.6689Z" fill="#E6E6E6"/>
<path d="M36.1365 10.6689C36.6174 10.6689 37.0073 10.279 37.0073 9.79808C37.0073 9.31713 36.6174 8.92725 36.1365 8.92725C35.6555 8.92725 35.2656 9.31713 35.2656 9.79808C35.2656 10.279 35.6555 10.6689 36.1365 10.6689Z" fill="#E6E6E6"/>
<path d="M40.5427 10.6689C41.0237 10.6689 41.4135 10.279 41.4135 9.79808C41.4135 9.31713 41.0237 8.92725 40.5427 8.92725C40.0618 8.92725 39.6719 9.31713 39.6719 9.79808C39.6719 10.279 40.0618 10.6689 40.5427 10.6689Z" fill="#E6E6E6"/>
<path d="M0.870837 15.1323C1.35179 15.1323 1.74167 14.7424 1.74167 14.2615C1.74167 13.7805 1.35179 13.3906 0.870837 13.3906C0.389887 13.3906 0 13.7805 0 14.2615C0 14.7424 0.389887 15.1323 0.870837 15.1323Z" fill="#E6E6E6"/>
<path d="M5.27709 15.1323C5.75804 15.1323 6.14792 14.7424 6.14792 14.2615C6.14792 13.7805 5.75804 13.3906 5.27709 13.3906C4.79614 13.3906 4.40625 13.7805 4.40625 14.2615C4.40625 14.7424 4.79614 15.1323 5.27709 15.1323Z" fill="#E6E6E6"/>
<path d="M9.68724 15.1323C10.1682 15.1323 10.5581 14.7424 10.5581 14.2615C10.5581 13.7805 10.1682 13.3906 9.68724 13.3906C9.20629 13.3906 8.81641 13.7805 8.81641 14.2615C8.81641 14.7424 9.20629 15.1323 9.68724 15.1323Z" fill="#E6E6E6"/>
<path d="M14.0935 15.1323C14.5744 15.1323 14.9643 14.7424 14.9643 14.2615C14.9643 13.7805 14.5744 13.3906 14.0935 13.3906C13.6125 13.3906 13.2227 13.7805 13.2227 14.2615C13.2227 14.7424 13.6125 15.1323 14.0935 15.1323Z" fill="#E6E6E6"/>
<path d="M18.5036 15.1323C18.9846 15.1323 19.3745 14.7424 19.3745 14.2615C19.3745 13.7805 18.9846 13.3906 18.5036 13.3906C18.0227 13.3906 17.6328 13.7805 17.6328 14.2615C17.6328 14.7424 18.0227 15.1323 18.5036 15.1323Z" fill="#E6E6E6"/>
<path d="M22.9099 15.1323C23.3908 15.1323 23.7807 14.7424 23.7807 14.2615C23.7807 13.7805 23.3908 13.3906 22.9099 13.3906C22.4289 13.3906 22.0391 13.7805 22.0391 14.2615C22.0391 14.7424 22.4289 15.1323 22.9099 15.1323Z" fill="#E6E6E6"/>
<path d="M27.3201 15.1323C27.801 15.1323 28.1909 14.7424 28.1909 14.2615C28.1909 13.7805 27.801 13.3906 27.3201 13.3906C26.8391 13.3906 26.4492 13.7805 26.4492 14.2615C26.4492 14.7424 26.8391 15.1323 27.3201 15.1323Z" fill="#E6E6E6"/>
<path d="M31.7263 15.1323C32.2073 15.1323 32.5971 14.7424 32.5971 14.2615C32.5971 13.7805 32.2073 13.3906 31.7263 13.3906C31.2454 13.3906 30.8555 13.7805 30.8555 14.2615C30.8555 14.7424 31.2454 15.1323 31.7263 15.1323Z" fill="#E6E6E6"/>
<path d="M36.1365 15.1323C36.6174 15.1323 37.0073 14.7424 37.0073 14.2615C37.0073 13.7805 36.6174 13.3906 36.1365 13.3906C35.6555 13.3906 35.2656 13.7805 35.2656 14.2615C35.2656 14.7424 35.6555 15.1323 36.1365 15.1323Z" fill="#E6E6E6"/>
<path d="M40.5427 15.1323C41.0237 15.1323 41.4135 14.7424 41.4135 14.2615C41.4135 13.7805 41.0237 13.3906 40.5427 13.3906C40.0618 13.3906 39.6719 13.7805 39.6719 14.2615C39.6719 14.7424 40.0618 15.1323 40.5427 15.1323Z" fill="#E6E6E6"/>
<path d="M0.870837 19.5957C1.35179 19.5957 1.74167 19.2058 1.74167 18.7248C1.74167 18.2439 1.35179 17.854 0.870837 17.854C0.389887 17.854 0 18.2439 0 18.7248C0 19.2058 0.389887 19.5957 0.870837 19.5957Z" fill="#E6E6E6"/>
<path d="M5.27709 19.5957C5.75804 19.5957 6.14792 19.2058 6.14792 18.7248C6.14792 18.2439 5.75804 17.854 5.27709 17.854C4.79614 17.854 4.40625 18.2439 4.40625 18.7248C4.40625 19.2058 4.79614 19.5957 5.27709 19.5957Z" fill="#4DA16E"/>
<path d="M9.68724 19.5957C10.1682 19.5957 10.5581 19.2058 10.5581 18.7248C10.5581 18.2439 10.1682 17.854 9.68724 17.854C9.20629 17.854 8.81641 18.2439 8.81641 18.7248C8.81641 19.2058 9.20629 19.5957 9.68724 19.5957Z" fill="#E6E6E6"/>
<path d="M14.0935 19.5957C14.5744 19.5957 14.9643 19.2058 14.9643 18.7248C14.9643 18.2439 14.5744 17.854 14.0935 17.854C13.6125 17.854 13.2227 18.2439 13.2227 18.7248C13.2227 19.2058 13.6125 19.5957 14.0935 19.5957Z" fill="#E6E6E6"/>
<path d="M18.5036 19.5957C18.9846 19.5957 19.3745 19.2058 19.3745 18.7248C19.3745 18.2439 18.9846 17.854 18.5036 17.854C18.0227 17.854 17.6328 18.2439 17.6328 18.7248C17.6328 19.2058 18.0227 19.5957 18.5036 19.5957Z" fill="#E6E6E6"/>
<path d="M22.9099 19.5957C23.3908 19.5957 23.7807 19.2058 23.7807 18.7248C23.7807 18.2439 23.3908 17.854 22.9099 17.854C22.4289 17.854 22.0391 18.2439 22.0391 18.7248C22.0391 19.2058 22.4289 19.5957 22.9099 19.5957Z" fill="#E6E6E6"/>
<path d="M27.3201 19.5957C27.801 19.5957 28.1909 19.2058 28.1909 18.7248C28.1909 18.2439 27.801 17.854 27.3201 17.854C26.8391 17.854 26.4492 18.2439 26.4492 18.7248C26.4492 19.2058 26.8391 19.5957 27.3201 19.5957Z" fill="#E6E6E6"/>
<path d="M31.7263 19.5957C32.2073 19.5957 32.5971 19.2058 32.5971 18.7248C32.5971 18.2439 32.2073 17.854 31.7263 17.854C31.2454 17.854 30.8555 18.2439 30.8555 18.7248C30.8555 19.2058 31.2454 19.5957 31.7263 19.5957Z" fill="#E6E6E6"/>
<path d="M36.1365 19.5957C36.6174 19.5957 37.0073 19.2058 37.0073 18.7248C37.0073 18.2439 36.6174 17.854 36.1365 17.854C35.6555 17.854 35.2656 18.2439 35.2656 18.7248C35.2656 19.2058 35.6555 19.5957 36.1365 19.5957Z" fill="#E6E6E6"/>
<path d="M40.5427 19.5957C41.0237 19.5957 41.4135 19.2058 41.4135 18.7248C41.4135 18.2439 41.0237 17.854 40.5427 17.854C40.0618 17.854 39.6719 18.2439 39.6719 18.7248C39.6719 19.2058 40.0618 19.5957 40.5427 19.5957Z" fill="#E6E6E6"/>
<path d="M0.870837 24.0591C1.35179 24.0591 1.74167 23.6692 1.74167 23.1882C1.74167 22.7073 1.35179 22.3174 0.870837 22.3174C0.389887 22.3174 0 22.7073 0 23.1882C0 23.6692 0.389887 24.0591 0.870837 24.0591Z" fill="#E6E6E6"/>
<path d="M5.27709 24.0591C5.75804 24.0591 6.14792 23.6692 6.14792 23.1882C6.14792 22.7073 5.75804 22.3174 5.27709 22.3174C4.79614 22.3174 4.40625 22.7073 4.40625 23.1882C4.40625 23.6692 4.79614 24.0591 5.27709 24.0591Z" fill="#E6E6E6"/>
<path d="M9.68724 24.0591C10.1682 24.0591 10.5581 23.6692 10.5581 23.1882C10.5581 22.7073 10.1682 22.3174 9.68724 22.3174C9.20629 22.3174 8.81641 22.7073 8.81641 23.1882C8.81641 23.6692 9.20629 24.0591 9.68724 24.0591Z" fill="#E6E6E6"/>
<path d="M14.0935 24.0591C14.5744 24.0591 14.9643 23.6692 14.9643 23.1882C14.9643 22.7073 14.5744 22.3174 14.0935 22.3174C13.6125 22.3174 13.2227 22.7073 13.2227 23.1882C13.2227 23.6692 13.6125 24.0591 14.0935 24.0591Z" fill="#E6E6E6"/>
<path d="M18.5036 24.0591C18.9846 24.0591 19.3745 23.6692 19.3745 23.1882C19.3745 22.7073 18.9846 22.3174 18.5036 22.3174C18.0227 22.3174 17.6328 22.7073 17.6328 23.1882C17.6328 23.6692 18.0227 24.0591 18.5036 24.0591Z" fill="#E6E6E6"/>
<path d="M22.9099 24.0591C23.3908 24.0591 23.7807 23.6692 23.7807 23.1882C23.7807 22.7073 23.3908 22.3174 22.9099 22.3174C22.4289 22.3174 22.0391 22.7073 22.0391 23.1882C22.0391 23.6692 22.4289 24.0591 22.9099 24.0591Z" fill="#E6E6E6"/>
<path d="M27.3201 24.0591C27.801 24.0591 28.1909 23.6692 28.1909 23.1882C28.1909 22.7073 27.801 22.3174 27.3201 22.3174C26.8391 22.3174 26.4492 22.7073 26.4492 23.1882C26.4492 23.6692 26.8391 24.0591 27.3201 24.0591Z" fill="#E6E6E6"/>
<path d="M31.7263 24.0591C32.2073 24.0591 32.5971 23.6692 32.5971 23.1882C32.5971 22.7073 32.2073 22.3174 31.7263 22.3174C31.2454 22.3174 30.8555 22.7073 30.8555 23.1882C30.8555 23.6692 31.2454 24.0591 31.7263 24.0591Z" fill="#E6E6E6"/>
<path d="M36.1365 24.0591C36.6174 24.0591 37.0073 23.6692 37.0073 23.1882C37.0073 22.7073 36.6174 22.3174 36.1365 22.3174C35.6555 22.3174 35.2656 22.7073 35.2656 23.1882C35.2656 23.6692 35.6555 24.0591 36.1365 24.0591Z" fill="#E6E6E6"/>
<path d="M40.5427 24.0591C41.0237 24.0591 41.4135 23.6692 41.4135 23.1882C41.4135 22.7073 41.0237 22.3174 40.5427 22.3174C40.0618 22.3174 39.6719 22.7073 39.6719 23.1882C39.6719 23.6692 40.0618 24.0591 40.5427 24.0591Z" fill="#E6E6E6"/>
<path d="M0.870837 28.5229C1.35179 28.5229 1.74167 28.133 1.74167 27.6521C1.74167 27.1711 1.35179 26.7812 0.870837 26.7812C0.389887 26.7812 0 27.1711 0 27.6521C0 28.133 0.389887 28.5229 0.870837 28.5229Z" fill="#E6E6E6"/>
<path d="M5.27709 28.5229C5.75804 28.5229 6.14792 28.133 6.14792 27.6521C6.14792 27.1711 5.75804 26.7812 5.27709 26.7812C4.79614 26.7812 4.40625 27.1711 4.40625 27.6521C4.40625 28.133 4.79614 28.5229 5.27709 28.5229Z" fill="#E6E6E6"/>
<path d="M9.68724 28.5229C10.1682 28.5229 10.5581 28.133 10.5581 27.6521C10.5581 27.1711 10.1682 26.7812 9.68724 26.7812C9.20629 26.7812 8.81641 27.1711 8.81641 27.6521C8.81641 28.133 9.20629 28.5229 9.68724 28.5229Z" fill="#4DA16E"/>
<path d="M14.0935 28.5229C14.5744 28.5229 14.9643 28.133 14.9643 27.6521C14.9643 27.1711 14.5744 26.7812 14.0935 26.7812C13.6125 26.7812 13.2227 27.1711 13.2227 27.6521C13.2227 28.133 13.6125 28.5229 14.0935 28.5229Z" fill="#E6E6E6"/>
<path d="M18.5036 28.5229C18.9846 28.5229 19.3745 28.133 19.3745 27.6521C19.3745 27.1711 18.9846 26.7812 18.5036 26.7812C18.0227 26.7812 17.6328 27.1711 17.6328 27.6521C17.6328 28.133 18.0227 28.5229 18.5036 28.5229Z" fill="#E6E6E6"/>
<path d="M22.9099 28.5229C23.3908 28.5229 23.7807 28.133 23.7807 27.6521C23.7807 27.1711 23.3908 26.7812 22.9099 26.7812C22.4289 26.7812 22.0391 27.1711 22.0391 27.6521C22.0391 28.133 22.4289 28.5229 22.9099 28.5229Z" fill="#E6E6E6"/>
<path d="M27.3201 28.5229C27.801 28.5229 28.1909 28.133 28.1909 27.6521C28.1909 27.1711 27.801 26.7812 27.3201 26.7812C26.8391 26.7812 26.4492 27.1711 26.4492 27.6521C26.4492 28.133 26.8391 28.5229 27.3201 28.5229Z" fill="#E6E6E6"/>
<path d="M31.7263 28.5229C32.2073 28.5229 32.5971 28.133 32.5971 27.6521C32.5971 27.1711 32.2073 26.7812 31.7263 26.7812C31.2454 26.7812 30.8555 27.1711 30.8555 27.6521C30.8555 28.133 31.2454 28.5229 31.7263 28.5229Z" fill="#E6E6E6"/>
<path d="M36.1365 28.5229C36.6174 28.5229 37.0073 28.133 37.0073 27.6521C37.0073 27.1711 36.6174 26.7812 36.1365 26.7812C35.6555 26.7812 35.2656 27.1711 35.2656 27.6521C35.2656 28.133 35.6555 28.5229 36.1365 28.5229Z" fill="#E6E6E6"/>
<path d="M40.5427 28.5229C41.0237 28.5229 41.4135 28.133 41.4135 27.6521C41.4135 27.1711 41.0237 26.7812 40.5427 26.7812C40.0618 26.7812 39.6719 27.1711 39.6719 27.6521C39.6719 28.133 40.0618 28.5229 40.5427 28.5229Z" fill="#E6E6E6"/>
<path d="M0.870837 32.9863C1.35179 32.9863 1.74167 32.5964 1.74167 32.1155C1.74167 31.6345 1.35179 31.2446 0.870837 31.2446C0.389887 31.2446 0 31.6345 0 32.1155C0 32.5964 0.389887 32.9863 0.870837 32.9863Z" fill="#E6E6E6"/>
<path d="M5.27709 32.9863C5.75804 32.9863 6.14792 32.5964 6.14792 32.1155C6.14792 31.6345 5.75804 31.2446 5.27709 31.2446C4.79614 31.2446 4.40625 31.6345 4.40625 32.1155C4.40625 32.5964 4.79614 32.9863 5.27709 32.9863Z" fill="#E6E6E6"/>
<path d="M9.68724 32.9863C10.1682 32.9863 10.5581 32.5964 10.5581 32.1155C10.5581 31.6345 10.1682 31.2446 9.68724 31.2446C9.20629 31.2446 8.81641 31.6345 8.81641 32.1155C8.81641 32.5964 9.20629 32.9863 9.68724 32.9863Z" fill="#E6E6E6"/>
<path d="M14.0935 32.9863C14.5744 32.9863 14.9643 32.5964 14.9643 32.1155C14.9643 31.6345 14.5744 31.2446 14.0935 31.2446C13.6125 31.2446 13.2227 31.6345 13.2227 32.1155C13.2227 32.5964 13.6125 32.9863 14.0935 32.9863Z" fill="#E6E6E6"/>
<path d="M18.5036 32.9863C18.9846 32.9863 19.3745 32.5964 19.3745 32.1155C19.3745 31.6345 18.9846 31.2446 18.5036 31.2446C18.0227 31.2446 17.6328 31.6345 17.6328 32.1155C17.6328 32.5964 18.0227 32.9863 18.5036 32.9863Z" fill="#E6E6E6"/>
<path d="M22.9099 32.9863C23.3908 32.9863 23.7807 32.5964 23.7807 32.1155C23.7807 31.6345 23.3908 31.2446 22.9099 31.2446C22.4289 31.2446 22.0391 31.6345 22.0391 32.1155C22.0391 32.5964 22.4289 32.9863 22.9099 32.9863Z" fill="#E6E6E6"/>
<path d="M27.3201 32.9863C27.801 32.9863 28.1909 32.5964 28.1909 32.1155C28.1909 31.6345 27.801 31.2446 27.3201 31.2446C26.8391 31.2446 26.4492 31.6345 26.4492 32.1155C26.4492 32.5964 26.8391 32.9863 27.3201 32.9863Z" fill="#E6E6E6"/>
<path d="M31.7263 32.9863C32.2073 32.9863 32.5971 32.5964 32.5971 32.1155C32.5971 31.6345 32.2073 31.2446 31.7263 31.2446C31.2454 31.2446 30.8555 31.6345 30.8555 32.1155C30.8555 32.5964 31.2454 32.9863 31.7263 32.9863Z" fill="#E6E6E6"/>
<path d="M36.1365 32.9863C36.6174 32.9863 37.0073 32.5964 37.0073 32.1155C37.0073 31.6345 36.6174 31.2446 36.1365 31.2446C35.6555 31.2446 35.2656 31.6345 35.2656 32.1155C35.2656 32.5964 35.6555 32.9863 36.1365 32.9863Z" fill="#E6E6E6"/>
<path d="M40.5427 32.9863C41.0237 32.9863 41.4135 32.5964 41.4135 32.1155C41.4135 31.6345 41.0237 31.2446 40.5427 31.2446C40.0618 31.2446 39.6719 31.6345 39.6719 32.1155C39.6719 32.5964 40.0618 32.9863 40.5427 32.9863Z" fill="#E6E6E6"/>
<path d="M0.870837 37.4497C1.35179 37.4497 1.74167 37.0598 1.74167 36.5788C1.74167 36.0979 1.35179 35.708 0.870837 35.708C0.389887 35.708 0 36.0979 0 36.5788C0 37.0598 0.389887 37.4497 0.870837 37.4497Z" fill="#E6E6E6"/>
<path d="M5.27709 37.4497C5.75804 37.4497 6.14792 37.0598 6.14792 36.5788C6.14792 36.0979 5.75804 35.708 5.27709 35.708C4.79614 35.708 4.40625 36.0979 4.40625 36.5788C4.40625 37.0598 4.79614 37.4497 5.27709 37.4497Z" fill="#E6E6E6"/>
<path d="M9.68724 37.4497C10.1682 37.4497 10.5581 37.0598 10.5581 36.5788C10.5581 36.0979 10.1682 35.708 9.68724 35.708C9.20629 35.708 8.81641 36.0979 8.81641 36.5788C8.81641 37.0598 9.20629 37.4497 9.68724 37.4497Z" fill="#E6E6E6"/>
<path d="M14.0935 37.4497C14.5744 37.4497 14.9643 37.0598 14.9643 36.5788C14.9643 36.0979 14.5744 35.708 14.0935 35.708C13.6125 35.708 13.2227 36.0979 13.2227 36.5788C13.2227 37.0598 13.6125 37.4497 14.0935 37.4497Z" fill="#E6E6E6"/>
<path d="M18.5036 37.4497C18.9846 37.4497 19.3745 37.0598 19.3745 36.5788C19.3745 36.0979 18.9846 35.708 18.5036 35.708C18.0227 35.708 17.6328 36.0979 17.6328 36.5788C17.6328 37.0598 18.0227 37.4497 18.5036 37.4497Z" fill="#E6E6E6"/>
<path d="M22.9099 37.4497C23.3908 37.4497 23.7807 37.0598 23.7807 36.5788C23.7807 36.0979 23.3908 35.708 22.9099 35.708C22.4289 35.708 22.0391 36.0979 22.0391 36.5788C22.0391 37.0598 22.4289 37.4497 22.9099 37.4497Z" fill="#E6E6E6"/>
<path d="M27.3201 37.4497C27.801 37.4497 28.1909 37.0598 28.1909 36.5788C28.1909 36.0979 27.801 35.708 27.3201 35.708C26.8391 35.708 26.4492 36.0979 26.4492 36.5788C26.4492 37.0598 26.8391 37.4497 27.3201 37.4497Z" fill="#E6E6E6"/>
<path d="M31.7263 37.4497C32.2073 37.4497 32.5971 37.0598 32.5971 36.5788C32.5971 36.0979 32.2073 35.708 31.7263 35.708C31.2454 35.708 30.8555 36.0979 30.8555 36.5788C30.8555 37.0598 31.2454 37.4497 31.7263 37.4497Z" fill="#E6E6E6"/>
<path d="M36.1365 37.4497C36.6174 37.4497 37.0073 37.0598 37.0073 36.5788C37.0073 36.0979 36.6174 35.708 36.1365 35.708C35.6555 35.708 35.2656 36.0979 35.2656 36.5788C35.2656 37.0598 35.6555 37.4497 36.1365 37.4497Z" fill="#E6E6E6"/>
<path d="M40.5427 37.4497C41.0237 37.4497 41.4135 37.0598 41.4135 36.5788C41.4135 36.0979 41.0237 35.708 40.5427 35.708C40.0618 35.708 39.6719 36.0979 39.6719 36.5788C39.6719 37.0598 40.0618 37.4497 40.5427 37.4497Z" fill="#E6E6E6"/>
<path d="M0.870837 41.9131C1.35179 41.9131 1.74167 41.5232 1.74167 41.0422C1.74167 40.5613 1.35179 40.1714 0.870837 40.1714C0.389887 40.1714 0 40.5613 0 41.0422C0 41.5232 0.389887 41.9131 0.870837 41.9131Z" fill="#E6E6E6"/>
<path d="M5.27709 41.9131C5.75804 41.9131 6.14792 41.5232 6.14792 41.0422C6.14792 40.5613 5.75804 40.1714 5.27709 40.1714C4.79614 40.1714 4.40625 40.5613 4.40625 41.0422C4.40625 41.5232 4.79614 41.9131 5.27709 41.9131Z" fill="#E6E6E6"/>
<path d="M9.68724 41.9131C10.1682 41.9131 10.5581 41.5232 10.5581 41.0422C10.5581 40.5613 10.1682 40.1714 9.68724 40.1714C9.20629 40.1714 8.81641 40.5613 8.81641 41.0422C8.81641 41.5232 9.20629 41.9131 9.68724 41.9131Z" fill="#E6E6E6"/>
<path d="M14.0935 41.9131C14.5744 41.9131 14.9643 41.5232 14.9643 41.0422C14.9643 40.5613 14.5744 40.1714 14.0935 40.1714C13.6125 40.1714 13.2227 40.5613 13.2227 41.0422C13.2227 41.5232 13.6125 41.9131 14.0935 41.9131Z" fill="#E6E6E6"/>
<path d="M18.5036 41.9131C18.9846 41.9131 19.3745 41.5232 19.3745 41.0422C19.3745 40.5613 18.9846 40.1714 18.5036 40.1714C18.0227 40.1714 17.6328 40.5613 17.6328 41.0422C17.6328 41.5232 18.0227 41.9131 18.5036 41.9131Z" fill="#E6E6E6"/>
<path d="M22.9099 41.9131C23.3908 41.9131 23.7807 41.5232 23.7807 41.0422C23.7807 40.5613 23.3908 40.1714 22.9099 40.1714C22.4289 40.1714 22.0391 40.5613 22.0391 41.0422C22.0391 41.5232 22.4289 41.9131 22.9099 41.9131Z" fill="#E6E6E6"/>
<path d="M27.3201 41.9131C27.801 41.9131 28.1909 41.5232 28.1909 41.0422C28.1909 40.5613 27.801 40.1714 27.3201 40.1714C26.8391 40.1714 26.4492 40.5613 26.4492 41.0422C26.4492 41.5232 26.8391 41.9131 27.3201 41.9131Z" fill="#E6E6E6"/>
<path d="M31.7263 41.9131C32.2073 41.9131 32.5971 41.5232 32.5971 41.0422C32.5971 40.5613 32.2073 40.1714 31.7263 40.1714C31.2454 40.1714 30.8555 40.5613 30.8555 41.0422C30.8555 41.5232 31.2454 41.9131 31.7263 41.9131Z" fill="#E6E6E6"/>
<path d="M36.1365 41.9131C36.6174 41.9131 37.0073 41.5232 37.0073 41.0422C37.0073 40.5613 36.6174 40.1714 36.1365 40.1714C35.6555 40.1714 35.2656 40.5613 35.2656 41.0422C35.2656 41.5232 35.6555 41.9131 36.1365 41.9131Z" fill="#E6E6E6"/>
<path d="M40.5427 41.9131C41.0237 41.9131 41.4135 41.5232 41.4135 41.0422C41.4135 40.5613 41.0237 40.1714 40.5427 40.1714C40.0618 40.1714 39.6719 40.5613 39.6719 41.0422C39.6719 41.5232 40.0618 41.9131 40.5427 41.9131Z" fill="#E6E6E6"/>
<path d="M51.1758 7.78272C51.4678 7.78272 51.7478 7.89871 51.9543 8.10519C52.1608 8.31166 52.2768 8.5917 52.2768 8.8837V52.923C52.2768 53.0676 52.2483 53.2108 52.193 53.3444C52.1376 53.4779 52.0565 53.5993 51.9543 53.7016C51.8521 53.8038 51.7307 53.8849 51.5971 53.9402C51.4635 53.9955 51.3204 54.024 51.1758 54.024H19.5775C19.433 54.024 19.2898 53.9955 19.1562 53.9402C19.0226 53.8849 18.9013 53.8038 18.799 53.7016C18.6968 53.5993 18.6157 53.4779 18.5604 53.3444C18.505 53.2108 18.4766 53.0676 18.4766 52.923V8.8837C18.4766 8.5917 18.5926 8.31166 18.799 8.10519C19.0055 7.89871 19.2856 7.78271 19.5775 7.78271L51.1758 7.78272Z" fill="#E6E6E6"/>
<path d="M19.707 52.7947H51.0489V9.01172H19.707V52.7947Z" fill="white"/>
<path d="M44.0767 15.939C44.1056 15.939 44.1342 15.9447 44.1609 15.9557C44.1877 15.9668 44.2119 15.983 44.2324 16.0035C44.2528 16.0239 44.269 16.0482 44.2801 16.0749C44.2912 16.1016 44.2969 16.1302 44.2969 16.1592V16.5996C44.2969 16.658 44.2737 16.714 44.2324 16.7553C44.1911 16.7966 44.1351 16.8198 44.0767 16.8198H26.6811C26.6522 16.8198 26.6236 16.8141 26.5969 16.803C26.5702 16.7919 26.5459 16.7757 26.5254 16.7553C26.505 16.7348 26.4888 16.7105 26.4777 16.6838C26.4666 16.6571 26.4609 16.6285 26.4609 16.5996V16.1592C26.4609 16.1302 26.4666 16.1016 26.4777 16.0749C26.4888 16.0482 26.505 16.0239 26.5254 16.0035C26.5459 15.983 26.5702 15.9668 26.5969 15.9557C26.6236 15.9447 26.6522 15.939 26.6811 15.939H44.0767Z" fill="#E6E6E6"/>
<path d="M44.0767 18.0308C44.1351 18.0308 44.1911 18.054 44.2324 18.0953C44.2737 18.1366 44.2969 18.1926 44.2969 18.251V18.6914C44.2969 18.7498 44.2737 18.8058 44.2324 18.8471C44.1911 18.8883 44.1351 18.9116 44.0767 18.9116H26.6811C26.6522 18.9116 26.6236 18.9059 26.5969 18.8948C26.5702 18.8837 26.5459 18.8675 26.5254 18.8471C26.505 18.8266 26.4888 18.8023 26.4777 18.7756C26.4666 18.7489 26.4609 18.7203 26.4609 18.6914V18.251C26.4609 18.222 26.4666 18.1934 26.4777 18.1667C26.4888 18.14 26.505 18.1157 26.5254 18.0953C26.5459 18.0748 26.5702 18.0586 26.5969 18.0475C26.6236 18.0365 26.6522 18.0308 26.6811 18.0308H44.0767Z" fill="#E6E6E6"/>
<path d="M44.0767 20.1226C44.1351 20.1226 44.1911 20.1458 44.2324 20.1871C44.2737 20.2283 44.2969 20.2844 44.2969 20.3428V20.7831C44.2969 20.8415 44.2737 20.8976 44.2324 20.9388C44.1911 20.9801 44.1351 21.0033 44.0767 21.0033H26.6811C26.6227 21.0033 26.5667 20.9801 26.5254 20.9388C26.4841 20.8976 26.4609 20.8415 26.4609 20.7831V20.3428C26.4609 20.2844 26.4841 20.2283 26.5254 20.1871C26.5667 20.1458 26.6227 20.1226 26.6811 20.1226H44.0767Z" fill="#4DA16E"/>
<path d="M44.0767 22.2603C44.1351 22.2603 44.1911 22.2835 44.2324 22.3247C44.2737 22.366 44.2969 22.422 44.2969 22.4804V22.9208C44.2969 22.9792 44.2737 23.0352 44.2324 23.0765C44.1911 23.1178 44.1351 23.141 44.0767 23.141H26.6811C26.6522 23.141 26.6236 23.1353 26.5969 23.1243C26.5702 23.1132 26.5459 23.097 26.5254 23.0765C26.505 23.0561 26.4888 23.0318 26.4777 23.0051C26.4666 22.9784 26.4609 22.9498 26.4609 22.9208V22.4804C26.4609 22.4515 26.4666 22.4229 26.4777 22.3962C26.4888 22.3695 26.505 22.3452 26.5254 22.3247C26.5459 22.3043 26.5702 22.2881 26.5969 22.277C26.6236 22.2659 26.6522 22.2603 26.6811 22.2603H44.0767Z" fill="#E6E6E6"/>
<path d="M44.0767 24.3521C44.1351 24.3521 44.1911 24.3753 44.2324 24.4165C44.2737 24.4578 44.2969 24.5138 44.2969 24.5722V25.0126C44.2969 25.0416 44.2912 25.0702 44.2801 25.0969C44.269 25.1236 44.2528 25.1479 44.2324 25.1683C44.2119 25.1888 44.1877 25.205 44.1609 25.2161C44.1342 25.2271 44.1056 25.2328 44.0767 25.2328H26.6811C26.6522 25.2328 26.6236 25.2271 26.5969 25.2161C26.5702 25.205 26.5459 25.1888 26.5254 25.1683C26.505 25.1479 26.4888 25.1236 26.4777 25.0969C26.4666 25.0702 26.4609 25.0416 26.4609 25.0126V24.5722C26.4609 24.5433 26.4666 24.5147 26.4777 24.488C26.4888 24.4613 26.505 24.437 26.5254 24.4165C26.5459 24.3961 26.5702 24.3799 26.5969 24.3688C26.6236 24.3577 26.6522 24.3521 26.6811 24.3521H44.0767Z" fill="#E6E6E6"/>
<path d="M44.0767 26.4438C44.1351 26.4438 44.1911 26.467 44.2324 26.5083C44.2737 26.5496 44.2969 26.6056 44.2969 26.664V27.1044C44.2969 27.1628 44.2737 27.2188 44.2324 27.2601C44.1911 27.3014 44.1351 27.3246 44.0767 27.3246H26.6811C26.6227 27.3246 26.5667 27.3014 26.5254 27.2601C26.4841 27.2188 26.4609 27.1628 26.4609 27.1044V26.664C26.4609 26.6056 26.4841 26.5496 26.5254 26.5083C26.5667 26.467 26.6227 26.4438 26.6811 26.4438H44.0767Z" fill="#E6E6E6"/>
<path d="M26.7908 33.481C26.723 33.481 26.658 33.508 26.6101 33.5559C26.5622 33.6038 26.5352 33.6688 26.5352 33.7366V45.6124C26.5352 45.6802 26.5622 45.7452 26.6101 45.7931C26.658 45.841 26.723 45.868 26.7908 45.8681H43.9345C44.0023 45.868 44.0673 45.841 44.1152 45.7931C44.1631 45.7452 44.1901 45.6802 44.1901 45.6124V33.7366C44.1901 33.6688 44.1631 33.6038 44.1152 33.5559C44.0673 33.508 44.0023 33.481 43.9345 33.481H26.7908Z" fill="#4DA16E"/>
<path d="M35.4339 20.6012L35.2539 20.5534L39.1812 5.77979H61.9608V5.96601H39.3243L35.4339 20.6012Z" fill="#3F3D56"/>
<path d="M63.8216 7.82723C63.435 7.82723 63.0572 7.71261 62.7358 7.49786C62.4144 7.28311 62.1639 6.97787 62.016 6.62075C61.868 6.26364 61.8293 5.87068 61.9047 5.49156C61.9802 5.11245 62.1663 4.76421 62.4396 4.49088C62.7129 4.21756 63.0612 4.03142 63.4403 3.95601C63.8194 3.8806 64.2124 3.9193 64.5695 4.06723C64.9266 4.21515 65.2318 4.46565 65.4466 4.78705C65.6613 5.10844 65.776 5.4863 65.776 5.87284C65.7754 6.391 65.5693 6.88776 65.2029 7.25415C64.8365 7.62054 64.3397 7.82664 63.8216 7.82723ZM63.8216 4.10459C63.4718 4.10459 63.13 4.2083 62.8392 4.4026C62.5484 4.59689 62.3218 4.87306 62.1879 5.19616C62.0541 5.51927 62.0191 5.8748 62.0873 6.21781C62.1555 6.56082 62.3239 6.87589 62.5712 7.12319C62.8185 7.37048 63.1336 7.53889 63.4766 7.60712C63.8196 7.67535 64.1751 7.64033 64.4983 7.5065C64.8214 7.37266 65.0975 7.14602 65.2918 6.85523C65.4861 6.56444 65.5898 6.22257 65.5898 5.87284C65.5893 5.40404 65.4028 4.95458 65.0713 4.62309C64.7398 4.29159 64.2904 4.10512 63.8216 4.10459Z" fill="#3F3D56"/>
<path d="M63.8227 6.61747C64.2338 6.61747 64.5672 6.28414 64.5672 5.87295C64.5672 5.46175 64.2338 5.12842 63.8227 5.12842C63.4115 5.12842 63.0781 5.46175 63.0781 5.87295C63.0781 6.28414 63.4115 6.61747 63.8227 6.61747Z" fill="#4DA16E"/>
<path d="M34.8247 45.6221L35.0045 45.6701L31.0491 60.4362L8.26953 60.3926L8.26991 60.2064L30.9063 60.2498L34.8247 45.6221Z" fill="#3F3D56"/>
<path d="M6.41516 58.3413C6.8017 58.342 7.17934 58.4574 7.50032 58.6728C7.82131 58.8881 8.07122 59.1938 8.21846 59.5512C8.3657 59.9086 8.40365 60.3017 8.32751 60.6806C8.25138 61.0596 8.06457 61.4075 7.79072 61.6803C7.51688 61.9531 7.16828 62.1386 6.78902 62.2132C6.40977 62.2879 6.01688 62.2485 5.66004 62.0999C5.30321 61.9513 4.99846 61.7002 4.78433 61.3784C4.57019 61.0566 4.45629 60.6785 4.45703 60.2919C4.45862 59.7738 4.66567 59.2774 5.03276 58.9117C5.39985 58.546 5.89701 58.3409 6.41516 58.3413ZM6.40803 62.0639C6.75775 62.0646 7.09982 61.9616 7.39098 61.7678C7.68214 61.5741 7.90931 61.2983 8.04377 60.9755C8.17822 60.6526 8.21392 60.2972 8.14635 59.954C8.07878 59.6109 7.91097 59.2955 7.66415 59.0477C7.41733 58.8 7.10258 58.631 6.75971 58.5621C6.41683 58.4932 6.06123 58.5275 5.73786 58.6607C5.4145 58.794 5.13791 59.0201 4.94305 59.3105C4.7482 59.6009 4.64384 59.9426 4.64317 60.2923C4.6428 60.7611 4.82841 61.2109 5.15927 61.543C5.49013 61.8752 5.93922 62.0625 6.40803 62.0639Z" fill="#3F3D56"/>
<path d="M6.40859 61.0403C6.81978 61.0403 7.15312 60.707 7.15312 60.2958C7.15312 59.8846 6.81978 59.5513 6.40859 59.5513C5.9974 59.5513 5.66406 59.8846 5.66406 60.2958C5.66406 60.707 5.9974 61.0403 6.40859 61.0403Z" fill="#4DA16E"/>
<path d="M78.8409 76.7642H77.5273L77.7619 69.4927L81.2335 69.6803L78.8409 76.7642Z" fill="#FFB8B8"/>
<path d="M79.0196 80.943C78.6231 81.124 78.291 79.6579 77.9566 79.9866C77.0211 80.9059 76.0545 81.1061 74.8058 80.7047L74.7769 80.6998C74.7016 80.6756 74.6319 80.6363 74.5722 80.5844C74.5125 80.5325 74.4639 80.469 74.4294 80.3977C74.395 80.3265 74.3753 80.249 74.3717 80.1699C74.3681 80.0909 74.3805 80.0119 74.4083 79.9378C74.4416 79.8491 74.4959 79.7698 74.5666 79.7068C74.6372 79.6437 74.7222 79.5988 74.814 79.5758L75.8089 79.3271L77.371 76.5799L78.9657 76.4722C79.3212 76.9254 79.5694 77.4533 79.6914 78.0163C79.8135 78.5792 79.8063 79.1625 79.6704 79.7223C79.5257 80.313 79.3023 80.814 79.0196 80.943Z" fill="#2F2E41"/>
<path d="M91.3186 75.8028L90.0971 76.286L87.6406 69.4378L90.938 68.3354L91.3186 75.8028Z" fill="#FFB8B8"/>
<path d="M93.0212 79.623C92.719 79.9371 91.871 78.696 91.6808 79.1246C91.1491 80.3235 90.3239 80.8652 89.0151 80.9512L88.9864 80.9573C88.9074 80.9625 88.8282 80.9516 88.7536 80.9253C88.6789 80.899 88.6104 80.8578 88.5522 80.8042C88.4939 80.7506 88.4472 80.6858 88.4147 80.6136C88.3823 80.5414 88.3648 80.4634 88.3634 80.3843C88.3617 80.2896 88.383 80.1959 88.4255 80.1112C88.4681 80.0266 88.5305 79.9536 88.6075 79.8984L89.4412 79.3012L89.8834 76.1721L91.3267 75.4854C91.824 75.7761 92.2489 76.1757 92.5694 76.6543C92.89 77.1329 93.0978 77.678 93.1773 78.2485C93.26 78.851 93.2366 79.3991 93.0212 79.623Z" fill="#2F2E41"/>
<path d="M87.3311 40.691L85.3144 41.2096C85.1618 41.2488 85.0023 41.2534 84.8477 41.223C84.6931 41.1926 84.5473 41.1279 84.421 41.0338C84.2946 40.9396 84.1909 40.8184 84.1175 40.679C84.0442 40.5395 84.0029 40.3854 83.9969 40.228C83.9913 40.0832 84.0156 39.9388 84.0683 39.8038C84.1209 39.6689 84.2008 39.5462 84.3029 39.4434C84.4051 39.3406 84.5272 39.26 84.6619 39.2065C84.7965 39.153 84.9408 39.1278 85.0856 39.1325L86.862 39.1898L90.285 37.9434L87.0496 35.5306L87.4249 32.1528L93.7301 37.2148C93.8425 37.305 93.9351 37.4175 94.0021 37.5452C94.069 37.6729 94.1089 37.8131 94.1191 37.9569C94.1364 38.1986 94.0693 38.4389 93.9293 38.6367C93.7892 38.8345 93.5849 38.9776 93.3512 39.0417C91.8738 40.2474 89.7214 40.6166 87.3311 40.691Z" fill="#FFB8B8"/>
<path d="M82.7331 28.0244C84.5468 28.0244 86.0171 26.5541 86.0171 24.7405C86.0171 22.9268 84.5468 21.4565 82.7331 21.4565C80.9195 21.4565 79.4492 22.9268 79.4492 24.7405C79.4492 26.5541 80.9195 28.0244 82.7331 28.0244Z" fill="#FFB8B8"/>
<path d="M86.7661 29.2441L82.3563 31.0268C82.4858 29.6328 82.1204 28.2377 81.3242 27.0861L84.9834 26.2417C84.9359 27.3593 85.5402 28.3583 86.7661 29.2441Z" fill="#FFB8B8"/>
<path d="M87.5655 36.8907C84.0107 37.1752 82.0663 36.7032 79.0742 34.9673L80.2001 32.3401C80.1436 31.9446 80.1973 31.5411 80.3552 31.174C80.5131 30.807 80.7692 30.4905 81.0953 30.2596L82.2643 29.4315L85.8297 28.3994L85.9896 28.4074C86.4639 28.4311 86.9133 28.627 87.2536 28.9582C87.5938 29.2895 87.8016 29.7334 87.8381 30.2069C88.6126 32.5217 88.6176 34.7592 87.5655 36.8907Z" fill="#4DA16E"/>
<path d="M86.8614 42.3795L79.2615 41.5351L78.6985 39.0956C77.4507 37.2119 77.9953 35.4865 79.4491 33.8413C82.0991 35.542 84.5589 36.2769 88.0811 35.7178C87.1444 37.9959 86.2793 40.2347 86.8614 42.3795Z" fill="#2F2E41"/>
<path d="M92.7715 70.8093L86.7197 70.4809L84.7493 54.8119L83.1543 70.387L75.9766 70.0587C78.1661 59.8194 79.6871 50.099 79.2605 41.1602L86.7666 41.8169C89.3105 44.4992 90.5736 48.7809 91.3172 53.8736C92.0607 58.9664 92.66 64.8702 92.7715 70.8093Z" fill="#2F2E41"/>
<path d="M86.3475 21.7507C86.9709 21.7507 87.4763 21.2453 87.4763 20.6219C87.4763 19.9985 86.9709 19.4932 86.3475 19.4932C85.7241 19.4932 85.2188 19.9985 85.2188 20.6219C85.2188 21.2453 85.7241 21.7507 86.3475 21.7507Z" fill="#2F2E41"/>
<path d="M85.1861 20.3457C85.2046 20.0593 85.3317 19.7907 85.5413 19.5947C85.7509 19.3987 86.0273 19.29 86.3143 19.2907C86.291 19.2877 86.2679 19.2841 86.2442 19.2826C85.9454 19.2634 85.6513 19.3637 85.4264 19.5613C85.2016 19.759 85.0645 20.0379 85.0453 20.3366C85.0261 20.6354 85.1263 20.9295 85.324 21.1543C85.5217 21.3792 85.8006 21.5163 86.0993 21.5355C86.1231 21.537 86.1464 21.5364 86.1699 21.5364C85.8852 21.5004 85.625 21.3571 85.4422 21.1359C85.2594 20.9147 85.1678 20.6321 85.1861 20.3457Z" fill="#2F2E41"/>
<path d="M85.1794 20.8275C84.1727 19.9924 81.2853 21.0538 81.099 21.6152C79.7377 21.8008 78.707 22.595 78.707 24.0072C79.5164 24.3388 80.4368 24.2979 81.4319 24.0072C83.018 25.2998 83.1267 26.9248 82.1621 28.7912L83.3489 28.8149L84.8199 26.665L84.8902 28.8458L87.6105 28.7912V25.666C87.6193 24.6269 87.3802 23.6007 86.9129 22.6726C86.489 21.849 85.8311 21.3681 85.1794 20.8275Z" fill="#2F2E41"/>
<path d="M82.6452 26.3493C82.9434 26.3493 83.185 26.0109 83.185 25.5936C83.185 25.1762 82.9434 24.8379 82.6452 24.8379C82.3471 24.8379 82.1055 25.1762 82.1055 25.5936C82.1055 26.0109 82.3471 26.3493 82.6452 26.3493Z" fill="#FFB8B8"/>
<path d="M78.5162 54.5752C78.5665 54.5752 78.6147 54.5952 78.6502 54.6307C78.6858 54.6663 78.7058 54.7145 78.7058 54.7647V62.3465C78.7058 62.3968 78.6858 62.445 78.6502 62.4806C78.6147 62.5161 78.5665 62.5361 78.5162 62.5361H73.0763C73.026 62.5361 72.9778 62.5161 72.9422 62.4806C72.9067 62.445 72.8867 62.3968 72.8867 62.3465V54.7647C72.8867 54.7145 72.9067 54.6663 72.9422 54.6307C72.9778 54.5952 73.026 54.5752 73.0763 54.5752H78.5162Z" fill="#4DA16E"/>
<path d="M79.261 51.7621L79.4447 54.9463C79.4565 55.1513 79.4225 55.3564 79.3452 55.5466C79.2679 55.7368 79.1493 55.9074 78.9978 56.046C78.8463 56.1846 78.6659 56.2878 78.4696 56.348C78.2733 56.4082 78.0661 56.4239 77.863 56.3941C77.054 56.2751 77.0356 55.4839 77.2339 54.6906L77.9895 51.6683C79.8431 45.0222 80.3435 38.4989 80.2497 32.1368C80.2459 31.9211 80.2858 31.7068 80.3671 31.5069C80.4484 31.307 80.5693 31.1257 80.7226 30.9738C80.8759 30.8219 81.0584 30.7027 81.2591 30.6233C81.4597 30.5439 81.6744 30.506 81.8901 30.5118C82.1005 30.5179 82.3076 30.5656 82.4996 30.652C82.6915 30.7385 82.8644 30.8621 83.0084 31.0156C83.1524 31.1692 83.2646 31.3497 83.3386 31.5468C83.4125 31.7439 83.4468 31.9537 83.4393 32.1641C83.1769 39.6348 82.0873 46.4191 79.261 51.7621Z" fill="#FFB8B8"/>
</g>
<defs>
<clipPath id="clip0_932_4209">
<rect width="100" height="81.0494" fill="white"/>
</clipPath>
</defs>
</svg>
