<svg width="48" height="48" viewBox="0 0 48 48" fill="none" xmlns="http://www.w3.org/2000/svg">
<path d="M40.2008 34.8H13.2008C12.7234 34.8 12.2656 34.9896 11.928 35.3272C11.5904 35.6648 11.4008 36.1226 11.4008 36.6C11.4008 37.0774 11.5904 37.5352 11.928 37.8728C12.2656 38.2104 12.7234 38.4 13.2008 38.4H40.2008V42H13.2008C11.7686 42 10.3951 41.4311 9.3824 40.4184C8.36971 39.4057 7.80078 38.0322 7.80078 36.6V9.6C7.80078 8.64522 8.18007 7.72955 8.8552 7.05442C9.53033 6.37928 10.446 6 11.4008 6H40.2008V34.8ZM11.4008 31.29C11.6924 31.2306 11.993 31.2 12.3008 31.2H36.6008V9.6H11.4008V31.29ZM31.2008 18.6H16.8008V15H31.2008V18.6Z" fill="#19282B"/>
</svg>
