<svg width="48" height="48" viewBox="0 0 48 48" fill="none" xmlns="http://www.w3.org/2000/svg">
<path d="M25.8 40.1998V43.7998H22.2V40.1998H7.8C7.32261 40.1998 6.86477 40.0102 6.52721 39.6726C6.18964 39.335 6 38.8772 6 38.3998V9.59981C6 9.12242 6.18964 8.66458 6.52721 8.32702C6.86477 7.98945 7.32261 7.79981 7.8 7.79981H18.6C19.6217 7.7986 20.6318 8.01537 21.563 8.43565C22.4942 8.85594 23.325 9.47006 24 10.237C24.675 9.47006 25.5058 8.85594 26.437 8.43565C27.3682 8.01537 28.3783 7.7986 29.4 7.79981H40.2C40.6774 7.79981 41.1352 7.98945 41.4728 8.32702C41.8104 8.66458 42 9.12242 42 9.59981V38.3998C42 38.8772 41.8104 39.335 41.4728 39.6726C41.1352 40.0102 40.6774 40.1998 40.2 40.1998H25.8ZM38.4 36.5998V11.3998H29.4C28.4452 11.3998 27.5295 11.7791 26.8544 12.4542C26.1793 13.1294 25.8 14.045 25.8 14.9998V36.5998H38.4ZM22.2 36.5998V14.9998C22.2 14.045 21.8207 13.1294 21.1456 12.4542C20.4705 11.7791 19.5548 11.3998 18.6 11.3998H9.6V36.5998H22.2Z" fill="#19282B"/>
</svg>
