<svg width="100" height="80" viewBox="0 0 100 80" fill="none" xmlns="http://www.w3.org/2000/svg">
<rect x="10" width="80" height="80" rx="18" fill="#E7F4EB"/>
<g clip-path="url(#clip0_932_4196)">
<path d="M35.2992 10.553C35.2073 10.5701 35.1204 10.608 35.0453 10.6638C34.9645 10.7237 34.8947 10.7972 34.839 10.881C34.7785 10.971 34.7317 11.0695 34.7 11.1733C34.6662 11.2824 34.6488 11.396 34.6484 11.5102V58.3908C34.6494 58.618 34.7154 58.8401 34.8385 59.0308C34.8944 59.1178 34.9641 59.195 35.0449 59.2594C35.1195 59.3191 35.2062 59.3619 35.2989 59.3846L69.9385 67.4015C70.0772 67.435 70.2214 67.439 70.3618 67.4131C70.4881 67.3893 70.6071 67.3362 70.7093 67.258C70.8101 67.1798 70.8908 67.0785 70.9446 66.9626C71.0031 66.8345 71.0327 66.695 71.0313 66.5541V5.42648C71.0323 5.28407 71.0028 5.1431 70.9446 5.01316C70.8905 4.89369 70.81 4.78809 70.7093 4.70431C70.608 4.62055 70.4893 4.56063 70.3619 4.52896C70.2232 4.49516 70.079 4.49089 69.9386 4.51644L35.2992 10.553Z" fill="#090814"/>
<path d="M36.0996 11.7422C36.0059 11.7606 35.9175 11.8 35.8411 11.8574C35.7592 11.9187 35.6885 11.9938 35.6322 12.0794C35.5715 12.1709 35.5248 12.2711 35.4936 12.3766C35.4605 12.4874 35.4442 12.6027 35.4454 12.7184V57.6058C35.4439 57.8361 35.509 58.062 35.6327 58.256C35.6891 58.3452 35.7596 58.4244 35.8416 58.4906C35.9174 58.5524 36.0056 58.597 36.1001 58.6214L68.5141 65.8696C68.6516 65.8993 68.7939 65.8993 68.9315 65.8696C69.0562 65.8425 69.1727 65.7861 69.2713 65.7049C69.37 65.6237 69.4479 65.5202 69.4986 65.4028C69.5543 65.273 69.5814 65.1326 69.5779 64.9913V7.39024C69.581 7.24746 69.554 7.10563 69.4986 6.97405C69.4476 6.85324 69.3701 6.74549 69.272 6.65877C69.1738 6.57205 69.0575 6.50858 68.9315 6.47306C68.7957 6.43517 68.6534 6.42663 68.5141 6.44801L36.0996 11.7422Z" fill="white"/>
<path d="M40.2406 17.8558C40.1969 17.861 40.1549 17.8762 40.118 17.9002C40.0792 17.9254 40.0453 17.9576 40.0181 17.9951C39.9888 18.0352 39.9661 18.0797 39.9508 18.127C39.9343 18.177 39.9259 18.2294 39.9258 18.282V20.0791C39.9256 20.1302 39.9341 20.181 39.9508 20.2294C39.9656 20.2726 39.9884 20.3127 40.018 20.3475C40.0453 20.3797 40.0794 20.4054 40.1179 20.4226C40.1564 20.4396 40.1986 20.4465 40.2404 20.4427L62.0741 18.5112C62.1335 18.5056 62.191 18.488 62.2434 18.4595C62.2959 18.4311 62.3428 18.3934 62.3819 18.3483C62.4219 18.3024 62.4536 18.25 62.4756 18.1932C62.4982 18.1351 62.51 18.0733 62.5103 18.0109V15.8884C62.5105 15.8283 62.4988 15.7687 62.4758 15.7131C62.4544 15.6615 62.4225 15.6149 62.3822 15.5763C62.3426 15.5386 62.2953 15.51 62.2436 15.4924C62.1891 15.474 62.1312 15.4677 62.074 15.4741L40.2406 17.8558Z" fill="#4DA16E"/>
<path d="M40.122 23.8257C40.1111 23.8263 40.1005 23.8297 40.0911 23.8353C40.0814 23.8411 40.0729 23.8488 40.0661 23.8579C40.0587 23.8676 40.053 23.8785 40.0492 23.89C40.0451 23.9024 40.043 23.9154 40.043 23.9285V24.6308C40.0429 24.6435 40.045 24.6562 40.0491 24.6683C40.0528 24.6793 40.0586 24.6896 40.066 24.6985C40.0728 24.7068 40.0813 24.7135 40.0909 24.7182C40.1006 24.7228 40.1112 24.7249 40.1219 24.7243L62.3454 23.5164C62.3602 23.5156 62.3747 23.5117 62.3879 23.505C62.401 23.4984 62.4127 23.4893 62.4225 23.4784C62.443 23.4554 62.4544 23.4257 62.4545 23.3949V22.5671C62.4545 22.5518 62.4516 22.5367 62.4459 22.5226C62.4405 22.5094 62.4326 22.4975 62.4225 22.4874C62.4125 22.4773 62.4004 22.4695 62.3871 22.4644C62.3738 22.4594 62.3595 22.4573 62.3453 22.4582L40.122 23.8257Z" fill="#CCCCCC"/>
<path d="M40.1219 26.1095C40.111 26.11 40.1004 26.1131 40.0909 26.1186C40.0812 26.1243 40.0727 26.1318 40.0659 26.1408C40.0586 26.1504 40.0529 26.1611 40.0491 26.1726C40.045 26.1849 40.0429 26.1979 40.043 26.2109V26.9129C40.0429 26.9257 40.045 26.9384 40.0491 26.9505C40.0528 26.9618 40.0585 26.9723 40.0659 26.9816C40.0728 26.9899 40.0813 26.9968 40.0909 27.0016C40.1005 27.0064 40.1112 27.0087 40.1219 27.0082L62.3454 26.2053C62.3602 26.2048 62.3746 26.2013 62.3879 26.1949C62.401 26.1885 62.4127 26.1796 62.4225 26.1688C62.4431 26.1462 62.4545 26.1167 62.4545 26.0862V25.2584C62.4545 25.2431 62.4516 25.228 62.4459 25.2138C62.4405 25.2005 62.4326 25.1884 62.4225 25.1781C62.4127 25.1681 62.4009 25.1601 62.3879 25.1548C62.3744 25.1494 62.36 25.1469 62.3454 25.1476L40.1219 26.1095Z" fill="#CCCCCC"/>
<path d="M40.1219 28.3935C40.111 28.3937 40.1004 28.3967 40.0909 28.402C40.0812 28.4075 40.0728 28.4148 40.0659 28.4236C40.0586 28.4331 40.0529 28.4438 40.0491 28.4552C40.045 28.4675 40.0429 28.4804 40.043 28.4934V29.1957C40.043 29.2085 40.0451 29.2211 40.0492 29.2332C40.0529 29.2445 40.0586 29.255 40.0659 29.2643C40.0727 29.2729 40.0813 29.2799 40.0909 29.285C40.1005 29.2899 40.1111 29.2924 40.1219 29.2922L62.3451 28.8951C62.3598 28.8946 62.3743 28.8911 62.3875 28.8847C62.4006 28.8786 62.4123 28.8701 62.4221 28.8596C62.4322 28.8487 62.4401 28.8359 62.4455 28.8221C62.4511 28.8077 62.454 28.7924 62.454 28.777V27.9493C62.4541 27.934 62.4512 27.9188 62.4455 27.9046C62.4401 27.8912 62.4322 27.879 62.4221 27.8686C62.4124 27.8582 62.4006 27.8498 62.3875 27.8441C62.3741 27.8386 62.3596 27.836 62.3451 27.8365L40.1219 28.3935Z" fill="#CCCCCC"/>
<path d="M40.0825 32.9556C40.0717 32.9554 40.061 32.958 40.0515 32.963C40.0418 32.968 40.0333 32.9751 40.0265 32.9836C40.0192 32.9929 40.0137 33.0034 40.01 33.0147C40.006 33.0268 40.0039 33.0395 40.0039 33.0523V33.7536C40.0039 33.7666 40.0059 33.7795 40.01 33.7918C40.0139 33.8031 40.0196 33.8136 40.0269 33.8229C40.0337 33.8317 40.0422 33.839 40.0519 33.8444C40.0615 33.85 40.0723 33.853 40.0833 33.8532L62.2918 34.2665C62.3063 34.2668 62.3207 34.264 62.3341 34.2583C62.3471 34.2526 62.3589 34.2445 62.3687 34.2342C62.3787 34.2237 62.3867 34.2114 62.3921 34.1979C62.3978 34.1837 62.4007 34.1685 62.4007 34.1532V33.3258C62.4007 33.3104 62.3978 33.2951 62.3921 33.2807C62.3867 33.2668 62.3788 33.2541 62.3687 33.2431C62.3589 33.2326 62.3472 33.2241 62.3341 33.2181C62.3208 33.2119 62.3064 33.2086 62.2918 33.2084L40.0825 32.9556Z" fill="#CCCCCC"/>
<path d="M40.0826 35.2388C40.0719 35.2384 40.0612 35.2408 40.0516 35.2456C40.0419 35.2506 40.0334 35.2577 40.0266 35.2662C40.0192 35.2755 40.0135 35.286 40.0098 35.2973C40.0058 35.3094 40.0038 35.3221 40.0039 35.3349V36.0363C40.0039 36.0493 40.006 36.0622 40.0102 36.0746C40.014 36.086 40.0197 36.0967 40.027 36.1063C40.0338 36.1152 40.0423 36.1226 40.052 36.1282C40.0615 36.1336 40.0721 36.1367 40.083 36.1371L62.2914 36.9549C62.3059 36.9555 62.3203 36.9529 62.3338 36.9474C62.3467 36.9421 62.3585 36.9341 62.3683 36.924C62.3784 36.9137 62.3863 36.9015 62.3917 36.8882C62.3974 36.874 62.4003 36.8588 62.4002 36.8435V36.0158C62.4002 36.0004 62.3974 35.985 62.3917 35.9706C62.3863 35.9568 62.3784 35.944 62.3683 35.9331C62.3586 35.9223 62.3468 35.9136 62.3338 35.9073C62.3205 35.9009 62.3061 35.8973 62.2914 35.8969L40.0826 35.2388Z" fill="#CCCCCC"/>
<path d="M40.0826 37.522C40.072 37.5216 40.0615 37.5239 40.052 37.5287C40.0424 37.5333 40.0339 37.54 40.027 37.5482C40.0196 37.5572 40.0139 37.5675 40.0102 37.5785C40.006 37.5906 40.0039 37.6033 40.0039 37.6161V38.3175C40.0039 38.3305 40.006 38.3435 40.0102 38.3559C40.014 38.3675 40.0196 38.3783 40.027 38.388C40.0338 38.3969 40.0423 38.4045 40.052 38.4103C40.0615 38.4163 40.0723 38.4199 40.0835 38.4208L62.2919 39.6438C62.3061 39.6447 62.3203 39.6425 62.3336 39.6374C62.3469 39.6323 62.359 39.6244 62.369 39.6143C62.379 39.6041 62.387 39.5921 62.3923 39.5788C62.3981 39.5647 62.401 39.5496 62.4009 39.5344V38.7067C62.4008 38.6762 62.3894 38.6467 62.369 38.6241C62.3592 38.6132 62.3474 38.6043 62.3344 38.5978C62.3212 38.5912 62.3068 38.5874 62.292 38.5866L40.0826 37.522Z" fill="#CCCCCC"/>
<path d="M40.083 39.8166C40.0723 39.8158 40.0617 39.8177 40.052 39.8222C40.0424 39.8268 40.0338 39.8334 40.027 39.8416C40.0196 39.8505 40.0139 39.8606 40.0102 39.8716C40.006 39.8837 40.0039 39.8964 40.0039 39.9091V40.6105C40.0039 40.6236 40.006 40.6367 40.0102 40.6491C40.014 40.6607 40.0197 40.6716 40.027 40.6814C40.0338 40.6905 40.0423 40.6983 40.052 40.7042C40.0613 40.7101 40.072 40.7137 40.083 40.7146L62.2914 42.3446C62.3058 42.3457 62.3202 42.3436 62.3337 42.3386C62.3467 42.3337 62.3585 42.3261 62.3683 42.3164C62.3784 42.3064 62.3863 42.2945 62.3917 42.2814C62.3974 42.2674 62.4003 42.2523 62.4002 42.2371V41.4093C62.4002 41.3938 62.3973 41.3784 62.3917 41.3639C62.3862 41.3499 62.3783 41.3369 62.3683 41.3257C62.3586 41.3146 62.3468 41.3054 62.3337 41.2986C62.3206 41.2918 62.3062 41.2878 62.2914 41.2867L40.083 39.8166Z" fill="#CCCCCC"/>
<path d="M40.083 42.0994C40.0724 42.0984 40.0617 42.1002 40.052 42.1045C40.0423 42.109 40.0338 42.1155 40.027 42.1237C40.0196 42.1323 40.0139 42.1423 40.0102 42.153C40.006 42.1651 40.0039 42.1778 40.0039 42.1906V42.8919C40.0039 42.9051 40.006 42.9182 40.0102 42.9306C40.0139 42.9424 40.0196 42.9534 40.0269 42.9633C40.0337 42.9726 40.0422 42.9805 40.0519 42.9866C40.0612 42.9925 40.0719 42.996 40.0829 42.997L62.2913 45.0328C62.3056 45.0342 62.32 45.0324 62.3336 45.0277C62.3465 45.023 62.3583 45.0157 62.3682 45.0061C62.3783 44.9963 62.3862 44.9845 62.3916 44.9715C62.3973 44.9575 62.4002 44.9425 62.4001 44.9273V44.0996C62.4001 44.0839 62.3972 44.0684 62.3916 44.0539C62.3861 44.0397 62.3782 44.0266 62.3682 44.0152C62.3584 44.0039 62.3467 43.9945 62.3336 43.9875C62.3205 43.9805 62.3061 43.9762 62.2913 43.9749L40.083 42.0994Z" fill="#CCCCCC"/>
<path d="M40.083 46.6777C40.0725 46.6764 40.0618 46.6778 40.052 46.6817C40.0425 46.6856 40.0339 46.6915 40.027 46.6991C40.0195 46.7078 40.0138 46.7178 40.0102 46.7287C40.0059 46.7408 40.0038 46.7535 40.0039 46.7663V47.4677C40.004 47.4809 40.0061 47.494 40.0102 47.5065C40.014 47.5184 40.0197 47.5297 40.027 47.5398C40.0338 47.5493 40.0423 47.5575 40.052 47.564C40.0613 47.5702 40.0719 47.5742 40.083 47.5756L62.2914 50.4235C62.3056 50.4254 62.3201 50.4242 62.3337 50.4199C62.3467 50.4156 62.3585 50.4086 62.3683 50.3992C62.3784 50.3897 62.3864 50.3783 62.3917 50.3655C62.3974 50.3516 62.4003 50.3367 62.4002 50.3217V49.4943C62.4002 49.4786 62.3973 49.463 62.3917 49.4483C62.3862 49.4339 62.3783 49.4206 62.3683 49.4089C62.3586 49.3973 62.3469 49.3875 62.3337 49.3799C62.3207 49.3724 62.3063 49.3676 62.2914 49.3657L40.083 46.6777Z" fill="#CCCCCC"/>
<path d="M40.083 48.9606C40.0725 48.9591 40.0618 48.9603 40.052 48.9641C40.0424 48.9679 40.0339 48.9739 40.027 48.9817C40.0196 48.99 40.0138 48.9998 40.0102 49.0103C40.0059 49.0224 40.0038 49.0351 40.0039 49.0479V49.7493C40.0039 49.7625 40.006 49.7757 40.01 49.7883C40.0139 49.8002 40.0196 49.8116 40.0269 49.8218C40.0337 49.8316 40.0421 49.8401 40.0519 49.8469C40.0611 49.8534 40.0717 49.8576 40.0829 49.8594L62.2913 53.1126C62.3054 53.1147 62.3199 53.1137 62.3336 53.1097C62.3465 53.1058 62.3583 53.0991 62.3682 53.09C62.3783 53.0807 62.3863 53.0694 62.3916 53.0567C62.3973 53.0428 62.4002 53.028 62.4001 53.013V52.1848C62.4 52.1691 62.3972 52.1535 62.3916 52.1388C62.3861 52.1242 62.3782 52.1107 62.3682 52.0988C62.3584 52.0871 62.3467 52.0771 62.3336 52.0692C62.3206 52.0615 62.3062 52.0564 62.2913 52.0542L40.083 48.9606Z" fill="#CCCCCC"/>
<path d="M40.083 51.244C40.0726 51.2422 40.0619 51.2432 40.052 51.2469C40.0424 51.2505 40.0339 51.2563 40.027 51.2639C40.0196 51.2722 40.0138 51.2819 40.0102 51.2924C40.0059 51.3044 40.0038 51.3171 40.0039 51.3299V52.0319C40.0039 52.0453 40.0061 52.0585 40.0102 52.0712C40.014 52.0833 40.0197 52.0947 40.027 52.1051C40.0338 52.1148 40.0423 52.1233 40.052 52.1301C40.0613 52.1366 40.0718 52.1409 40.083 52.1427L62.2914 55.801C62.3055 55.8035 62.32 55.8028 62.3338 55.799C62.3466 55.7954 62.3584 55.7889 62.3683 55.78C62.3784 55.7708 62.3864 55.7596 62.3917 55.747C62.3974 55.7332 62.4003 55.7184 62.4002 55.7034V54.8756C62.4002 54.8597 62.3973 54.844 62.3917 54.8292C62.3862 54.8145 62.3783 54.8009 62.3683 54.7888C62.3586 54.7768 62.3469 54.7666 62.3338 54.7586C62.3208 54.7506 62.3064 54.7453 62.2914 54.7428L40.083 51.244Z" fill="#CCCCCC"/>
<path d="M76.3945 36.164H85.7444V36.031H76.5272V29.8467H76.3945V36.164Z" fill="#090814"/>
<path d="M78.2928 48.1386H78.1602V41.8213H87.5101V41.9543H78.2928V48.1386Z" fill="#090814"/>
<path d="M90.6507 31.4326H81.3008V25.1152H81.4334V31.2989H90.6507V31.4326Z" fill="#090814"/>
<path d="M79.4394 22.458C79.3891 22.458 79.341 22.478 79.3055 22.5136C79.2699 22.5492 79.25 22.5975 79.25 22.6479C79.25 22.6982 79.2699 22.7465 79.3055 22.7821C79.341 22.8178 79.3891 22.8378 79.4394 22.8378H83.28C83.3302 22.8378 83.3784 22.8178 83.4139 22.7821C83.4494 22.7465 83.4693 22.6982 83.4693 22.6479C83.4693 22.5975 83.4494 22.5492 83.4139 22.5136C83.3784 22.478 83.3302 22.458 83.28 22.458H79.4394Z" fill="#3F3D56"/>
<path d="M79.4394 23.5767C79.3891 23.5767 79.341 23.5967 79.3055 23.6323C79.2699 23.6679 79.25 23.7162 79.25 23.7665C79.25 23.8169 79.2699 23.8652 79.3055 23.9008C79.341 23.9364 79.3891 23.9564 79.4394 23.9564H83.28C83.3302 23.9564 83.3784 23.9364 83.4139 23.9008C83.4494 23.8652 83.4693 23.8169 83.4693 23.7665C83.4693 23.7162 83.4494 23.6679 83.4139 23.6323C83.3784 23.5967 83.3302 23.5767 83.28 23.5767H79.4394Z" fill="#3F3D56"/>
<path d="M74.5136 28.9964C74.4634 28.9964 74.4152 28.9764 74.3797 28.9408C74.3442 28.9052 74.3242 28.8569 74.3242 28.8066C74.3242 28.7562 74.3442 28.7079 74.3797 28.6723C74.4152 28.6367 74.4634 28.6167 74.5136 28.6167H78.3546C78.3794 28.6167 78.4041 28.6216 78.4271 28.6312C78.45 28.6407 78.4709 28.6547 78.4885 28.6723C78.5061 28.6899 78.52 28.7109 78.5295 28.7339C78.539 28.7569 78.5439 28.7816 78.5439 28.8066C78.5439 28.8315 78.539 28.8562 78.5295 28.8792C78.52 28.9023 78.5061 28.9232 78.4885 28.9408C78.4709 28.9585 78.45 28.9725 78.4271 28.982C78.4041 28.9915 78.3794 28.9964 78.3546 28.9964H74.5136Z" fill="#2F2E41"/>
<path d="M74.5136 27.8778C74.4634 27.8778 74.4152 27.8578 74.3797 27.8222C74.3442 27.7866 74.3242 27.7383 74.3242 27.6879C74.3242 27.6376 74.3442 27.5893 74.3797 27.5537C74.4152 27.5181 74.4634 27.498 74.5136 27.498H78.3546C78.3794 27.498 78.4041 27.503 78.4271 27.5125C78.45 27.522 78.4709 27.536 78.4885 27.5537C78.5061 27.5713 78.52 27.5922 78.5295 27.6153C78.539 27.6383 78.5439 27.663 78.5439 27.6879C78.5439 27.7129 78.539 27.7375 78.5295 27.7606C78.52 27.7836 78.5061 27.8046 78.4885 27.8222C78.4709 27.8398 78.45 27.8538 78.4271 27.8633C78.4041 27.8729 78.3794 27.8778 78.3546 27.8778H74.5136Z" fill="#2F2E41"/>
<path d="M92.9033 44.7969C91.5001 44.7969 90.1284 44.3797 88.9617 43.598C87.795 42.8163 86.8856 41.7052 86.3486 40.4053C85.8117 39.1054 85.6712 37.675 85.9449 36.295C86.2187 34.915 86.8944 33.6474 87.8866 32.6525C88.8788 31.6576 90.143 30.98 91.5192 30.7055C92.8954 30.431 94.3219 30.5719 95.6183 31.1104C96.9147 31.6488 98.0228 32.5606 98.8023 33.7305C99.5819 34.9004 99.998 36.2759 99.998 37.6829C99.998 39.5696 99.2505 41.3791 97.92 42.7133C96.5895 44.0474 94.7849 44.7969 92.9033 44.7969ZM92.9033 30.7006C91.5262 30.7005 90.18 31.1099 89.0349 31.877C87.8899 32.6442 86.9974 33.7345 86.4704 35.0102C85.9433 36.286 85.8054 37.6897 86.074 39.0441C86.3426 40.3984 87.0057 41.6424 87.9794 42.6189C88.9532 43.5953 90.1938 44.2603 91.5444 44.5297C92.8951 44.7991 94.2951 44.6609 95.5673 44.1325C96.8396 43.6041 97.9271 42.7092 98.6922 41.5611C99.4572 40.413 99.8656 39.0631 99.8656 37.6823C99.8656 35.8307 99.1321 34.0549 97.8264 32.7456C96.5207 31.4363 94.7499 30.7007 92.9033 30.7006Z" fill="#090814"/>
<path d="M90.0536 32.2297C90.4931 32.2297 90.8494 31.8724 90.8494 31.4317C90.8494 30.991 90.4931 30.6338 90.0536 30.6338C89.6141 30.6338 89.2578 30.991 89.2578 31.4317C89.2578 31.8724 89.6141 32.2297 90.0536 32.2297Z" fill="#4DA16E"/>
<path d="M87.3114 42.7526C87.7509 42.7526 88.1072 42.3954 88.1072 41.9547C88.1072 41.514 87.7509 41.1567 87.3114 41.1567C86.8719 41.1567 86.5156 41.514 86.5156 41.9547C86.5156 42.3954 86.8719 42.7526 87.3114 42.7526Z" fill="#4DA16E"/>
<path d="M86.0067 36.9611C86.4462 36.9611 86.8025 36.6039 86.8025 36.1632C86.8025 35.7225 86.4462 35.3652 86.0067 35.3652C85.5672 35.3652 85.2109 35.7225 85.2109 36.1632C85.2109 36.6039 85.5672 36.9611 86.0067 36.9611Z" fill="#4DA16E"/>
<path d="M76.2802 48.9883C76.2549 48.9877 76.2297 48.9921 76.2062 49.0014C76.1827 49.0106 76.1612 49.0245 76.1431 49.0422C76.125 49.0599 76.1106 49.081 76.1008 49.1044C76.091 49.1277 76.0859 49.1528 76.0859 49.1781C76.0859 49.2035 76.091 49.2286 76.1008 49.2519C76.1106 49.2753 76.125 49.2964 76.1431 49.3141C76.1612 49.3318 76.1827 49.3457 76.2062 49.3549C76.2297 49.3642 76.2549 49.3686 76.2802 49.368H80.1212C80.1464 49.3686 80.1716 49.3642 80.1951 49.3549C80.2186 49.3457 80.2401 49.3318 80.2582 49.3141C80.2763 49.2964 80.2907 49.2753 80.3005 49.2519C80.3103 49.2286 80.3154 49.2035 80.3154 49.1781C80.3154 49.1528 80.3103 49.1277 80.3005 49.1044C80.2907 49.081 80.2763 49.0599 80.2582 49.0422C80.2401 49.0245 80.2186 49.0106 80.1951 49.0014C80.1716 48.9921 80.1464 48.9877 80.1212 48.9883H76.2802Z" fill="#2F2E41"/>
<path d="M76.2792 50.1069C76.229 50.1069 76.1808 50.1269 76.1453 50.1625C76.1098 50.1982 76.0898 50.2464 76.0898 50.2968C76.0898 50.3472 76.1098 50.3955 76.1453 50.4311C76.1808 50.4667 76.229 50.4867 76.2792 50.4867H80.1202C80.1455 50.4873 80.1706 50.4829 80.1942 50.4737C80.2177 50.4644 80.2391 50.4505 80.2572 50.4328C80.2753 50.4152 80.2897 50.394 80.2996 50.3707C80.3094 50.3473 80.3144 50.3222 80.3144 50.2969C80.3144 50.2715 80.3094 50.2464 80.2996 50.2231C80.2897 50.1997 80.2753 50.1786 80.2572 50.1609C80.2391 50.1432 80.2177 50.1293 80.1942 50.1201C80.1706 50.1108 80.1455 50.1064 80.1202 50.1071L76.2792 50.1069Z" fill="#2F2E41"/>
<path d="M22.7249 75.4997L0 75.4451V75.3198L22.7249 75.3744V75.4997Z" fill="#D6D6E3"/>
<path d="M18.4056 52.2922L17.2671 50.042L15.957 50.7086L17.0956 52.9587C17.034 53.1544 17.0118 53.3603 17.0304 53.5646C17.049 53.7688 17.1079 53.9674 17.2037 54.1486C17.5586 54.85 18.3154 55.1796 18.8945 54.8852C19.4735 54.5907 19.6548 53.783 19.2999 53.0816C19.2106 52.8969 19.0856 52.7319 18.932 52.5962C18.7785 52.4605 18.5995 52.3568 18.4056 52.2912V52.2922Z" fill="#ED9DA0"/>
<path d="M10.6797 42.1197L16.4319 52.8997L18.6811 51.6935L13.6425 40.6475" fill="#4DA16E"/>
<path d="M13.8233 44.646L15.391 51.947L8.55859 52.1864C8.55859 52.1864 9.4538 47.1156 9.13604 46.2393L13.8233 44.646Z" fill="#ED9DA0"/>
<path d="M16.7256 71.8164H15.1289V73.9266H16.7256V71.8164Z" fill="#ED9DA0"/>
<path d="M14.805 75.176C14.7447 75.1336 14.694 75.0789 14.6562 75.0155C14.6185 74.9521 14.5945 74.8814 14.5859 74.808C14.5882 74.7157 14.6094 74.6249 14.6483 74.5412C14.6872 74.4576 14.743 74.3829 14.812 74.3218C14.8159 74.2728 14.8656 73.6663 14.9763 73.5578C14.9356 73.4299 14.9452 73.2913 15.003 73.1703C15.0267 73.1365 15.0579 73.1087 15.094 73.0889C15.1302 73.0691 15.1704 73.0579 15.2116 73.0562H15.2157L15.2178 73.0598C15.2206 73.0646 15.4899 73.5339 15.8953 73.5751C16.1277 73.599 16.3604 73.4789 16.5868 73.2188C16.5948 73.1995 16.6589 72.8827 16.7002 72.6729L16.7019 72.6646L18.9102 73.8285L20.201 74.1867C20.2747 74.2071 20.3405 74.2496 20.3895 74.3085C20.4384 74.3675 20.4683 74.44 20.4751 74.5164C20.4819 74.5928 20.4653 74.6694 20.4274 74.7361C20.3896 74.8027 20.3324 74.8563 20.2635 74.8894L19.6378 75.191C19.3746 75.3174 19.0866 75.3833 18.7948 75.3837H15.4008C15.1845 75.3849 14.9743 75.312 14.805 75.1769V75.176Z" fill="#090814"/>
<path d="M4.00984 72.8799L5.54297 73.3271L6.13079 71.301L4.59766 70.8538L4.00984 72.8799Z" fill="#ED9DA0"/>
<path d="M3.34954 73.989C3.30336 73.9313 3.26988 73.8646 3.25128 73.7931C3.23268 73.7215 3.22938 73.6469 3.24162 73.574C3.26945 73.486 3.31513 73.4047 3.37579 73.3353C3.43645 73.2658 3.51078 73.2097 3.5941 73.1705C3.61147 73.1245 3.82818 72.556 3.9647 72.4826C3.96123 72.3484 4.00905 72.218 4.09835 72.118C4.13054 72.0922 4.16822 72.0742 4.20846 72.0654C4.2487 72.0565 4.29043 72.057 4.33043 72.0669L4.33443 72.0677L4.33543 72.0718C4.33668 72.0771 4.46471 72.6031 4.8423 72.7563C5.05889 72.8439 5.31557 72.7938 5.60548 72.6077C5.61859 72.5918 5.76786 72.3053 5.86641 72.1154L5.87028 72.1074L7.66669 73.844L8.80634 74.5496C8.87142 74.5898 8.9227 74.649 8.95333 74.7192C8.98397 74.7895 8.99251 74.8674 8.97781 74.9427C8.96311 75.0179 8.92587 75.0868 8.87106 75.1403C8.81625 75.1937 8.74648 75.2292 8.67107 75.2418L7.9862 75.3562C7.6983 75.4038 7.40341 75.3864 7.1231 75.305L3.8644 74.3547C3.6563 74.2952 3.47475 74.1662 3.34991 73.989H3.34954Z" fill="#090814"/>
<path d="M7.81895 48.4736L14.6513 48.6332C14.6513 48.6332 18.8034 60.6341 18.6445 72.0262H12.9451L12.6066 58.8015L11.6166 72.5398L4.10547 72.1061L7.81895 48.4736Z" fill="#090814"/>
<path d="M14.3557 35.0702C14.3558 34.62 14.2394 34.1776 14.018 33.786C13.7966 33.3944 13.4777 33.067 13.0925 32.836C12.7072 32.6049 12.2688 32.4779 11.82 32.4675C11.3712 32.4571 10.9273 32.5635 10.5318 32.7765C10.1363 32.9895 9.80264 33.3016 9.5634 33.6825C9.32415 34.0634 9.18751 34.5 9.16682 34.9497C9.14613 35.3994 9.24209 35.8467 9.44534 36.2481C9.64859 36.6495 9.95217 36.9911 10.3264 37.2397C10.1116 37.7763 9.82595 38.2815 9.47708 38.7418L12.0357 40.8793L12.5372 37.554C13.0645 37.3879 13.5251 37.0574 13.8522 36.6106C14.1793 36.1639 14.3557 35.6241 14.3557 35.0699V35.0702Z" fill="#ED9DA0"/>
<path d="M12.529 38.8025L9.58931 38.0854L7.70509 40.5047C7.25635 41.4227 7.18552 42.4808 7.50786 43.4507L9.07032 48.1515C9.07032 48.1515 13.8374 48.0718 14.8702 45.2834L15.1664 44.6648C15.365 44.2498 15.4477 43.7886 15.4057 43.3303C15.3637 42.8719 15.1985 42.4336 14.9277 42.0619L12.529 38.8025Z" fill="#4DA16E"/>
<path d="M9.39869 54.342L9.45327 51.8195L7.98449 51.7876L7.92991 54.3101C7.78343 54.4535 7.66691 54.6247 7.58713 54.8138C7.50735 55.0029 7.46592 55.206 7.46525 55.4112C7.44827 56.1975 7.96051 56.8463 8.60953 56.8605C9.25854 56.8746 9.79851 56.2483 9.81525 55.462C9.82341 55.2569 9.79077 55.0523 9.71926 54.86C9.64774 54.6677 9.53876 54.4916 9.39869 54.342Z" fill="#ED9DA0"/>
<path d="M7.37109 41.7173V53.9436H9.92182L10.6758 41.8205" fill="#4DA16E"/>
<path d="M10.3908 35.4551C10.3908 35.4551 12.4353 34.7745 11.9318 34.0028C11.9318 34.0028 14.1018 34.3818 14.1577 34.0028C14.2137 33.6238 14.1577 31.1952 11.2178 31.5883C8.27787 31.9815 8.6697 34.452 8.6697 34.452C8.6697 34.452 8.88454 36.8403 10.4664 37.3316C10.466 37.3318 9.24277 34.9638 10.3908 35.4551Z" fill="#090814"/>
<path d="M9.74326 32.9836C9.74326 32.9836 9.13946 32.5464 8.43524 32.681C8.18855 32.7281 7.92787 32.9091 7.69279 33.1244C7.22355 33.5627 6.863 34.1049 6.63995 34.7078C6.02429 36.326 4.73213 40.3737 6.99269 40.8699C9.82683 41.4923 10.0029 35.4807 10.0029 35.4807L9.74326 32.9836Z" fill="#090814"/>
<path d="M22.4286 51.6167C22.4483 51.6341 22.4643 51.6552 22.4758 51.6788C22.4873 51.7024 22.494 51.728 22.4956 51.7542C22.4972 51.7804 22.4936 51.8067 22.4851 51.8315C22.4765 51.8563 22.4632 51.8792 22.4458 51.8988L21.9936 52.4125L22.0179 52.4369L21.7101 52.7851L21.6871 52.7603L20.0677 54.6003C20.0122 54.6632 19.9359 54.7038 19.8528 54.7144C19.7697 54.725 19.6856 54.7049 19.6161 54.658L18.3187 53.7804C18.2872 53.759 18.2607 53.7309 18.2412 53.6982C18.2216 53.6654 18.2094 53.6288 18.2054 53.5909C18.2015 53.553 18.2058 53.5146 18.2181 53.4785C18.2305 53.4425 18.2505 53.4095 18.2769 53.382L20.6969 50.8577C20.7477 50.8048 20.8149 50.7708 20.8876 50.7612C20.9603 50.7517 21.034 50.7671 21.0967 50.8051L22.3982 51.5952C22.409 51.6016 22.4192 51.609 22.4286 51.6173L22.4286 51.6167Z" fill="#3F3D56"/>
<path d="M21.2731 51.1192L21.957 51.5343C21.9693 51.5417 21.9838 51.5449 21.9981 51.5433C22.0124 51.5418 22.0257 51.5355 22.0361 51.5255C22.0479 51.5142 22.0631 51.5071 22.0794 51.5053C22.0956 51.5035 22.112 51.5072 22.1259 51.5157L22.27 51.6032C22.2897 51.6151 22.3065 51.6312 22.3192 51.6504C22.332 51.6695 22.3404 51.6913 22.3439 51.714C22.3473 51.7368 22.3458 51.7601 22.3393 51.7822C22.3328 51.8043 22.3216 51.8247 22.3064 51.8419L19.9603 54.511C19.9311 54.5442 19.8908 54.5655 19.8471 54.5707C19.8033 54.576 19.7591 54.5649 19.723 54.5396L18.4425 53.6434C18.4262 53.6319 18.4127 53.6171 18.4026 53.5999C18.3926 53.5827 18.3864 53.5635 18.3844 53.5437C18.3824 53.5239 18.3847 53.5039 18.3911 53.4851C18.3976 53.4662 18.4079 53.449 18.4216 53.4345L20.8017 50.9187C20.8367 50.8818 20.8834 50.8579 20.9339 50.8511C20.9843 50.8444 21.0356 50.8551 21.0792 50.8815L21.2307 50.9734C21.2181 50.9986 21.2155 51.0276 21.2234 51.0546C21.2313 51.0816 21.249 51.1047 21.2731 51.1192Z" fill="#4DA16E"/>
<path d="M31.3037 45.0342H21.8654C21.754 45.0343 21.6473 45.0788 21.5685 45.1577C21.4898 45.2367 21.4455 45.3437 21.4453 45.4554V49.2459C21.4454 49.3575 21.4897 49.4646 21.5685 49.5436C21.6472 49.6225 21.754 49.6669 21.8654 49.6671H22.5325V51.0296H22.5575C22.8261 51.0293 23.0835 50.9222 23.2735 50.7318C23.4634 50.5414 23.5702 50.2832 23.5705 50.0139V49.6671H31.304C31.4153 49.6669 31.5221 49.6225 31.6008 49.5436C31.6796 49.4646 31.7239 49.3575 31.724 49.2459V45.4554C31.7239 45.3437 31.6795 45.2366 31.6007 45.1576C31.5219 45.0787 31.4151 45.0343 31.3037 45.0342ZM31.6743 49.2459C31.6742 49.3444 31.6351 49.4388 31.5656 49.5085C31.4961 49.5781 31.402 49.6173 31.3037 49.6175H23.5208V50.0139C23.5204 50.2657 23.4221 50.5075 23.2468 50.6879C23.0715 50.8683 22.8329 50.973 22.5818 50.9798V49.6175H21.8654C21.7671 49.6173 21.6729 49.5781 21.6035 49.5085C21.534 49.4388 21.4949 49.3444 21.4948 49.2459V45.4554C21.4949 45.3569 21.534 45.2624 21.6035 45.1928C21.6729 45.1231 21.7671 45.0839 21.8654 45.0838H31.3036C31.4018 45.0839 31.496 45.1231 31.5655 45.1928C31.635 45.2624 31.674 45.3569 31.6742 45.4554L31.6743 49.2459Z" fill="#3F3D56"/>
<path d="M29.4378 46.1188H23.7305C23.6569 46.1134 23.5841 46.1363 23.5268 46.1828C23.4696 46.2294 23.4321 46.296 23.4221 46.3692C23.4218 46.3727 23.4218 46.3761 23.4221 46.3795C23.4291 46.4549 23.4655 46.5246 23.5233 46.5734C23.581 46.6222 23.6556 46.6463 23.731 46.6405H29.4383C29.4762 46.647 29.515 46.6451 29.5521 46.635C29.5892 46.6248 29.6236 46.6067 29.653 46.5818C29.6823 46.557 29.7059 46.526 29.7221 46.4911C29.7383 46.4561 29.7467 46.4181 29.7467 46.3795C29.7467 46.341 29.7383 46.3029 29.7221 46.268C29.7059 46.233 29.6823 46.202 29.653 46.1772C29.6236 46.1523 29.5892 46.1342 29.5521 46.1241C29.515 46.1139 29.4762 46.112 29.4383 46.1185L29.4378 46.1188Z" fill="#4DA16E"/>
<path d="M29.4378 47.1588H23.7305C23.6569 47.1534 23.5841 47.1763 23.5268 47.2229C23.4696 47.2694 23.4321 47.3361 23.4221 47.4093C23.4218 47.4127 23.4218 47.4161 23.4221 47.4196C23.4291 47.495 23.4655 47.5646 23.5233 47.6134C23.581 47.6622 23.6556 47.6864 23.731 47.6806H29.4383C29.4762 47.687 29.515 47.6851 29.5521 47.675C29.5892 47.6649 29.6236 47.6467 29.653 47.6219C29.6823 47.597 29.7059 47.566 29.7221 47.5311C29.7383 47.4962 29.7467 47.4581 29.7467 47.4196C29.7467 47.381 29.7383 47.343 29.7221 47.308C29.7059 47.2731 29.6823 47.2421 29.653 47.2172C29.6236 47.1924 29.5892 47.1742 29.5521 47.1641C29.515 47.154 29.4762 47.1521 29.4383 47.1585L29.4378 47.1588Z" fill="#4DA16E"/>
<path d="M29.4378 48.1993H23.7305C23.6569 48.194 23.5841 48.2169 23.5268 48.2634C23.4696 48.3099 23.4321 48.3766 23.4221 48.4498C23.4218 48.4532 23.4218 48.4567 23.4221 48.4601C23.4291 48.5355 23.4655 48.6051 23.5233 48.6539C23.581 48.7028 23.6556 48.7269 23.731 48.7211H29.4383C29.4762 48.7276 29.515 48.7257 29.5521 48.7155C29.5892 48.7054 29.6236 48.6873 29.653 48.6624C29.6823 48.6376 29.7059 48.6066 29.7221 48.5716C29.7383 48.5367 29.7467 48.4986 29.7467 48.4601C29.7467 48.4216 29.7383 48.3835 29.7221 48.3485C29.7059 48.3136 29.6823 48.2826 29.653 48.2578C29.6236 48.2329 29.5892 48.2148 29.5521 48.2046C29.515 48.1945 29.4762 48.1926 29.4383 48.1991L29.4378 48.1993Z" fill="#4DA16E"/>
<path d="M93.1338 42.0995C95.598 42.0995 97.5957 40.0964 97.5957 37.6254C97.5957 35.1545 95.598 33.1514 93.1338 33.1514C90.6695 33.1514 88.6719 35.1545 88.6719 37.6254C88.6719 40.0964 90.6695 42.0995 93.1338 42.0995Z" fill="#E6E6E6"/>
<path d="M90.8735 38.5668C90.3968 38.5123 90.0276 38.0543 89.9867 37.5899C89.9385 37.037 90.2596 36.5119 90.7001 36.2016C91.1745 35.8936 91.725 35.7241 92.2901 35.7119C93.3735 35.6579 94.4382 36.0097 95.2771 36.6991C95.6933 37.0457 96.0819 37.4872 96.2292 38.0204C96.2998 38.2497 96.3046 38.4944 96.2432 38.7264C96.1817 38.9584 96.0564 39.1684 95.8816 39.3324C95.7897 39.4119 95.6824 39.4715 95.5664 39.5073C95.4504 39.5431 95.3282 39.5544 95.2077 39.5405C94.9204 39.4942 94.6501 39.3736 94.4234 39.1907C93.9756 38.8643 93.608 38.4095 93.0619 38.2388C92.6622 38.1135 92.1429 38.2238 91.8984 38.5865C91.8429 38.6695 91.807 38.764 91.7932 38.863C91.7882 38.8841 91.7913 38.9064 91.802 38.9253C91.8127 38.9441 91.8302 38.9582 91.8508 38.9647C91.8719 38.9704 91.8944 38.9676 91.9134 38.9567C91.9323 38.9459 91.9463 38.9281 91.9522 38.907C92.0164 38.4502 92.5768 38.2796 92.9697 38.3839C93.5429 38.5361 93.9276 39.0489 94.3979 39.3748C94.6414 39.5568 94.9282 39.6716 95.2297 39.7077C95.4911 39.7282 95.7506 39.6483 95.9554 39.4841C96.1469 39.3201 96.2911 39.1077 96.3732 38.869C96.4552 38.6302 96.472 38.3738 96.4219 38.1263C96.319 37.5559 95.9361 37.067 95.5161 36.6885C94.6644 35.9293 93.5588 35.5197 92.4194 35.5413C91.8279 35.5383 91.2459 35.6905 90.7313 35.983C90.4832 36.1263 90.2717 36.3255 90.1138 36.565C89.9558 36.8045 89.8556 37.0775 89.8212 37.3626C89.7991 37.62 89.8538 37.8783 89.9785 38.1045C90.1031 38.3307 90.2921 38.5146 90.5213 38.6328C90.6321 38.6854 90.7508 38.719 90.8727 38.7323C90.9786 38.7442 90.978 38.5787 90.8735 38.5668Z" fill="#3F3D56"/>
</g>
<defs>
<clipPath id="clip0_932_4196">
<rect width="100" height="71" fill="white" transform="translate(0 4.5)"/>
</clipPath>
</defs>
</svg>
