<svg width="48" height="48" viewBox="0 0 48 48" fill="none" xmlns="http://www.w3.org/2000/svg">
<path d="M36.6 42H11.4C9.96783 42 8.59432 41.4311 7.58162 40.4184C6.56893 39.4057 6 38.0322 6 36.6V7.8C6 7.32261 6.18964 6.86477 6.52721 6.52721C6.86477 6.18964 7.32261 6 7.8 6H33C33.4774 6 33.9352 6.18964 34.2728 6.52721C34.6104 6.86477 34.8 7.32261 34.8 7.8V29.4H42V36.6C42 38.0322 41.4311 39.4057 40.4184 40.4184C39.4057 41.4311 38.0322 42 36.6 42ZM34.8 33V36.6C34.8 37.0774 34.9896 37.5352 35.3272 37.8728C35.6648 38.2104 36.1226 38.4 36.6 38.4C37.0774 38.4 37.5352 38.2104 37.8728 37.8728C38.2104 37.5352 38.4 37.0774 38.4 36.6V33H34.8ZM31.2 38.4V9.6H9.6V36.6C9.6 37.0774 9.78964 37.5352 10.1272 37.8728C10.4648 38.2104 10.9226 38.4 11.4 38.4H31.2ZM13.2 15H27.6V18.6H13.2V15ZM13.2 22.2H27.6V25.8H13.2V22.2ZM13.2 29.4H22.2V33H13.2V29.4Z" fill="#19282B"/>
</svg>
