<svg width="1440" height="834" viewBox="0 0 1440 834" fill="none" xmlns="http://www.w3.org/2000/svg">
<path d="M-139.091 0H-180V43.8421M-139.091 0V43.8421M-139.091 0H-98.1818M-139.091 43.8421H-180M-139.091 43.8421V87.6842M-139.091 43.8421H-98.1818M-180 43.8421V87.6842M-139.091 87.6842H-180M-139.091 87.6842V131.526M-139.091 87.6842H-98.1818M-180 87.6842V131.526M-139.091 131.526H-180M-139.091 131.526V175.368M-139.091 131.526H-98.1818M-180 131.526V175.368M-139.091 175.368H-180M-139.091 175.368V219.211M-139.091 175.368H-98.1818M-180 175.368V219.211M-139.091 219.211H-180M-139.091 219.211V263.053M-139.091 219.211H-98.1818M-180 219.211V263.053M-139.091 263.053H-180M-139.091 263.053V306.895M-139.091 263.053H-98.1818M-180 263.053V306.895M-139.091 306.895H-180M-139.091 306.895V350.737M-139.091 306.895H-98.1818M-180 306.895V350.737M-139.091 350.737H-180M-139.091 350.737V394.579M-139.091 350.737H-98.1818M-180 350.737V394.579M-139.091 394.579H-180M-139.091 394.579V438.421M-139.091 394.579H-98.1818M-180 394.579V438.421M-139.091 438.421H-180M-139.091 438.421V482.263M-139.091 438.421H-98.1818M-180 438.421V482.263M-139.091 482.263H-180M-139.091 482.263V526.105M-139.091 482.263H-98.1818M-180 482.263V526.105M-139.091 526.105H-180M-139.091 526.105V569.947M-139.091 526.105H-98.1818M-180 526.105V569.947M-139.091 569.947H-180M-139.091 569.947V613.789M-139.091 569.947H-98.1818M-180 569.947V613.789M-139.091 613.789H-180M-139.091 613.789V657.632M-139.091 613.789H-98.1818M-180 613.789V657.632M-139.091 657.632H-180M-139.091 657.632V701.474M-139.091 657.632H-98.1818M-180 657.632V701.474M-139.091 701.474H-180M-139.091 701.474V745.316M-139.091 701.474H-98.1818M-180 701.474V745.316M-139.091 745.316H-180M-139.091 745.316V789.158M-139.091 745.316H-98.1818M-180 745.316V789.158M-139.091 789.158H-180M-139.091 789.158V833M-139.091 789.158H-98.1818M-180 789.158V833H-139.091M-139.091 833H-98.1818M-98.1818 0V43.8421M-98.1818 0H-57.2727M-98.1818 43.8421V87.6842M-98.1818 43.8421H-57.2727M-98.1818 87.6842V131.526M-98.1818 87.6842H-57.2727M-98.1818 131.526V175.368M-98.1818 131.526H-57.2727M-98.1818 175.368V219.211M-98.1818 175.368H-57.2727M-98.1818 219.211V263.053M-98.1818 219.211H-57.2727M-98.1818 263.053V306.895M-98.1818 263.053H-57.2727M-98.1818 306.895V350.737M-98.1818 306.895H-57.2727M-98.1818 350.737V394.579M-98.1818 350.737H-57.2727M-98.1818 394.579V438.421M-98.1818 394.579H-57.2727M-98.1818 438.421V482.263M-98.1818 438.421H-57.2727M-98.1818 482.263V526.105M-98.1818 482.263H-57.2727M-98.1818 526.105V569.947M-98.1818 526.105H-57.2727M-98.1818 569.947V613.789M-98.1818 569.947H-57.2727M-98.1818 613.789V657.632M-98.1818 613.789H-57.2727M-98.1818 657.632V701.474M-98.1818 657.632H-57.2727M-98.1818 701.474V745.316M-98.1818 701.474H-57.2727M-98.1818 745.316V789.158M-98.1818 745.316H-57.2727M-98.1818 789.158V833M-98.1818 789.158H-57.2727M-98.1818 833H-57.2727M-57.2727 0V43.8421M-57.2727 0H-16.3636M-57.2727 43.8421V87.6842M-57.2727 43.8421H-16.3636M-57.2727 87.6842V131.526M-57.2727 87.6842H-16.3636M-57.2727 131.526V175.368M-57.2727 131.526H-16.3636M-57.2727 175.368V219.211M-57.2727 175.368H-16.3636M-57.2727 219.211V263.053M-57.2727 219.211H-16.3636M-57.2727 263.053V306.895M-57.2727 263.053H-16.3636M-57.2727 306.895V350.737M-57.2727 306.895H-16.3636M-57.2727 350.737V394.579M-57.2727 350.737H-16.3636M-57.2727 394.579V438.421M-57.2727 394.579H-16.3636M-57.2727 438.421V482.263M-57.2727 438.421H-16.3636M-57.2727 482.263V526.105M-57.2727 482.263H-16.3636M-57.2727 526.105V569.947M-57.2727 526.105H-16.3636M-57.2727 569.947V613.789M-57.2727 569.947H-16.3636M-57.2727 613.789V657.632M-57.2727 613.789H-16.3636M-57.2727 657.632V701.474M-57.2727 657.632H-16.3636M-57.2727 701.474V745.316M-57.2727 701.474H-16.3636M-57.2727 745.316V789.158M-57.2727 745.316H-16.3636M-57.2727 789.158V833M-57.2727 789.158H-16.3636M-57.2727 833H-16.3636M-16.3636 0V43.8421M-16.3636 0H24.5455M-16.3636 43.8421V87.6842M-16.3636 43.8421H24.5455M-16.3636 87.6842V131.526M-16.3636 87.6842H24.5455M-16.3636 131.526V175.368M-16.3636 131.526H24.5455M-16.3636 175.368V219.211M-16.3636 175.368H24.5455M-16.3636 219.211V263.053M-16.3636 219.211H24.5455M-16.3636 263.053V306.895M-16.3636 263.053H24.5455M-16.3636 306.895V350.737M-16.3636 306.895H24.5455M-16.3636 350.737V394.579M-16.3636 350.737H24.5455M-16.3636 394.579V438.421M-16.3636 394.579H24.5455M-16.3636 438.421V482.263M-16.3636 438.421H24.5455M-16.3636 482.263V526.105M-16.3636 482.263H24.5455M-16.3636 526.105V569.947M-16.3636 526.105H24.5455M-16.3636 569.947V613.789M-16.3636 569.947H24.5455M-16.3636 613.789V657.632M-16.3636 613.789H24.5455M-16.3636 657.632V701.474M-16.3636 657.632H24.5455M-16.3636 701.474V745.316M-16.3636 701.474H24.5455M-16.3636 745.316V789.158M-16.3636 745.316H24.5455M-16.3636 789.158V833M-16.3636 789.158H24.5455M-16.3636 833H24.5455M24.5455 0V43.8421M24.5455 0H65.4545M24.5455 43.8421V87.6842M24.5455 43.8421H65.4545M24.5455 87.6842V131.526M24.5455 87.6842H65.4545M24.5455 131.526V175.368M24.5455 131.526H65.4545M24.5455 175.368V219.211M24.5455 175.368H65.4545M24.5455 219.211V263.053M24.5455 219.211H65.4545M24.5455 263.053V306.895M24.5455 263.053H65.4545M24.5455 306.895V350.737M24.5455 306.895H65.4545M24.5455 350.737V394.579M24.5455 350.737H65.4545M24.5455 394.579V438.421M24.5455 394.579H65.4545M24.5455 438.421V482.263M24.5455 438.421H65.4545M24.5455 482.263V526.105M24.5455 482.263H65.4545M24.5455 526.105V569.947M24.5455 526.105H65.4545M24.5455 569.947V613.789M24.5455 569.947H65.4545M24.5455 613.789V657.632M24.5455 613.789H65.4545M24.5455 657.632V701.474M24.5455 657.632H65.4545M24.5455 701.474V745.316M24.5455 701.474H65.4545M24.5455 745.316V789.158M24.5455 745.316H65.4545M24.5455 789.158V833M24.5455 789.158H65.4545M24.5455 833H65.4545M65.4545 0V43.8421M65.4545 0H106.364M65.4545 43.8421V87.6842M65.4545 43.8421H106.364M65.4545 87.6842V131.526M65.4545 87.6842H106.364M65.4545 131.526V175.368M65.4545 131.526H106.364M65.4545 175.368V219.211M65.4545 175.368H106.364M65.4545 219.211V263.053M65.4545 219.211H106.364M65.4545 263.053V306.895M65.4545 263.053H106.364M65.4545 306.895V350.737M65.4545 306.895H106.364M65.4545 350.737V394.579M65.4545 350.737H106.364M65.4545 394.579V438.421M65.4545 394.579H106.364M65.4545 438.421V482.263M65.4545 438.421H106.364M65.4545 482.263V526.105M65.4545 482.263H106.364M65.4545 526.105V569.947M65.4545 526.105H106.364M65.4545 569.947V613.789M65.4545 569.947H106.364M65.4545 613.789V657.632M65.4545 613.789H106.364M65.4545 657.632V701.474M65.4545 657.632H106.364M65.4545 701.474V745.316M65.4545 701.474H106.364M65.4545 745.316V789.158M65.4545 745.316H106.364M65.4545 789.158V833M65.4545 789.158H106.364M65.4545 833H106.364M106.364 0V43.8421M106.364 0H147.273M106.364 43.8421V87.6842M106.364 43.8421H147.273M106.364 87.6842V131.526M106.364 87.6842H147.273M106.364 131.526V175.368M106.364 131.526H147.273M106.364 175.368V219.211M106.364 175.368H147.273M106.364 219.211V263.053M106.364 219.211H147.273M106.364 263.053V306.895M106.364 263.053H147.273M106.364 306.895V350.737M106.364 306.895H147.273M106.364 350.737V394.579M106.364 350.737H147.273M106.364 394.579V438.421M106.364 394.579H147.273M106.364 438.421V482.263M106.364 438.421H147.273M106.364 482.263V526.105M106.364 482.263H147.273M106.364 526.105V569.947M106.364 526.105H147.273M106.364 569.947V613.789M106.364 569.947H147.273M106.364 613.789V657.632M106.364 613.789H147.273M106.364 657.632V701.474M106.364 657.632H147.273M106.364 701.474V745.316M106.364 701.474H147.273M106.364 745.316V789.158M106.364 745.316H147.273M106.364 789.158V833M106.364 789.158H147.273M106.364 833H147.273M147.273 0V43.8421M147.273 0H188.182M147.273 43.8421V87.6842M147.273 43.8421H188.182M147.273 87.6842V131.526M147.273 87.6842H188.182M147.273 131.526V175.368M147.273 131.526H188.182M147.273 175.368V219.211M147.273 175.368H188.182M147.273 219.211V263.053M147.273 219.211H188.182M147.273 263.053V306.895M147.273 263.053H188.182M147.273 306.895V350.737M147.273 306.895H188.182M147.273 350.737V394.579M147.273 350.737H188.182M147.273 394.579V438.421M147.273 394.579H188.182M147.273 438.421V482.263M147.273 438.421H188.182M147.273 482.263V526.105M147.273 482.263H188.182M147.273 526.105V569.947M147.273 526.105H188.182M147.273 569.947V613.789M147.273 569.947H188.182M147.273 613.789V657.632M147.273 613.789H188.182M147.273 657.632V701.474M147.273 657.632H188.182M147.273 701.474V745.316M147.273 701.474H188.182M147.273 745.316V789.158M147.273 745.316H188.182M147.273 789.158V833M147.273 789.158H188.182M147.273 833H188.182M188.182 0V43.8421M188.182 0H229.091M188.182 43.8421V87.6842M188.182 43.8421H229.091M188.182 87.6842V131.526M188.182 87.6842H229.091M188.182 131.526V175.368M188.182 131.526H229.091M188.182 175.368V219.211M188.182 175.368H229.091M188.182 219.211V263.053M188.182 219.211H229.091M188.182 263.053V306.895M188.182 263.053H229.091M188.182 306.895V350.737M188.182 306.895H229.091M188.182 350.737V394.579M188.182 350.737H229.091M188.182 394.579V438.421M188.182 394.579H229.091M188.182 438.421V482.263M188.182 438.421H229.091M188.182 482.263V526.105M188.182 482.263H229.091M188.182 526.105V569.947M188.182 526.105H229.091M188.182 569.947V613.789M188.182 569.947H229.091M188.182 613.789V657.632M188.182 613.789H229.091M188.182 657.632V701.474M188.182 657.632H229.091M188.182 701.474V745.316M188.182 701.474H229.091M188.182 745.316V789.158M188.182 745.316H229.091M188.182 789.158V833M188.182 789.158H229.091M188.182 833H229.091M229.091 0V43.8421M229.091 0H270M229.091 43.8421V87.6842M229.091 43.8421H270M229.091 87.6842V131.526M229.091 87.6842H270M229.091 131.526V175.368M229.091 131.526H270M229.091 175.368V219.211M229.091 175.368H270M229.091 219.211V263.053M229.091 219.211H270M229.091 263.053V306.895M229.091 263.053H270M229.091 306.895V350.737M229.091 306.895H270M229.091 350.737V394.579M229.091 350.737H270M229.091 394.579V438.421M229.091 394.579H270M229.091 438.421V482.263M229.091 438.421H270M229.091 482.263V526.105M229.091 482.263H270M229.091 526.105V569.947M229.091 526.105H270M229.091 569.947V613.789M229.091 569.947H270M229.091 613.789V657.632M229.091 613.789H270M229.091 657.632V701.474M229.091 657.632H270M229.091 701.474V745.316M229.091 701.474H270M229.091 745.316V789.158M229.091 745.316H270M229.091 789.158V833M229.091 789.158H270M229.091 833H270M270 0V43.8421M270 0H310.909M270 43.8421V87.6842M270 43.8421H310.909M270 87.6842V131.526M270 87.6842H310.909M270 131.526V175.368M270 131.526H310.909M270 175.368V219.211M270 175.368H310.909M270 219.211V263.053M270 219.211H310.909M270 263.053V306.895M270 263.053H310.909M270 306.895V350.737M270 306.895H310.909M270 350.737V394.579M270 350.737H310.909M270 394.579V438.421M270 394.579H310.909M270 438.421V482.263M270 438.421H310.909M270 482.263V526.105M270 482.263H310.909M270 526.105V569.947M270 526.105H310.909M270 569.947V613.789M270 569.947H310.909M270 613.789V657.632M270 613.789H310.909M270 657.632V701.474M270 657.632H310.909M270 701.474V745.316M270 701.474H310.909M270 745.316V789.158M270 745.316H310.909M270 789.158V833M270 789.158H310.909M270 833H310.909M310.909 0V43.8421M310.909 0H351.818M310.909 43.8421V87.6842M310.909 43.8421H351.818M310.909 87.6842V131.526M310.909 87.6842H351.818M310.909 131.526V175.368M310.909 131.526H351.818M310.909 175.368V219.211M310.909 175.368H351.818M310.909 219.211V263.053M310.909 219.211H351.818M310.909 263.053V306.895M310.909 263.053H351.818M310.909 306.895V350.737M310.909 306.895H351.818M310.909 350.737V394.579M310.909 350.737H351.818M310.909 394.579V438.421M310.909 394.579H351.818M310.909 438.421V482.263M310.909 438.421H351.818M310.909 482.263V526.105M310.909 482.263H351.818M310.909 526.105V569.947M310.909 526.105H351.818M310.909 569.947V613.789M310.909 569.947H351.818M310.909 613.789V657.632M310.909 613.789H351.818M310.909 657.632V701.474M310.909 657.632H351.818M310.909 701.474V745.316M310.909 701.474H351.818M310.909 745.316V789.158M310.909 745.316H351.818M310.909 789.158V833M310.909 789.158H351.818M310.909 833H351.818M351.818 0V43.8421M351.818 0H392.727M351.818 43.8421V87.6842M351.818 43.8421H392.727M351.818 87.6842V131.526M351.818 87.6842H392.727M351.818 131.526V175.368M351.818 131.526H392.727M351.818 175.368V219.211M351.818 175.368H392.727M351.818 219.211V263.053M351.818 219.211H392.727M351.818 263.053V306.895M351.818 263.053H392.727M351.818 306.895V350.737M351.818 306.895H392.727M351.818 350.737V394.579M351.818 350.737H392.727M351.818 394.579V438.421M351.818 394.579H392.727M351.818 438.421V482.263M351.818 438.421H392.727M351.818 482.263V526.105M351.818 482.263H392.727M351.818 526.105V569.947M351.818 526.105H392.727M351.818 569.947V613.789M351.818 569.947H392.727M351.818 613.789V657.632M351.818 613.789H392.727M351.818 657.632V701.474M351.818 657.632H392.727M351.818 701.474V745.316M351.818 701.474H392.727M351.818 745.316V789.158M351.818 745.316H392.727M351.818 789.158V833M351.818 789.158H392.727M351.818 833H392.727M392.727 0V43.8421M392.727 0H433.636M392.727 43.8421V87.6842M392.727 43.8421H433.636M392.727 87.6842V131.526M392.727 87.6842H433.636M392.727 131.526V175.368M392.727 131.526H433.636M392.727 175.368V219.211M392.727 175.368H433.636M392.727 219.211V263.053M392.727 219.211H433.636M392.727 263.053V306.895M392.727 263.053H433.636M392.727 306.895V350.737M392.727 306.895H433.636M392.727 350.737V394.579M392.727 350.737H433.636M392.727 394.579V438.421M392.727 394.579H433.636M392.727 438.421V482.263M392.727 438.421H433.636M392.727 482.263V526.105M392.727 482.263H433.636M392.727 526.105V569.947M392.727 526.105H433.636M392.727 569.947V613.789M392.727 569.947H433.636M392.727 613.789V657.632M392.727 613.789H433.636M392.727 657.632V701.474M392.727 657.632H433.636M392.727 701.474V745.316M392.727 701.474H433.636M392.727 745.316V789.158M392.727 745.316H433.636M392.727 789.158V833M392.727 789.158H433.636M392.727 833H433.636M433.636 0V43.8421M433.636 0H474.545M433.636 43.8421V87.6842M433.636 43.8421H474.545M433.636 87.6842V131.526M433.636 87.6842H474.545M433.636 131.526V175.368M433.636 131.526H474.545M433.636 175.368V219.211M433.636 175.368H474.545M433.636 219.211V263.053M433.636 219.211H474.545M433.636 263.053V306.895M433.636 263.053H474.545M433.636 306.895V350.737M433.636 306.895H474.545M433.636 350.737V394.579M433.636 350.737H474.545M433.636 394.579V438.421M433.636 394.579H474.545M433.636 438.421V482.263M433.636 438.421H474.545M433.636 482.263V526.105M433.636 482.263H474.545M433.636 526.105V569.947M433.636 526.105H474.545M433.636 569.947V613.789M433.636 569.947H474.545M433.636 613.789V657.632M433.636 613.789H474.545M433.636 657.632V701.474M433.636 657.632H474.545M433.636 701.474V745.316M433.636 701.474H474.545M433.636 745.316V789.158M433.636 745.316H474.545M433.636 789.158V833M433.636 789.158H474.545M433.636 833H474.545M474.545 0V43.8421M474.545 0H515.455M474.545 43.8421V87.6842M474.545 43.8421H515.455M474.545 87.6842V131.526M474.545 87.6842H515.455M474.545 131.526V175.368M474.545 131.526H515.455M474.545 175.368V219.211M474.545 175.368H515.455M474.545 219.211V263.053M474.545 219.211H515.455M474.545 263.053V306.895M474.545 263.053H515.455M474.545 306.895V350.737M474.545 306.895H515.455M474.545 350.737V394.579M474.545 350.737H515.455M474.545 394.579V438.421M474.545 394.579H515.455M474.545 438.421V482.263M474.545 438.421H515.455M474.545 482.263V526.105M474.545 482.263H515.455M474.545 526.105V569.947M474.545 526.105H515.455M474.545 569.947V613.789M474.545 569.947H515.455M474.545 613.789V657.632M474.545 613.789H515.455M474.545 657.632V701.474M474.545 657.632H515.455M474.545 701.474V745.316M474.545 701.474H515.455M474.545 745.316V789.158M474.545 745.316H515.455M474.545 789.158V833M474.545 789.158H515.455M474.545 833H515.455M515.455 0V43.8421M515.455 0H556.364M515.455 43.8421V87.6842M515.455 43.8421H556.364M515.455 87.6842V131.526M515.455 87.6842H556.364M515.455 131.526V175.368M515.455 131.526H556.364M515.455 175.368V219.211M515.455 175.368H556.364M515.455 219.211V263.053M515.455 219.211H556.364M515.455 263.053V306.895M515.455 263.053H556.364M515.455 306.895V350.737M515.455 306.895H556.364M515.455 350.737V394.579M515.455 350.737H556.364M515.455 394.579V438.421M515.455 394.579H556.364M515.455 438.421V482.263M515.455 438.421H556.364M515.455 482.263V526.105M515.455 482.263H556.364M515.455 526.105V569.947M515.455 526.105H556.364M515.455 569.947V613.789M515.455 569.947H556.364M515.455 613.789V657.632M515.455 613.789H556.364M515.455 657.632V701.474M515.455 657.632H556.364M515.455 701.474V745.316M515.455 701.474H556.364M515.455 745.316V789.158M515.455 745.316H556.364M515.455 789.158V833M515.455 789.158H556.364M515.455 833H556.364M556.364 0V43.8421M556.364 0H597.273M556.364 43.8421V87.6842M556.364 43.8421H597.273M556.364 87.6842V131.526M556.364 87.6842H597.273M556.364 131.526V175.368M556.364 131.526H597.273M556.364 175.368V219.211M556.364 175.368H597.273M556.364 219.211V263.053M556.364 219.211H597.273M556.364 263.053V306.895M556.364 263.053H597.273M556.364 306.895V350.737M556.364 306.895H597.273M556.364 350.737V394.579M556.364 350.737H597.273M556.364 394.579V438.421M556.364 394.579H597.273M556.364 438.421V482.263M556.364 438.421H597.273M556.364 482.263V526.105M556.364 482.263H597.273M556.364 526.105V569.947M556.364 526.105H597.273M556.364 569.947V613.789M556.364 569.947H597.273M556.364 613.789V657.632M556.364 613.789H597.273M556.364 657.632V701.474M556.364 657.632H597.273M556.364 701.474V745.316M556.364 701.474H597.273M556.364 745.316V789.158M556.364 745.316H597.273M556.364 789.158V833M556.364 789.158H597.273M556.364 833H597.273M597.273 0V43.8421M597.273 0H638.182M597.273 43.8421V87.6842M597.273 43.8421H638.182M597.273 87.6842V131.526M597.273 87.6842H638.182M597.273 131.526V175.368M597.273 131.526H638.182M597.273 175.368V219.211M597.273 175.368H638.182M597.273 219.211V263.053M597.273 219.211H638.182M597.273 263.053V306.895M597.273 263.053H638.182M597.273 306.895V350.737M597.273 306.895H638.182M597.273 350.737V394.579M597.273 350.737H638.182M597.273 394.579V438.421M597.273 394.579H638.182M597.273 438.421V482.263M597.273 438.421H638.182M597.273 482.263V526.105M597.273 482.263H638.182M597.273 526.105V569.947M597.273 526.105H638.182M597.273 569.947V613.789M597.273 569.947H638.182M597.273 613.789V657.632M597.273 613.789H638.182M597.273 657.632V701.474M597.273 657.632H638.182M597.273 701.474V745.316M597.273 701.474H638.182M597.273 745.316V789.158M597.273 745.316H638.182M597.273 789.158V833M597.273 789.158H638.182M597.273 833H638.182M638.182 0V43.8421M638.182 0H679.091M638.182 43.8421V87.6842M638.182 43.8421H679.091M638.182 87.6842V131.526M638.182 87.6842H679.091M638.182 131.526V175.368M638.182 131.526H679.091M638.182 175.368V219.211M638.182 175.368H679.091M638.182 219.211V263.053M638.182 219.211H679.091M638.182 263.053V306.895M638.182 263.053H679.091M638.182 306.895V350.737M638.182 306.895H679.091M638.182 350.737V394.579M638.182 350.737H679.091M638.182 394.579V438.421M638.182 394.579H679.091M638.182 438.421V482.263M638.182 438.421H679.091M638.182 482.263V526.105M638.182 482.263H679.091M638.182 526.105V569.947M638.182 526.105H679.091M638.182 569.947V613.789M638.182 569.947H679.091M638.182 613.789V657.632M638.182 613.789H679.091M638.182 657.632V701.474M638.182 657.632H679.091M638.182 701.474V745.316M638.182 701.474H679.091M638.182 745.316V789.158M638.182 745.316H679.091M638.182 789.158V833M638.182 789.158H679.091M638.182 833H679.091M679.091 0V43.8421M679.091 0H720M679.091 43.8421V87.6842M679.091 43.8421H720M679.091 87.6842V131.526M679.091 87.6842H720M679.091 131.526V175.368M679.091 131.526H720M679.091 175.368V219.211M679.091 175.368H720M679.091 219.211V263.053M679.091 219.211H720M679.091 263.053V306.895M679.091 263.053H720M679.091 306.895V350.737M679.091 306.895H720M679.091 350.737V394.579M679.091 350.737H720M679.091 394.579V438.421M679.091 394.579H720M679.091 438.421V482.263M679.091 438.421H720M679.091 482.263V526.105M679.091 482.263H720M679.091 526.105V569.947M679.091 526.105H720M679.091 569.947V613.789M679.091 569.947H720M679.091 613.789V657.632M679.091 613.789H720M679.091 657.632V701.474M679.091 657.632H720M679.091 701.474V745.316M679.091 701.474H720M679.091 745.316V789.158M679.091 745.316H720M679.091 789.158V833M679.091 789.158H720M679.091 833H720M720 0V43.8421M720 0H760.909M720 43.8421V87.6842M720 43.8421H760.909M720 87.6842V131.526M720 87.6842H760.909M720 131.526V175.368M720 131.526H760.909M720 175.368V219.211M720 175.368H760.909M720 219.211V263.053M720 219.211H760.909M720 263.053V306.895M720 263.053H760.909M720 306.895V350.737M720 306.895H760.909M720 350.737V394.579M720 350.737H760.909M720 394.579V438.421M720 394.579H760.909M720 438.421V482.263M720 438.421H760.909M720 482.263V526.105M720 482.263H760.909M720 526.105V569.947M720 526.105H760.909M720 569.947V613.789M720 569.947H760.909M720 613.789V657.632M720 613.789H760.909M720 657.632V701.474M720 657.632H760.909M720 701.474V745.316M720 701.474H760.909M720 745.316V789.158M720 745.316H760.909M720 789.158V833M720 789.158H760.909M720 833H760.909M760.909 0V43.8421M760.909 0H801.818M760.909 43.8421V87.6842M760.909 43.8421H801.818M760.909 87.6842V131.526M760.909 87.6842H801.818M760.909 131.526V175.368M760.909 131.526H801.818M760.909 175.368V219.211M760.909 175.368H801.818M760.909 219.211V263.053M760.909 219.211H801.818M760.909 263.053V306.895M760.909 263.053H801.818M760.909 306.895V350.737M760.909 306.895H801.818M760.909 350.737V394.579M760.909 350.737H801.818M760.909 394.579V438.421M760.909 394.579H801.818M760.909 438.421V482.263M760.909 438.421H801.818M760.909 482.263V526.105M760.909 482.263H801.818M760.909 526.105V569.947M760.909 526.105H801.818M760.909 569.947V613.789M760.909 569.947H801.818M760.909 613.789V657.632M760.909 613.789H801.818M760.909 657.632V701.474M760.909 657.632H801.818M760.909 701.474V745.316M760.909 701.474H801.818M760.909 745.316V789.158M760.909 745.316H801.818M760.909 789.158V833M760.909 789.158H801.818M760.909 833H801.818M801.818 0V43.8421M801.818 0H842.727M801.818 43.8421V87.6842M801.818 43.8421H842.727M801.818 87.6842V131.526M801.818 87.6842H842.727M801.818 131.526V175.368M801.818 131.526H842.727M801.818 175.368V219.211M801.818 175.368H842.727M801.818 219.211V263.053M801.818 219.211H842.727M801.818 263.053V306.895M801.818 263.053H842.727M801.818 306.895V350.737M801.818 306.895H842.727M801.818 350.737V394.579M801.818 350.737H842.727M801.818 394.579V438.421M801.818 394.579H842.727M801.818 438.421V482.263M801.818 438.421H842.727M801.818 482.263V526.105M801.818 482.263H842.727M801.818 526.105V569.947M801.818 526.105H842.727M801.818 569.947V613.789M801.818 569.947H842.727M801.818 613.789V657.632M801.818 613.789H842.727M801.818 657.632V701.474M801.818 657.632H842.727M801.818 701.474V745.316M801.818 701.474H842.727M801.818 745.316V789.158M801.818 745.316H842.727M801.818 789.158V833M801.818 789.158H842.727M801.818 833H842.727M842.727 0V43.8421M842.727 0H883.636M842.727 43.8421V87.6842M842.727 43.8421H883.636M842.727 87.6842V131.526M842.727 87.6842H883.636M842.727 131.526V175.368M842.727 131.526H883.636M842.727 175.368V219.211M842.727 175.368H883.636M842.727 219.211V263.053M842.727 219.211H883.636M842.727 263.053V306.895M842.727 263.053H883.636M842.727 306.895V350.737M842.727 306.895H883.636M842.727 350.737V394.579M842.727 350.737H883.636M842.727 394.579V438.421M842.727 394.579H883.636M842.727 438.421V482.263M842.727 438.421H883.636M842.727 482.263V526.105M842.727 482.263H883.636M842.727 526.105V569.947M842.727 526.105H883.636M842.727 569.947V613.789M842.727 569.947H883.636M842.727 613.789V657.632M842.727 613.789H883.636M842.727 657.632V701.474M842.727 657.632H883.636M842.727 701.474V745.316M842.727 701.474H883.636M842.727 745.316V789.158M842.727 745.316H883.636M842.727 789.158V833M842.727 789.158H883.636M842.727 833H883.636M883.636 0V43.8421M883.636 0H924.545M883.636 43.8421V87.6842M883.636 43.8421H924.545M883.636 87.6842V131.526M883.636 87.6842H924.545M883.636 131.526V175.368M883.636 131.526H924.545M883.636 175.368V219.211M883.636 175.368H924.545M883.636 219.211V263.053M883.636 219.211H924.545M883.636 263.053V306.895M883.636 263.053H924.545M883.636 306.895V350.737M883.636 306.895H924.545M883.636 350.737V394.579M883.636 350.737H924.545M883.636 394.579V438.421M883.636 394.579H924.545M883.636 438.421V482.263M883.636 438.421H924.545M883.636 482.263V526.105M883.636 482.263H924.545M883.636 526.105V569.947M883.636 526.105H924.545M883.636 569.947V613.789M883.636 569.947H924.545M883.636 613.789V657.632M883.636 613.789H924.545M883.636 657.632V701.474M883.636 657.632H924.545M883.636 701.474V745.316M883.636 701.474H924.545M883.636 745.316V789.158M883.636 745.316H924.545M883.636 789.158V833M883.636 789.158H924.545M883.636 833H924.545M924.545 0V43.8421M924.545 0H965.455M924.545 43.8421V87.6842M924.545 43.8421H965.455M924.545 87.6842V131.526M924.545 87.6842H965.455M924.545 131.526V175.368M924.545 131.526H965.455M924.545 175.368V219.211M924.545 175.368H965.455M924.545 219.211V263.053M924.545 219.211H965.455M924.545 263.053V306.895M924.545 263.053H965.455M924.545 306.895V350.737M924.545 306.895H965.455M924.545 350.737V394.579M924.545 350.737H965.455M924.545 394.579V438.421M924.545 394.579H965.455M924.545 438.421V482.263M924.545 438.421H965.455M924.545 482.263V526.105M924.545 482.263H965.455M924.545 526.105V569.947M924.545 526.105H965.455M924.545 569.947V613.789M924.545 569.947H965.455M924.545 613.789V657.632M924.545 613.789H965.455M924.545 657.632V701.474M924.545 657.632H965.455M924.545 701.474V745.316M924.545 701.474H965.455M924.545 745.316V789.158M924.545 745.316H965.455M924.545 789.158V833M924.545 789.158H965.455M924.545 833H965.455M965.455 0V43.8421M965.455 0H1006.36M965.455 43.8421V87.6842M965.455 43.8421H1006.36M965.455 87.6842V131.526M965.455 87.6842H1006.36M965.455 131.526V175.368M965.455 131.526H1006.36M965.455 175.368V219.211M965.455 175.368H1006.36M965.455 219.211V263.053M965.455 219.211H1006.36M965.455 263.053V306.895M965.455 263.053H1006.36M965.455 306.895V350.737M965.455 306.895H1006.36M965.455 350.737V394.579M965.455 350.737H1006.36M965.455 394.579V438.421M965.455 394.579H1006.36M965.455 438.421V482.263M965.455 438.421H1006.36M965.455 482.263V526.105M965.455 482.263H1006.36M965.455 526.105V569.947M965.455 526.105H1006.36M965.455 569.947V613.789M965.455 569.947H1006.36M965.455 613.789V657.632M965.455 613.789H1006.36M965.455 657.632V701.474M965.455 657.632H1006.36M965.455 701.474V745.316M965.455 701.474H1006.36M965.455 745.316V789.158M965.455 745.316H1006.36M965.455 789.158V833M965.455 789.158H1006.36M965.455 833H1006.36M1006.36 0V43.8421M1006.36 0H1047.27M1006.36 43.8421V87.6842M1006.36 43.8421H1047.27M1006.36 87.6842V131.526M1006.36 87.6842H1047.27M1006.36 131.526V175.368M1006.36 131.526H1047.27M1006.36 175.368V219.211M1006.36 175.368H1047.27M1006.36 219.211V263.053M1006.36 219.211H1047.27M1006.36 263.053V306.895M1006.36 263.053H1047.27M1006.36 306.895V350.737M1006.36 306.895H1047.27M1006.36 350.737V394.579M1006.36 350.737H1047.27M1006.36 394.579V438.421M1006.36 394.579H1047.27M1006.36 438.421V482.263M1006.36 438.421H1047.27M1006.36 482.263V526.105M1006.36 482.263H1047.27M1006.36 526.105V569.947M1006.36 526.105H1047.27M1006.36 569.947V613.789M1006.36 569.947H1047.27M1006.36 613.789V657.632M1006.36 613.789H1047.27M1006.36 657.632V701.474M1006.36 657.632H1047.27M1006.36 701.474V745.316M1006.36 701.474H1047.27M1006.36 745.316V789.158M1006.36 745.316H1047.27M1006.36 789.158V833M1006.36 789.158H1047.27M1006.36 833H1047.27M1047.27 0V43.8421M1047.27 0H1088.18M1047.27 43.8421V87.6842M1047.27 43.8421H1088.18M1047.27 87.6842V131.526M1047.27 87.6842H1088.18M1047.27 131.526V175.368M1047.27 131.526H1088.18M1047.27 175.368V219.211M1047.27 175.368H1088.18M1047.27 219.211V263.053M1047.27 219.211H1088.18M1047.27 263.053V306.895M1047.27 263.053H1088.18M1047.27 306.895V350.737M1047.27 306.895H1088.18M1047.27 350.737V394.579M1047.27 350.737H1088.18M1047.27 394.579V438.421M1047.27 394.579H1088.18M1047.27 438.421V482.263M1047.27 438.421H1088.18M1047.27 482.263V526.105M1047.27 482.263H1088.18M1047.27 526.105V569.947M1047.27 526.105H1088.18M1047.27 569.947V613.789M1047.27 569.947H1088.18M1047.27 613.789V657.632M1047.27 613.789H1088.18M1047.27 657.632V701.474M1047.27 657.632H1088.18M1047.27 701.474V745.316M1047.27 701.474H1088.18M1047.27 745.316V789.158M1047.27 745.316H1088.18M1047.27 789.158V833M1047.27 789.158H1088.18M1047.27 833H1088.18M1088.18 0V43.8421M1088.18 0H1129.09M1088.18 43.8421V87.6842M1088.18 43.8421H1129.09M1088.18 87.6842V131.526M1088.18 87.6842H1129.09M1088.18 131.526V175.368M1088.18 131.526H1129.09M1088.18 175.368V219.211M1088.18 175.368H1129.09M1088.18 219.211V263.053M1088.18 219.211H1129.09M1088.18 263.053V306.895M1088.18 263.053H1129.09M1088.18 306.895V350.737M1088.18 306.895H1129.09M1088.18 350.737V394.579M1088.18 350.737H1129.09M1088.18 394.579V438.421M1088.18 394.579H1129.09M1088.18 438.421V482.263M1088.18 438.421H1129.09M1088.18 482.263V526.105M1088.18 482.263H1129.09M1088.18 526.105V569.947M1088.18 526.105H1129.09M1088.18 569.947V613.789M1088.18 569.947H1129.09M1088.18 613.789V657.632M1088.18 613.789H1129.09M1088.18 657.632V701.474M1088.18 657.632H1129.09M1088.18 701.474V745.316M1088.18 701.474H1129.09M1088.18 745.316V789.158M1088.18 745.316H1129.09M1088.18 789.158V833M1088.18 789.158H1129.09M1088.18 833H1129.09M1129.09 0V43.8421M1129.09 0H1170M1129.09 43.8421V87.6842M1129.09 43.8421H1170M1129.09 87.6842V131.526M1129.09 87.6842H1170M1129.09 131.526V175.368M1129.09 131.526H1170M1129.09 175.368V219.211M1129.09 175.368H1170M1129.09 219.211V263.053M1129.09 219.211H1170M1129.09 263.053V306.895M1129.09 263.053H1170M1129.09 306.895V350.737M1129.09 306.895H1170M1129.09 350.737V394.579M1129.09 350.737H1170M1129.09 394.579V438.421M1129.09 394.579H1170M1129.09 438.421V482.263M1129.09 438.421H1170M1129.09 482.263V526.105M1129.09 482.263H1170M1129.09 526.105V569.947M1129.09 526.105H1170M1129.09 569.947V613.789M1129.09 569.947H1170M1129.09 613.789V657.632M1129.09 613.789H1170M1129.09 657.632V701.474M1129.09 657.632H1170M1129.09 701.474V745.316M1129.09 701.474H1170M1129.09 745.316V789.158M1129.09 745.316H1170M1129.09 789.158V833M1129.09 789.158H1170M1129.09 833H1170M1170 0V43.8421M1170 0H1210.91M1170 43.8421V87.6842M1170 43.8421H1210.91M1170 87.6842V131.526M1170 87.6842H1210.91M1170 131.526V175.368M1170 131.526H1210.91M1170 175.368V219.211M1170 175.368H1210.91M1170 219.211V263.053M1170 219.211H1210.91M1170 263.053V306.895M1170 263.053H1210.91M1170 306.895V350.737M1170 306.895H1210.91M1170 350.737V394.579M1170 350.737H1210.91M1170 394.579V438.421M1170 394.579H1210.91M1170 438.421V482.263M1170 438.421H1210.91M1170 482.263V526.105M1170 482.263H1210.91M1170 526.105V569.947M1170 526.105H1210.91M1170 569.947V613.789M1170 569.947H1210.91M1170 613.789V657.632M1170 613.789H1210.91M1170 657.632V701.474M1170 657.632H1210.91M1170 701.474V745.316M1170 701.474H1210.91M1170 745.316V789.158M1170 745.316H1210.91M1170 789.158V833M1170 789.158H1210.91M1170 833H1210.91M1210.91 0V43.8421M1210.91 0H1251.82M1210.91 43.8421V87.6842M1210.91 43.8421H1251.82M1210.91 87.6842V131.526M1210.91 87.6842H1251.82M1210.91 131.526V175.368M1210.91 131.526H1251.82M1210.91 175.368V219.211M1210.91 175.368H1251.82M1210.91 219.211V263.053M1210.91 219.211H1251.82M1210.91 263.053V306.895M1210.91 263.053H1251.82M1210.91 306.895V350.737M1210.91 306.895H1251.82M1210.91 350.737V394.579M1210.91 350.737H1251.82M1210.91 394.579V438.421M1210.91 394.579H1251.82M1210.91 438.421V482.263M1210.91 438.421H1251.82M1210.91 482.263V526.105M1210.91 482.263H1251.82M1210.91 526.105V569.947M1210.91 526.105H1251.82M1210.91 569.947V613.789M1210.91 569.947H1251.82M1210.91 613.789V657.632M1210.91 613.789H1251.82M1210.91 657.632V701.474M1210.91 657.632H1251.82M1210.91 701.474V745.316M1210.91 701.474H1251.82M1210.91 745.316V789.158M1210.91 745.316H1251.82M1210.91 789.158V833M1210.91 789.158H1251.82M1210.91 833H1251.82M1251.82 0V43.8421M1251.82 0H1292.73M1251.82 43.8421V87.6842M1251.82 43.8421H1292.73M1251.82 87.6842V131.526M1251.82 87.6842H1292.73M1251.82 131.526V175.368M1251.82 131.526H1292.73M1251.82 175.368V219.211M1251.82 175.368H1292.73M1251.82 219.211V263.053M1251.82 219.211H1292.73M1251.82 263.053V306.895M1251.82 263.053H1292.73M1251.82 306.895V350.737M1251.82 306.895H1292.73M1251.82 350.737V394.579M1251.82 350.737H1292.73M1251.82 394.579V438.421M1251.82 394.579H1292.73M1251.82 438.421V482.263M1251.82 438.421H1292.73M1251.82 482.263V526.105M1251.82 482.263H1292.73M1251.82 526.105V569.947M1251.82 526.105H1292.73M1251.82 569.947V613.789M1251.82 569.947H1292.73M1251.82 613.789V657.632M1251.82 613.789H1292.73M1251.82 657.632V701.474M1251.82 657.632H1292.73M1251.82 701.474V745.316M1251.82 701.474H1292.73M1251.82 745.316V789.158M1251.82 745.316H1292.73M1251.82 789.158V833M1251.82 789.158H1292.73M1251.82 833H1292.73M1292.73 0V43.8421M1292.73 0H1333.64M1292.73 43.8421V87.6842M1292.73 43.8421H1333.64M1292.73 87.6842V131.526M1292.73 87.6842H1333.64M1292.73 131.526V175.368M1292.73 131.526H1333.64M1292.73 175.368V219.211M1292.73 175.368H1333.64M1292.73 219.211V263.053M1292.73 219.211H1333.64M1292.73 263.053V306.895M1292.73 263.053H1333.64M1292.73 306.895V350.737M1292.73 306.895H1333.64M1292.73 350.737V394.579M1292.73 350.737H1333.64M1292.73 394.579V438.421M1292.73 394.579H1333.64M1292.73 438.421V482.263M1292.73 438.421H1333.64M1292.73 482.263V526.105M1292.73 482.263H1333.64M1292.73 526.105V569.947M1292.73 526.105H1333.64M1292.73 569.947V613.789M1292.73 569.947H1333.64M1292.73 613.789V657.632M1292.73 613.789H1333.64M1292.73 657.632V701.474M1292.73 657.632H1333.64M1292.73 701.474V745.316M1292.73 701.474H1333.64M1292.73 745.316V789.158M1292.73 745.316H1333.64M1292.73 789.158V833M1292.73 789.158H1333.64M1292.73 833H1333.64M1333.64 0V43.8421M1333.64 0H1374.55M1333.64 43.8421V87.6842M1333.64 43.8421H1374.55M1333.64 87.6842V131.526M1333.64 87.6842H1374.55M1333.64 131.526V175.368M1333.64 131.526H1374.55M1333.64 175.368V219.211M1333.64 175.368H1374.55M1333.64 219.211V263.053M1333.64 219.211H1374.55M1333.64 263.053V306.895M1333.64 263.053H1374.55M1333.64 306.895V350.737M1333.64 306.895H1374.55M1333.64 350.737V394.579M1333.64 350.737H1374.55M1333.64 394.579V438.421M1333.64 394.579H1374.55M1333.64 438.421V482.263M1333.64 438.421H1374.55M1333.64 482.263V526.105M1333.64 482.263H1374.55M1333.64 526.105V569.947M1333.64 526.105H1374.55M1333.64 569.947V613.789M1333.64 569.947H1374.55M1333.64 613.789V657.632M1333.64 613.789H1374.55M1333.64 657.632V701.474M1333.64 657.632H1374.55M1333.64 701.474V745.316M1333.64 701.474H1374.55M1333.64 745.316V789.158M1333.64 745.316H1374.55M1333.64 789.158V833M1333.64 789.158H1374.55M1333.64 833H1374.55M1374.55 0V43.8421M1374.55 0H1415.45M1374.55 43.8421V87.6842M1374.55 43.8421H1415.45M1374.55 87.6842V131.526M1374.55 87.6842H1415.45M1374.55 131.526V175.368M1374.55 131.526H1415.45M1374.55 175.368V219.211M1374.55 175.368H1415.45M1374.55 219.211V263.053M1374.55 219.211H1415.45M1374.55 263.053V306.895M1374.55 263.053H1415.45M1374.55 306.895V350.737M1374.55 306.895H1415.45M1374.55 350.737V394.579M1374.55 350.737H1415.45M1374.55 394.579V438.421M1374.55 394.579H1415.45M1374.55 438.421V482.263M1374.55 438.421H1415.45M1374.55 482.263V526.105M1374.55 482.263H1415.45M1374.55 526.105V569.947M1374.55 526.105H1415.45M1374.55 569.947V613.789M1374.55 569.947H1415.45M1374.55 613.789V657.632M1374.55 613.789H1415.45M1374.55 657.632V701.474M1374.55 657.632H1415.45M1374.55 701.474V745.316M1374.55 701.474H1415.45M1374.55 745.316V789.158M1374.55 745.316H1415.45M1374.55 789.158V833M1374.55 789.158H1415.45M1374.55 833H1415.45M1415.45 0V43.8421M1415.45 0H1456.36M1415.45 43.8421V87.6842M1415.45 43.8421H1456.36M1415.45 87.6842V131.526M1415.45 87.6842H1456.36M1415.45 131.526V175.368M1415.45 131.526H1456.36M1415.45 175.368V219.211M1415.45 175.368H1456.36M1415.45 219.211V263.053M1415.45 219.211H1456.36M1415.45 263.053V306.895M1415.45 263.053H1456.36M1415.45 306.895V350.737M1415.45 306.895H1456.36M1415.45 350.737V394.579M1415.45 350.737H1456.36M1415.45 394.579V438.421M1415.45 394.579H1456.36M1415.45 438.421V482.263M1415.45 438.421H1456.36M1415.45 482.263V526.105M1415.45 482.263H1456.36M1415.45 526.105V569.947M1415.45 526.105H1456.36M1415.45 569.947V613.789M1415.45 569.947H1456.36M1415.45 613.789V657.632M1415.45 613.789H1456.36M1415.45 657.632V701.474M1415.45 657.632H1456.36M1415.45 701.474V745.316M1415.45 701.474H1456.36M1415.45 745.316V789.158M1415.45 745.316H1456.36M1415.45 789.158V833M1415.45 789.158H1456.36M1415.45 833H1456.36M1456.36 0V43.8421M1456.36 0H1497.27M1456.36 43.8421V87.6842M1456.36 43.8421H1497.27M1456.36 87.6842V131.526M1456.36 87.6842H1497.27M1456.36 131.526V175.368M1456.36 131.526H1497.27M1456.36 175.368V219.211M1456.36 175.368H1497.27M1456.36 219.211V263.053M1456.36 219.211H1497.27M1456.36 263.053V306.895M1456.36 263.053H1497.27M1456.36 306.895V350.737M1456.36 306.895H1497.27M1456.36 350.737V394.579M1456.36 350.737H1497.27M1456.36 394.579V438.421M1456.36 394.579H1497.27M1456.36 438.421V482.263M1456.36 438.421H1497.27M1456.36 482.263V526.105M1456.36 482.263H1497.27M1456.36 526.105V569.947M1456.36 526.105H1497.27M1456.36 569.947V613.789M1456.36 569.947H1497.27M1456.36 613.789V657.632M1456.36 613.789H1497.27M1456.36 657.632V701.474M1456.36 657.632H1497.27M1456.36 701.474V745.316M1456.36 701.474H1497.27M1456.36 745.316V789.158M1456.36 745.316H1497.27M1456.36 789.158V833M1456.36 789.158H1497.27M1456.36 833H1497.27M1497.27 0V43.8421M1497.27 0H1538.18M1497.27 43.8421V87.6842M1497.27 43.8421H1538.18M1497.27 87.6842V131.526M1497.27 87.6842H1538.18M1497.27 131.526V175.368M1497.27 131.526H1538.18M1497.27 175.368V219.211M1497.27 175.368H1538.18M1497.27 219.211V263.053M1497.27 219.211H1538.18M1497.27 263.053V306.895M1497.27 263.053H1538.18M1497.27 306.895V350.737M1497.27 306.895H1538.18M1497.27 350.737V394.579M1497.27 350.737H1538.18M1497.27 394.579V438.421M1497.27 394.579H1538.18M1497.27 438.421V482.263M1497.27 438.421H1538.18M1497.27 482.263V526.105M1497.27 482.263H1538.18M1497.27 526.105V569.947M1497.27 526.105H1538.18M1497.27 569.947V613.789M1497.27 569.947H1538.18M1497.27 613.789V657.632M1497.27 613.789H1538.18M1497.27 657.632V701.474M1497.27 657.632H1538.18M1497.27 701.474V745.316M1497.27 701.474H1538.18M1497.27 745.316V789.158M1497.27 745.316H1538.18M1497.27 789.158V833M1497.27 789.158H1538.18M1497.27 833H1538.18M1538.18 0V43.8421M1538.18 0H1579.09M1538.18 43.8421V87.6842M1538.18 43.8421H1579.09M1538.18 87.6842V131.526M1538.18 87.6842H1579.09M1538.18 131.526V175.368M1538.18 131.526H1579.09M1538.18 175.368V219.211M1538.18 175.368H1579.09M1538.18 219.211V263.053M1538.18 219.211H1579.09M1538.18 263.053V306.895M1538.18 263.053H1579.09M1538.18 306.895V350.737M1538.18 306.895H1579.09M1538.18 350.737V394.579M1538.18 350.737H1579.09M1538.18 394.579V438.421M1538.18 394.579H1579.09M1538.18 438.421V482.263M1538.18 438.421H1579.09M1538.18 482.263V526.105M1538.18 482.263H1579.09M1538.18 526.105V569.947M1538.18 526.105H1579.09M1538.18 569.947V613.789M1538.18 569.947H1579.09M1538.18 613.789V657.632M1538.18 613.789H1579.09M1538.18 657.632V701.474M1538.18 657.632H1579.09M1538.18 701.474V745.316M1538.18 701.474H1579.09M1538.18 745.316V789.158M1538.18 745.316H1579.09M1538.18 789.158V833M1538.18 789.158H1579.09M1538.18 833H1579.09M1579.09 0V43.8421M1579.09 0H1620V43.8421M1579.09 43.8421V87.6842M1579.09 43.8421H1620M1579.09 87.6842V131.526M1579.09 87.6842H1620M1579.09 131.526V175.368M1579.09 131.526H1620M1579.09 175.368V219.211M1579.09 175.368H1620M1579.09 219.211V263.053M1579.09 219.211H1620M1579.09 263.053V306.895M1579.09 263.053H1620M1579.09 306.895V350.737M1579.09 306.895H1620M1579.09 350.737V394.579M1579.09 350.737H1620M1579.09 394.579V438.421M1579.09 394.579H1620M1579.09 438.421V482.263M1579.09 438.421H1620M1579.09 482.263V526.105M1579.09 482.263H1620M1579.09 526.105V569.947M1579.09 526.105H1620M1579.09 569.947V613.789M1579.09 569.947H1620M1579.09 613.789V657.632M1579.09 613.789H1620M1579.09 657.632V701.474M1579.09 657.632H1620M1579.09 701.474V745.316M1579.09 701.474H1620M1579.09 745.316V789.158M1579.09 745.316H1620M1579.09 789.158V833M1579.09 789.158H1620M1579.09 833H1620V789.158M1620 43.8421V87.6842M1620 87.6842V131.526M1620 131.526V175.368M1620 175.368V219.211M1620 219.211V263.053M1620 263.053V306.895M1620 306.895V350.737M1620 350.737V394.579M1620 394.579V438.421M1620 438.421V482.263M1620 482.263V526.105M1620 526.105V569.947M1620 569.947V613.789M1620 613.789V657.632M1620 657.632V701.474M1620 701.474V745.316M1620 745.316V789.158" stroke="url(#paint0_radial_925_3439)" stroke-opacity="0.6" stroke-width="1.74474"/>
<defs>
<radialGradient id="paint0_radial_925_3439" cx="0" cy="0" r="1" gradientUnits="userSpaceOnUse" gradientTransform="translate(720 416.5) rotate(90) scale(416.5 726.766)">
<stop stop-color="white"/>
<stop offset="1" stop-color="#0E121B"/>
</radialGradient>
</defs>
</svg>
