<svg width="116" height="87" viewBox="0 0 116 87" fill="none" xmlns="http://www.w3.org/2000/svg">
<rect x="16" y="3.5" width="80" height="80" rx="18" fill="#E7F4EB"/>
<g clip-path="url(#clip0_932_4169)">
<path d="M115.827 86.3329H-3.82659C-3.87258 86.3329 -3.91669 86.3146 -3.94921 86.282C-3.98173 86.2493 -4 86.2051 -4 86.1589C-4 86.1127 -3.98173 86.0685 -3.94921 86.0358C-3.91669 86.0032 -3.87258 85.9849 -3.82659 85.9849H115.827C115.873 85.9849 115.917 86.0032 115.949 86.0358C115.982 86.0685 116 86.1127 116 86.1589C116 86.2051 115.982 86.2493 115.949 86.282C115.917 86.3146 115.873 86.3329 115.827 86.3329Z" fill="#CCCCCC"/>
<path d="M103.985 55.9795H33.5803C33.2813 55.9795 32.9947 56.0987 32.7833 56.3108C32.5719 56.523 32.4531 56.8107 32.4531 57.1108C32.4531 57.4108 32.5719 57.6985 32.7833 57.9107C32.9947 58.1229 33.2813 58.2421 33.5803 58.2421H35.5745V85.3057C35.5745 85.6058 35.6933 85.8935 35.9047 86.1057C36.116 86.3178 36.4027 86.437 36.7017 86.437C37.0006 86.437 37.2873 86.3178 37.4987 86.1057C37.7101 85.8935 37.8288 85.6058 37.8288 85.3057L37.846 58.2421H99.563V85.3057C99.563 85.6058 99.6817 85.8935 99.8931 86.1057C100.104 86.3178 100.391 86.437 100.69 86.437C100.989 86.437 101.276 86.3178 101.487 86.1057C101.699 85.8935 101.817 85.6058 101.817 85.3057V58.8386L102.145 58.2421H103.985C104.284 58.2421 104.571 58.1229 104.782 57.9107C104.993 57.6985 105.112 57.4108 105.112 57.1108C105.112 56.8107 104.993 56.523 104.782 56.3108C104.571 56.0987 104.284 55.9795 103.985 55.9795Z" fill="#CCCCCC"/>
<path d="M72.6104 56.5714H51.2841C50.8712 56.5709 50.4753 56.4061 50.1833 56.113C49.8913 55.8199 49.727 55.4226 49.7266 55.0082V43.2239C49.727 42.8094 49.8913 42.4121 50.1833 42.119C50.4753 41.826 50.8712 41.6611 51.2841 41.6606H72.6104C73.0234 41.6611 73.4193 41.826 73.7113 42.119C74.0033 42.4121 74.1675 42.8094 74.168 43.2239V55.0082C74.1675 55.4226 74.0033 55.8199 73.7113 56.113C73.4193 56.4061 73.0234 56.5709 72.6104 56.5714Z" fill="#3F3D56"/>
<path d="M72.6108 42.8638H51.2847C51.1896 42.864 51.0984 42.902 51.0311 42.9695C50.9638 43.037 50.926 43.1286 50.9258 43.224V55.0085C50.926 55.104 50.9639 55.1955 51.0311 55.263C51.0984 55.3305 51.1896 55.3685 51.2847 55.3687H72.6108C72.7059 55.3685 72.7971 55.3305 72.8644 55.263C72.9317 55.1955 72.9695 55.104 72.9697 55.0085V43.224C72.9695 43.1286 72.9317 43.037 72.8644 42.9695C72.7971 42.902 72.7059 42.864 72.6108 42.8638Z" fill="white"/>
<path d="M63.7672 51.2071C63.7672 51.2071 61.2143 50.6167 59.8101 51.6991C58.406 52.7816 61.5972 55.2417 61.5972 55.2417L63.7672 51.2071Z" fill="#2F2E41"/>
<path d="M62.0722 50.0917C63.4022 50.0917 64.4804 49.0096 64.4804 47.6748C64.4804 46.3399 63.4022 45.2578 62.0722 45.2578C60.7422 45.2578 59.6641 46.3399 59.6641 47.6748C59.6641 49.0096 60.7422 50.0917 62.0722 50.0917Z" fill="#A0616A"/>
<path d="M60.2108 44.2819C60.3714 44.0083 60.6042 43.7846 60.8835 43.6355C61.1627 43.4863 61.4777 43.4176 61.7934 43.4367C62.1237 43.4783 62.4461 43.5689 62.7499 43.7055L64.3241 44.3218C64.7315 44.4813 65.1777 44.6766 65.3544 45.078C65.5185 45.4506 65.3961 45.8808 65.2722 46.2687L64.6832 48.1124C64.6179 47.6951 64.506 47.2865 64.3494 46.8945C64.1903 46.4998 63.9028 46.1707 63.5336 45.9609C63.1247 45.7504 62.6427 45.7547 62.1837 45.7769C61.5335 45.8083 60.8266 45.8913 60.3647 46.3516C60.1195 46.6129 59.9533 46.9388 59.8853 47.2913C59.8184 47.6419 59.7848 47.998 59.7848 48.355C59.5182 47.895 59.2936 47.4118 59.1138 46.9112C58.9659 46.5385 58.8816 46.1434 58.8645 45.7425C58.849 45.3383 58.9827 44.9425 59.2398 44.6309C59.3704 44.4787 59.5407 44.3661 59.7316 44.3058C59.9225 44.2455 60.1264 44.2399 60.3203 44.2896L60.2108 44.2819Z" fill="#2F2E41"/>
<path d="M67.8221 53.303C67.7995 53.2214 67.7533 53.1483 67.6895 53.0928C67.6256 53.0374 67.5469 53.0022 67.4631 52.9915C67.4576 52.9876 67.4518 52.9841 67.4458 52.981L63.8507 50.959C63.7481 50.9012 63.6272 50.8854 63.5132 50.9149C63.3993 50.9443 63.301 51.0167 63.2389 51.117L62.2557 52.7148L60.7747 51.2284L60.7512 51.2048C60.6752 51.1285 60.5748 51.0816 60.4678 51.0722C60.3607 51.0628 60.2537 51.0915 60.1657 51.1534L57.2111 53.2299C57.2059 53.2299 57.2007 53.2317 57.1955 53.2317C57.0541 53.2553 56.925 53.3267 56.8294 53.4339C56.7339 53.5412 56.6777 53.678 56.67 53.8217L56.5938 55.3689H68.3926L67.8221 53.303Z" fill="#4DA16E"/>
<path d="M74.4079 55.1287H72.1315C72.1315 55.0649 72.1063 55.0037 72.0613 54.9586C72.0164 54.9135 71.9555 54.8882 71.8919 54.8882H71.173C71.1095 54.8882 71.0485 54.9135 71.0036 54.9586C70.9587 55.0037 70.9334 55.0649 70.9334 55.1287H70.2146C70.2146 55.0649 70.1893 55.0037 70.1444 54.9586C70.0994 54.9135 70.0385 54.8882 69.9749 54.8882H69.2561C69.1925 54.8882 69.1316 54.9135 69.0866 54.9586C69.0417 55.0037 69.0164 55.0649 69.0164 55.1287H68.2976C68.2976 55.0649 68.2723 55.0037 68.2274 54.9586C68.1825 54.9135 68.1215 54.8882 68.058 54.8882H67.3391C67.2755 54.8882 67.2146 54.9135 67.1697 54.9586C67.1247 55.0037 67.0995 55.0649 67.0995 55.1287H66.3806C66.3806 55.0649 66.3554 55.0037 66.3104 54.9586C66.2655 54.9135 66.2045 54.8882 66.141 54.8882H65.4221C65.3586 54.8882 65.2976 54.9135 65.2527 54.9586C65.2077 55.0037 65.1825 55.0649 65.1825 55.1287H64.4636C64.4636 55.0649 64.4384 55.0037 64.3935 54.9586C64.3485 54.9135 64.2876 54.8882 64.224 54.8882H63.5051C63.4416 54.8882 63.3807 54.9135 63.3357 54.9586C63.2908 55.0037 63.2655 55.0649 63.2655 55.1287H62.5467C62.5467 55.0649 62.5214 55.0037 62.4765 54.9586C62.4315 54.9135 62.3706 54.8882 62.307 54.8882H61.5882C61.5246 54.8882 61.4637 54.9135 61.4187 54.9586C61.3738 55.0037 61.3485 55.0649 61.3485 55.1287H60.6297C60.6297 55.0649 60.6044 55.0037 60.5595 54.9586C60.5146 54.9135 60.4536 54.8882 60.3901 54.8882H59.6712C59.6077 54.8882 59.5467 54.9135 59.5018 54.9586C59.4568 55.0037 59.4316 55.0649 59.4316 55.1287H58.7127C58.7127 55.0649 58.6875 55.0037 58.6425 54.9586C58.5976 54.9135 58.5366 54.8882 58.4731 54.8882H57.7542C57.6907 54.8882 57.6297 54.9135 57.5848 54.9586C57.5399 55.0037 57.5146 55.0649 57.5146 55.1287H56.7957C56.7957 55.0649 56.7705 55.0037 56.7256 54.9586C56.6806 54.9135 56.6197 54.8882 56.5561 54.8882H55.8373C55.7737 54.8882 55.7128 54.9135 55.6678 54.9586C55.6229 55.0037 55.5976 55.0649 55.5976 55.1287H54.8788C54.8788 55.0649 54.8535 55.0037 54.8086 54.9586C54.7636 54.9135 54.7027 54.8882 54.6392 54.8882H53.9203C53.8567 54.8882 53.7958 54.9135 53.7508 54.9586C53.7059 55.0037 53.6807 55.0649 53.6807 55.1287H52.9618C52.9618 55.0649 52.9366 55.0037 52.8916 54.9586C52.8467 54.9135 52.7857 54.8882 52.7222 54.8882H52.0033C51.9398 54.8882 51.8788 54.9135 51.8339 54.9586C51.7889 55.0037 51.7637 55.0649 51.7637 55.1287H49.4873C49.2968 55.129 49.1143 55.2051 48.9797 55.3404C48.8451 55.4757 48.7695 55.659 48.7695 55.8502C48.7695 56.0413 48.8451 56.2247 48.9797 56.3599C49.1143 56.4952 49.2968 56.5714 49.4873 56.5717H74.4079C74.5986 56.5717 74.7814 56.4956 74.9163 56.3603C75.0511 56.225 75.1268 56.0415 75.1268 55.8502C75.1268 55.6588 75.0511 55.4753 74.9163 55.34C74.7814 55.2047 74.5986 55.1287 74.4079 55.1287Z" fill="#3F3D56"/>
<path d="M45.7814 50.9385V55.7291H33.8227C33.5023 55.7403 33.1829 55.6866 32.8836 55.5713C32.5843 55.456 32.3112 55.2813 32.0806 55.0578C31.85 54.8343 31.6666 54.5664 31.5414 54.2702C31.4161 53.974 31.3516 53.6556 31.3516 53.3338C31.3516 53.012 31.4161 52.6936 31.5414 52.3974C31.6666 52.1012 31.85 51.8333 32.0806 51.6098C32.3112 51.3863 32.5843 51.2116 32.8836 51.0963C33.1829 50.9809 33.5023 50.9273 33.8227 50.9385H45.7814Z" fill="#F2F2F2"/>
<path d="M46.0744 55.6925C46.0744 55.7413 46.055 55.7882 46.0206 55.8228C45.9862 55.8573 45.9395 55.8767 45.8908 55.8767H33.6089C32.9418 55.8767 32.3021 55.6108 31.8304 55.1374C31.3587 54.664 31.0938 54.0219 31.0938 53.3524C31.0938 52.6829 31.3587 52.0409 31.8304 51.5675C32.3021 51.0941 32.9418 50.8281 33.6089 50.8281H45.8908C45.9395 50.8281 45.9862 50.8475 46.0206 50.8821C46.0551 50.9166 46.0744 50.9635 46.0744 51.0124C46.0744 51.0612 46.0551 51.1081 46.0206 51.1427C45.9862 51.1772 45.9395 51.1966 45.8908 51.1966H33.6089C33.0395 51.1971 32.4937 51.4245 32.0913 51.8287C31.6889 52.233 31.4629 52.781 31.4629 53.3524C31.4629 53.9238 31.6889 54.4719 32.0913 54.8761C32.4937 55.2804 33.0395 55.5077 33.6089 55.5082H45.8908C45.9395 55.5082 45.9862 55.5277 46.0206 55.5622C46.055 55.5968 46.0744 55.6436 46.0744 55.6925Z" fill="#4DA16E"/>
<path d="M45.7825 52.0439H32.9315C32.9267 52.044 32.9219 52.043 32.9174 52.0412C32.9129 52.0393 32.9088 52.0366 32.9054 52.0332C32.9019 52.0298 32.8992 52.0257 32.8974 52.0212C32.8955 52.0167 32.8945 52.0119 32.8945 52.0071C32.8945 52.0022 32.8955 51.9974 32.8974 51.9929C32.8992 51.9884 32.9019 51.9843 32.9054 51.9809C32.9088 51.9775 32.9129 51.9748 32.9174 51.973C32.9219 51.9711 32.9267 51.9702 32.9315 51.9702H45.7825C45.7922 51.9703 45.8015 51.9742 45.8084 51.9811C45.8152 51.988 45.819 51.9973 45.819 52.0071C45.819 52.0168 45.8152 52.0261 45.8084 52.033C45.8015 52.0399 45.7922 52.0439 45.7825 52.0439Z" fill="#CCCCCC"/>
<path d="M45.7825 52.9287H32.9315C32.9267 52.9287 32.9219 52.9278 32.9174 52.9259C32.9129 52.9241 32.9088 52.9214 32.9054 52.918C32.9019 52.9146 32.8992 52.9105 32.8974 52.906C32.8955 52.9015 32.8945 52.8967 32.8945 52.8918C32.8945 52.887 32.8955 52.8822 32.8974 52.8777C32.8992 52.8732 32.9019 52.8691 32.9054 52.8657C32.9088 52.8623 32.9129 52.8595 32.9174 52.8577C32.9219 52.8559 32.9267 52.8549 32.9315 52.855H45.7825C45.7922 52.855 45.8015 52.859 45.8084 52.8659C45.8152 52.8728 45.819 52.8821 45.819 52.8918C45.819 52.9016 45.8152 52.9109 45.8084 52.9178C45.8015 52.9247 45.7922 52.9286 45.7825 52.9287Z" fill="#CCCCCC"/>
<path d="M45.7825 53.813H32.9315C32.9267 53.813 32.9219 53.8121 32.9174 53.8102C32.9129 53.8084 32.9088 53.8057 32.9054 53.8023C32.9019 53.7988 32.8992 53.7948 32.8974 53.7903C32.8955 53.7858 32.8945 53.781 32.8945 53.7761C32.8945 53.7712 32.8955 53.7664 32.8974 53.7619C32.8992 53.7575 32.9019 53.7534 32.9054 53.75C32.9088 53.7465 32.9129 53.7438 32.9174 53.742C32.9219 53.7402 32.9267 53.7392 32.9315 53.7393H45.7825C45.7922 53.7393 45.8015 53.7432 45.8084 53.7501C45.8152 53.757 45.819 53.7664 45.819 53.7761C45.819 53.7858 45.8152 53.7952 45.8084 53.8021C45.8015 53.809 45.7922 53.8129 45.7825 53.813Z" fill="#CCCCCC"/>
<path d="M45.7825 54.6972H32.9315C32.9267 54.6973 32.9219 54.6963 32.9174 54.6945C32.9129 54.6927 32.9088 54.69 32.9054 54.6865C32.9019 54.6831 32.8992 54.679 32.8974 54.6745C32.8955 54.6701 32.8945 54.6652 32.8945 54.6604C32.8945 54.6555 32.8955 54.6507 32.8974 54.6462C32.8992 54.6417 32.9019 54.6377 32.9054 54.6342C32.9088 54.6308 32.9129 54.6281 32.9174 54.6263C32.9219 54.6244 32.9267 54.6235 32.9315 54.6235H45.7825C45.7922 54.6236 45.8015 54.6275 45.8084 54.6344C45.8152 54.6413 45.819 54.6507 45.819 54.6604C45.819 54.6701 45.8152 54.6795 45.8084 54.6864C45.8015 54.6933 45.7922 54.6972 45.7825 54.6972Z" fill="#CCCCCC"/>
<path d="M43.5275 45.8911V50.6818H31.5688C31.2484 50.6929 30.929 50.6393 30.6297 50.5239C30.3304 50.4086 30.0573 50.234 29.8267 50.0104C29.5961 49.7869 29.4127 49.519 29.2875 49.2229C29.1622 48.9267 29.0977 48.6082 29.0977 48.2864C29.0977 47.9647 29.1622 47.6462 29.2875 47.35C29.4127 47.0538 29.5961 46.786 29.8267 46.5624C30.0573 46.3389 30.3304 46.1643 30.6297 46.0489C30.929 45.9336 31.2484 45.8799 31.5688 45.8911H43.5275Z" fill="#F2F2F2"/>
<path d="M43.8205 50.6451C43.8205 50.694 43.8011 50.7408 43.7667 50.7754C43.7323 50.8099 43.6856 50.8294 43.6369 50.8294H31.355C31.0247 50.8294 30.6976 50.7641 30.3925 50.6372C30.0873 50.5104 29.8101 50.3244 29.5765 50.09C29.343 49.8556 29.1577 49.5773 29.0313 49.2711C28.9049 48.9648 28.8398 48.6366 28.8398 48.3051C28.8398 47.9736 28.9049 47.6453 29.0313 47.3391C29.1577 47.0328 29.343 46.7545 29.5765 46.5201C29.8101 46.2857 30.0873 46.0998 30.3925 45.9729C30.6976 45.8461 31.0247 45.7808 31.355 45.7808H43.6369C43.6856 45.7808 43.7323 45.8002 43.7667 45.8347C43.8011 45.8693 43.8205 45.9162 43.8205 45.965C43.8205 46.0139 43.8011 46.0608 43.7667 46.0953C43.7323 46.1299 43.6856 46.1493 43.6369 46.1493H31.355C30.7856 46.1498 30.2398 46.3771 29.8374 46.7814C29.435 47.1856 29.2089 47.7337 29.2089 48.3051C29.2089 48.8765 29.435 49.4245 29.8374 49.8288C30.2398 50.233 30.7856 50.4604 31.355 50.4609H43.6369C43.6856 50.4609 43.7323 50.4803 43.7667 50.5149C43.8011 50.5494 43.8205 50.5963 43.8205 50.6451Z" fill="#3F3D56"/>
<path d="M43.5286 46.997H30.6776C30.6728 46.9971 30.6679 46.9961 30.6635 46.9943C30.659 46.9925 30.6549 46.9898 30.6515 46.9863C30.648 46.9829 30.6453 46.9788 30.6434 46.9744C30.6416 46.9699 30.6406 46.9651 30.6406 46.9602C30.6406 46.9553 30.6416 46.9505 30.6434 46.946C30.6453 46.9415 30.648 46.9375 30.6515 46.934C30.6549 46.9306 30.659 46.9279 30.6635 46.9261C30.6679 46.9242 30.6728 46.9233 30.6776 46.9233H43.5286C43.5383 46.9234 43.5476 46.9273 43.5544 46.9342C43.5613 46.9411 43.5651 46.9505 43.5651 46.9602C43.5651 46.9699 43.5613 46.9793 43.5544 46.9862C43.5476 46.9931 43.5383 46.997 43.5286 46.997Z" fill="#CCCCCC"/>
<path d="M43.5286 47.8813H30.6776C30.6728 47.8814 30.6679 47.8804 30.6635 47.8786C30.659 47.8767 30.6549 47.874 30.6515 47.8706C30.648 47.8672 30.6453 47.8631 30.6434 47.8586C30.6416 47.8541 30.6406 47.8493 30.6406 47.8445C30.6406 47.8396 30.6416 47.8348 30.6434 47.8303C30.6453 47.8258 30.648 47.8217 30.6515 47.8183C30.6549 47.8149 30.659 47.8122 30.6635 47.8103C30.6679 47.8085 30.6728 47.8076 30.6776 47.8076H43.5286C43.5383 47.8077 43.5476 47.8116 43.5544 47.8185C43.5613 47.8254 43.5651 47.8347 43.5651 47.8445C43.5651 47.8542 43.5613 47.8635 43.5544 47.8704C43.5476 47.8773 43.5383 47.8813 43.5286 47.8813Z" fill="#CCCCCC"/>
<path d="M43.5286 48.7656H30.6776C30.6728 48.7656 30.6679 48.7647 30.6635 48.7629C30.659 48.761 30.6549 48.7583 30.6515 48.7549C30.648 48.7515 30.6453 48.7474 30.6434 48.7429C30.6416 48.7384 30.6406 48.7336 30.6406 48.7287C30.6406 48.7239 30.6416 48.7191 30.6434 48.7146C30.6453 48.7101 30.648 48.706 30.6515 48.7026C30.6549 48.6992 30.659 48.6965 30.6635 48.6946C30.6679 48.6928 30.6728 48.6919 30.6776 48.6919H43.5286C43.5383 48.692 43.5476 48.6959 43.5544 48.7028C43.5613 48.7097 43.5651 48.719 43.5651 48.7287C43.5651 48.7385 43.5613 48.7478 43.5544 48.7547C43.5476 48.7616 43.5383 48.7655 43.5286 48.7656Z" fill="#CCCCCC"/>
<path d="M43.5286 49.6504H30.6776C30.6728 49.6504 30.6679 49.6495 30.6635 49.6476C30.659 49.6458 30.6549 49.6431 30.6515 49.6397C30.648 49.6362 30.6453 49.6322 30.6434 49.6277C30.6416 49.6232 30.6406 49.6184 30.6406 49.6135C30.6406 49.6087 30.6416 49.6038 30.6434 49.5994C30.6453 49.5949 30.648 49.5908 30.6515 49.5874C30.6549 49.5839 30.659 49.5812 30.6635 49.5794C30.6679 49.5776 30.6728 49.5766 30.6776 49.5767H43.5286C43.5383 49.5767 43.5476 49.5806 43.5544 49.5875C43.5613 49.5944 43.5651 49.6038 43.5651 49.6135C43.5651 49.6232 43.5613 49.6326 43.5544 49.6395C43.5476 49.6464 43.5383 49.6503 43.5286 49.6504Z" fill="#CCCCCC"/>
<path d="M57.4411 72.7575V68.5804C57.4411 68.3958 57.368 68.2187 57.2379 68.0882C57.1078 67.9576 56.9314 67.8843 56.7474 67.8843H40.9671C40.7831 67.8843 40.6067 67.9576 40.4766 68.0882C40.3465 68.2187 40.2734 68.3958 40.2734 68.5804V72.7575H57.4411Z" fill="#CCCCCC"/>
<path d="M57.4411 74.3237H40.2734V79.7191H57.4411V74.3237Z" fill="#CCCCCC"/>
<path d="M40.2734 81.2856V85.4627C40.2734 85.6473 40.3465 85.8244 40.4766 85.9549C40.6067 86.0855 40.7831 86.1588 40.9671 86.1588H56.7474C56.9314 86.1588 57.1078 86.0855 57.2379 85.9549C57.368 85.8244 57.4411 85.6473 57.4411 85.4627V81.2856H40.2734Z" fill="#CCCCCC"/>
<path d="M48.7702 71.0169C49.0575 71.0169 49.2905 70.7831 49.2905 70.4948C49.2905 70.2064 49.0575 69.9727 48.7702 69.9727C48.4829 69.9727 48.25 70.2064 48.25 70.4948C48.25 70.7831 48.4829 71.0169 48.7702 71.0169Z" fill="white"/>
<path d="M48.7702 77.9788C49.0575 77.9788 49.2905 77.7451 49.2905 77.4567C49.2905 77.1683 49.0575 76.9346 48.7702 76.9346C48.4829 76.9346 48.25 77.1683 48.25 77.4567C48.25 77.7451 48.4829 77.9788 48.7702 77.9788Z" fill="white"/>
<path d="M48.7976 84.7928C49.0849 84.7928 49.3178 84.559 49.3178 84.2707C49.3178 83.9823 49.0849 83.7485 48.7976 83.7485C48.5103 83.7485 48.2773 83.9823 48.2773 84.2707C48.2773 84.559 48.5103 84.7928 48.7976 84.7928Z" fill="white"/>
<path d="M55.4924 63.1216V67.9122H43.5336C43.2132 67.9234 42.8938 67.8697 42.5946 67.7544C42.2953 67.6391 42.0222 67.4644 41.7916 67.2409C41.561 67.0174 41.3776 66.7495 41.2523 66.4533C41.1271 66.1571 41.0625 65.8387 41.0625 65.5169C41.0625 65.1951 41.1271 64.8767 41.2523 64.5805C41.3776 64.2843 41.561 64.0164 41.7916 63.7929C42.0222 63.5694 42.2953 63.3947 42.5946 63.2794C42.8938 63.1641 43.2132 63.1104 43.5336 63.1216H55.4924Z" fill="#F2F2F2"/>
<path d="M55.7874 67.8756C55.7874 67.9244 55.7681 67.9713 55.7336 68.0059C55.6992 68.0404 55.6525 68.0598 55.6038 68.0598H43.3219C42.9914 68.0601 42.6642 67.995 42.3588 67.8683C42.0534 67.7416 41.7759 67.5557 41.5421 67.3212C41.3083 67.0868 41.1229 66.8084 40.9963 66.502C40.8698 66.1956 40.8047 65.8672 40.8047 65.5355C40.8047 65.2039 40.8698 64.8754 40.9963 64.569C41.1229 64.2626 41.3083 63.9843 41.5421 63.7498C41.7759 63.5154 42.0534 63.3295 42.3588 63.2028C42.6642 63.076 42.9914 63.011 43.3219 63.0112H55.6038C55.6525 63.0112 55.6992 63.0306 55.7336 63.0652C55.7681 63.0997 55.7874 63.1466 55.7874 63.1955C55.7874 63.2444 55.7681 63.2912 55.7336 63.3258C55.6992 63.3603 55.6525 63.3797 55.6038 63.3797H43.3219C42.7526 63.3803 42.2067 63.6076 41.8043 64.0118C41.4019 64.4161 41.1759 64.9641 41.1759 65.5355C41.1759 66.107 41.4019 66.655 41.8043 67.0592C42.2067 67.4635 42.7526 67.6908 43.3219 67.6913H55.6038C55.6525 67.6914 55.6992 67.7108 55.7336 67.7453C55.7681 67.7799 55.7874 67.8267 55.7874 67.8756Z" fill="#3F3D56"/>
<path d="M55.4935 64.227H42.6424C42.6376 64.2271 42.6328 64.2261 42.6283 64.2243C42.6238 64.2225 42.6197 64.2197 42.6163 64.2163C42.6129 64.2129 42.6101 64.2088 42.6083 64.2043C42.6064 64.1998 42.6055 64.195 42.6055 64.1902C42.6055 64.1853 42.6064 64.1805 42.6083 64.176C42.6101 64.1715 42.6129 64.1675 42.6163 64.164C42.6197 64.1606 42.6238 64.1579 42.6283 64.1561C42.6328 64.1542 42.6376 64.1533 42.6424 64.1533H55.4935C55.5032 64.1534 55.5125 64.1573 55.5193 64.1642C55.5261 64.1711 55.53 64.1804 55.53 64.1902C55.53 64.1999 55.5261 64.2092 55.5193 64.2161C55.5125 64.223 55.5032 64.227 55.4935 64.227Z" fill="#CCCCCC"/>
<path d="M55.4935 65.1118H42.6424C42.6376 65.1118 42.6328 65.1109 42.6283 65.1091C42.6238 65.1072 42.6197 65.1045 42.6163 65.1011C42.6129 65.0977 42.6101 65.0936 42.6083 65.0891C42.6064 65.0846 42.6055 65.0798 42.6055 65.0749C42.6055 65.0701 42.6064 65.0653 42.6083 65.0608C42.6101 65.0563 42.6129 65.0522 42.6163 65.0488C42.6197 65.0454 42.6238 65.0427 42.6283 65.0408C42.6328 65.039 42.6376 65.0381 42.6424 65.0381H55.4935C55.5032 65.0382 55.5125 65.0421 55.5193 65.049C55.5261 65.0559 55.53 65.0652 55.53 65.0749C55.53 65.0847 55.5261 65.094 55.5193 65.1009C55.5125 65.1078 55.5032 65.1117 55.4935 65.1118Z" fill="#CCCCCC"/>
<path d="M55.4935 65.9961H42.6424C42.6376 65.9961 42.6328 65.9952 42.6283 65.9933C42.6238 65.9915 42.6197 65.9888 42.6163 65.9854C42.6129 65.9819 42.6101 65.9779 42.6083 65.9734C42.6064 65.9689 42.6055 65.9641 42.6055 65.9592C42.6055 65.9544 42.6064 65.9495 42.6083 65.9451C42.6101 65.9406 42.6129 65.9365 42.6163 65.9331C42.6197 65.9296 42.6238 65.9269 42.6283 65.9251C42.6328 65.9233 42.6376 65.9223 42.6424 65.9224H55.4935C55.5032 65.9224 55.5125 65.9263 55.5193 65.9332C55.5261 65.9401 55.53 65.9495 55.53 65.9592C55.53 65.9689 55.5261 65.9783 55.5193 65.9852C55.5125 65.9921 55.5032 65.996 55.4935 65.9961Z" fill="#CCCCCC"/>
<path d="M55.4935 66.8803H42.6424C42.6376 66.8804 42.6328 66.8794 42.6283 66.8776C42.6238 66.8758 42.6197 66.8731 42.6163 66.8696C42.6129 66.8662 42.6101 66.8621 42.6083 66.8577C42.6064 66.8532 42.6055 66.8484 42.6055 66.8435C42.6055 66.8386 42.6064 66.8338 42.6083 66.8293C42.6101 66.8248 42.6129 66.8208 42.6163 66.8173C42.6197 66.8139 42.6238 66.8112 42.6283 66.8094C42.6328 66.8075 42.6376 66.8066 42.6424 66.8066H55.4935C55.5032 66.8067 55.5125 66.8106 55.5193 66.8175C55.5261 66.8244 55.53 66.8338 55.53 66.8435C55.53 66.8532 55.5261 66.8626 55.5193 66.8695C55.5125 66.8764 55.5032 66.8803 55.4935 66.8803Z" fill="#CCCCCC"/>
<path d="M39.3711 31.8536V1.30905C39.3715 0.961992 39.509 0.629259 39.7535 0.38385C39.9981 0.138441 40.3296 0.000394771 40.6754 0H64.7324C65.0782 0.000397069 65.4097 0.138444 65.6542 0.383853C65.8987 0.629261 66.0363 0.961993 66.0367 1.30905V31.8536C66.0363 32.2006 65.8987 32.5334 65.6542 32.7788C65.4097 33.0242 65.0782 33.1622 64.7324 33.1626H40.6754C40.3296 33.1622 39.9981 33.0242 39.7535 32.7788C39.509 32.5334 39.3715 32.2006 39.3711 31.8536ZM40.6754 0.290901C40.4064 0.291203 40.1486 0.39857 39.9584 0.589445C39.7682 0.78032 39.6612 1.03912 39.6609 1.30905V31.8536C39.6612 32.1235 39.7682 32.3823 39.9584 32.5732C40.1486 32.7641 40.4064 32.8714 40.6754 32.8717H64.7324C65.0013 32.8714 65.2592 32.7641 65.4494 32.5732C65.6395 32.3823 65.7465 32.1235 65.7468 31.8536V1.30905C65.7465 1.03912 65.6395 0.78032 65.4494 0.589445C65.2592 0.39857 65.0013 0.291204 64.7324 0.290901H40.6754Z" fill="#E6E6E6"/>
<path d="M54.0547 14.0274V7.7556C54.0549 7.58207 54.1236 7.4157 54.2459 7.293C54.3682 7.17029 54.5339 7.10127 54.7068 7.10107H60.0023C60.1752 7.10127 60.3409 7.17029 60.4632 7.293C60.5854 7.4157 60.6542 7.58207 60.6544 7.7556V14.0274C60.6542 14.2009 60.5854 14.3673 60.4632 14.49C60.3409 14.6127 60.1752 14.6817 60.0023 14.6819H54.7068C54.5339 14.6817 54.3682 14.6127 54.2459 14.49C54.1236 14.3673 54.0549 14.2009 54.0547 14.0274Z" fill="#4DA16E"/>
<path d="M43.7656 16.9365V10.6648C43.7658 10.4912 43.8346 10.3249 43.9568 10.2022C44.0791 10.0795 44.2449 10.0104 44.4178 10.0103H49.7132C49.8861 10.0104 50.0519 10.0795 50.1741 10.2022C50.2964 10.3249 50.3652 10.4912 50.3654 10.6648V16.9365C50.3652 17.1101 50.2964 17.2764 50.1741 17.3991C50.0519 17.5218 49.8861 17.5909 49.7132 17.5911H44.4178C44.2449 17.5909 44.0791 17.5218 43.9568 17.3991C43.8346 17.2764 43.7658 17.1101 43.7656 16.9365Z" fill="#CCCCCC"/>
<path d="M52.0234 25.8091V19.5373C52.0236 19.3638 52.0924 19.1974 52.2147 19.0747C52.3369 18.952 52.5027 18.883 52.6756 18.8828H57.971C58.1439 18.883 58.3097 18.952 58.4319 19.0747C58.5542 19.1974 58.623 19.3638 58.6232 19.5373V25.8091C58.623 25.9826 58.5542 26.149 58.4319 26.2717C58.3097 26.3944 58.1439 26.4634 57.971 26.4636H52.6756C52.5027 26.4634 52.3369 26.3944 52.2147 26.2717C52.0924 26.149 52.0236 25.9826 52.0234 25.8091Z" fill="#FF6584"/>
<path d="M83.6684 54.4829H78.2198C78.1681 54.4829 78.1171 54.4948 78.0707 54.5177L76.6955 55.2087C76.6503 55.228 76.6117 55.2602 76.5846 55.3014C76.5574 55.3425 76.543 55.3908 76.543 55.4401C76.543 55.4895 76.5574 55.5378 76.5846 55.5789C76.6117 55.6201 76.6503 55.6523 76.6955 55.6716L78.0707 56.3626C78.1171 56.3855 78.1681 56.3974 78.2198 56.3974H83.6684C83.7434 56.4017 83.8172 56.3762 83.8737 56.3264C83.9302 56.2766 83.9648 56.2064 83.9701 56.1311V54.7492C83.9648 54.6739 83.9302 54.6037 83.8737 54.5539C83.8172 54.504 83.7435 54.4785 83.6684 54.4829Z" fill="#3F3D56"/>
<path d="M83.9732 54.7492V56.1311C83.9679 56.2064 83.9333 56.2766 83.8768 56.3264C83.8203 56.3762 83.7465 56.4017 83.6714 56.3974H82.5859V54.4829H83.6714C83.7465 54.4785 83.8203 54.5041 83.8768 54.5539C83.9333 54.6037 83.9679 54.6739 83.9732 54.7492Z" fill="#4DA16E"/>
<path d="M83.6284 44.1445C83.8752 44.0376 84.1417 43.9843 84.4104 43.988C84.6792 43.9917 84.9442 44.0523 85.188 44.1659C85.4318 44.2795 85.6489 44.4436 85.8251 44.6473C86.0013 44.851 86.1327 45.0898 86.2105 45.348C86.2348 45.4298 86.2533 45.5133 86.2661 45.5977L93.8854 49.3898L95.6487 48.217L97.8426 50.752L95.1503 52.9466C94.8265 53.2085 94.4272 53.3586 94.0117 53.3747C93.5962 53.3908 93.1866 53.272 92.8437 53.0359L85.1132 47.6705C85.0557 47.695 84.9969 47.7165 84.9372 47.7349C84.6799 47.813 84.409 47.8357 84.1424 47.8014C83.8758 47.7671 83.6194 47.6767 83.39 47.536C83.1606 47.3953 82.9634 47.2076 82.8113 46.9851C82.6593 46.7626 82.5558 46.5104 82.5076 46.245C82.4934 46.1679 82.4839 46.0901 82.4794 46.0118C82.458 45.6201 82.5566 45.2311 82.762 44.8973C82.9674 44.5634 83.2698 44.3007 83.6284 44.1445Z" fill="#FFB8B8"/>
<path d="M99.4972 67.4922H91.1718C91.1718 67.7324 82.5915 67.9273 82.5915 67.9273C82.4568 68.0291 82.3341 68.1458 82.2256 68.2754C81.8997 68.6655 81.7216 69.1586 81.7227 69.6677V70.0158C81.7229 70.5927 81.9513 71.146 82.3578 71.5539C82.7642 71.9619 83.3155 72.1911 83.8903 72.1913H99.4972C100.072 72.1908 100.623 71.9615 101.029 71.5536C101.436 71.1457 101.664 70.5926 101.665 70.0158V69.6677C101.664 69.091 101.435 68.5381 101.029 68.1303C100.623 67.7225 100.072 67.493 99.4972 67.4922Z" fill="#3F3D56"/>
<path d="M90.441 86.7246H92.6953V72.105H90.441V86.7246Z" fill="#3F3D56"/>
<path d="M84.0273 86.6455C84.0273 86.8899 87.4434 86.74 91.6574 86.74C95.8714 86.74 99.2875 86.8899 99.2875 86.6455C99.2875 86.401 95.8714 84.4624 91.6574 84.4624C87.4434 84.4624 84.0273 86.401 84.0273 86.6455Z" fill="#3F3D56"/>
<path d="M86.0631 84.9317L83.9373 84.9315L82.9258 79.3975L86.0635 79.3976L86.0631 84.9317Z" fill="#FFB8B8"/>
<path d="M86.605 87L79.75 86.9997V86.9127C79.75 86.5611 79.819 86.2128 79.9531 85.8879C80.0872 85.563 80.2837 85.2678 80.5315 85.0192C80.7793 84.7705 81.0734 84.5733 81.3971 84.4387C81.7208 84.3041 82.0678 84.2349 82.4182 84.2349H82.4184L86.6051 84.235L86.605 87Z" fill="#2F2E41"/>
<path d="M82.883 81.5002L78.6447 71.9613C78.2908 71.1573 78.2517 70.249 78.5351 69.4174C78.8185 68.5858 79.4036 67.8918 80.1739 67.4737L89.367 62.5261L93.562 62.168L97.4316 61.8149L97.4595 61.8624C97.4952 61.9229 98.3272 63.3652 97.7648 64.9467C97.3382 66.1463 96.2286 67.0833 94.4667 67.7317C90.3544 69.2451 85.6039 70.5385 83.7523 71.0243C83.6705 71.0453 83.594 71.0834 83.5279 71.1362C83.4618 71.189 83.4076 71.2552 83.3689 71.3305C83.33 71.405 83.3069 71.4867 83.3011 71.5705C83.2952 71.6544 83.3067 71.7385 83.3348 71.8177L87.2724 80.6964C87.3135 80.809 87.3283 80.9296 87.3157 81.0488C87.303 81.1681 87.2632 81.2829 87.1994 81.3842C87.1356 81.4856 87.0494 81.571 86.9475 81.6336C86.8457 81.6963 86.7308 81.7347 86.6118 81.7458L83.6696 81.9608C83.6447 81.9631 83.6198 81.9643 83.595 81.9643C83.4444 81.9643 83.2969 81.9204 83.1706 81.838C83.0442 81.7557 82.9443 81.6383 82.883 81.5002Z" fill="#2F2E41"/>
<path d="M87.1022 84.9317L84.9763 84.9315L83.9648 79.3975L87.1025 79.3976L87.1022 84.9317Z" fill="#FFB8B8"/>
<path d="M87.6441 87L80.7891 86.9997V86.9127C80.7891 86.5611 80.8581 86.2128 80.9922 85.8879C81.1262 85.563 81.3228 85.2678 81.5706 85.0192C81.8183 84.7705 82.1125 84.5733 82.4362 84.4387C82.7599 84.3041 83.1068 84.2349 83.4572 84.2349H83.4574L87.6442 84.235L87.6441 87Z" fill="#2F2E41"/>
<path d="M84.0939 82.0221L79.8556 72.4832C79.5018 71.6793 79.4626 70.771 79.746 69.9394C80.0294 69.1078 80.6145 68.4138 81.3848 67.9957L90.5779 63.048L94.7729 62.6899L98.6425 62.3369L98.6704 62.3843C98.7061 62.4448 99.5381 63.8872 98.9757 65.4687C98.5491 66.6683 97.4395 67.6053 95.6777 68.2537C91.5653 69.7671 86.8148 71.0605 84.9633 71.5462C84.8814 71.5672 84.805 71.6054 84.7389 71.6582C84.6728 71.711 84.6186 71.7772 84.5798 71.8525C84.541 71.927 84.5179 72.0087 84.512 72.0925C84.5062 72.1763 84.5176 72.2605 84.5458 72.3396L88.4833 81.2184C88.5245 81.331 88.5393 81.4516 88.5266 81.5708C88.514 81.6901 88.4742 81.8048 88.4104 81.9062C88.3465 82.0076 88.2604 82.0929 88.1585 82.1556C88.0566 82.2183 87.9417 82.2566 87.8228 82.2677L84.8806 82.4827C84.8556 82.4851 84.8307 82.4863 84.806 82.4863C84.6553 82.4862 84.5079 82.4424 84.3815 82.36C84.2551 82.2776 84.1552 82.1603 84.0939 82.0221Z" fill="#2F2E41"/>
<path d="M81.9845 52.8822C80.2035 50.5045 78.7956 47.8673 77.8096 45.0621C77.7525 44.8943 77.7565 44.7116 77.8211 44.5465C77.8856 44.3815 78.0064 44.2447 78.1619 44.1607L84.2565 40.8832C84.3551 40.8297 84.4645 40.7996 84.5765 40.795C84.6884 40.7905 84.7999 40.8116 84.9025 40.8569C85.007 40.9024 85.0998 40.9713 85.1737 41.0583C85.2477 41.1453 85.3009 41.2481 85.3293 41.3588C86.0387 44.062 87.3721 46.5596 89.2217 48.6496C89.2978 48.7346 89.3536 48.836 89.3848 48.946C89.416 49.056 89.4218 49.1717 89.4017 49.2842C89.3824 49.395 89.3382 49.4999 89.2724 49.5909C89.2066 49.682 89.121 49.7567 89.022 49.8095L82.9275 53.087C82.7716 53.1705 82.5912 53.1957 82.4186 53.1581C82.2459 53.1206 82.0921 53.0228 81.9845 52.8822Z" fill="#CCCCCC"/>
<path d="M82.3999 52.5684C82.4327 52.6095 82.4788 52.6377 82.5301 52.6484C82.5815 52.659 82.6349 52.6514 82.6812 52.6267L88.7758 49.3491C88.8054 49.3336 88.831 49.3115 88.8507 49.2844C88.8703 49.2573 88.8834 49.226 88.889 49.193C88.8953 49.1581 88.8936 49.1223 88.8838 49.0882C88.874 49.0541 88.8565 49.0228 88.8326 48.9967C86.9286 46.8451 85.5559 44.2739 84.8256 41.4911C84.8172 41.4567 84.8009 41.4248 84.7781 41.3977C84.7553 41.3707 84.7266 41.3493 84.6942 41.3353C84.6637 41.3216 84.6304 41.3152 84.597 41.3166C84.5636 41.318 84.5309 41.3271 84.5016 41.3433L78.4072 44.6208C78.361 44.6458 78.325 44.6863 78.3054 44.7351C78.2858 44.784 78.2838 44.8381 78.2997 44.8883C79.2681 47.6433 80.6508 50.2333 82.3999 52.5684Z" fill="white"/>
<path d="M102.229 52.0076L97.4556 53.828L96.2903 50.5792C96.1355 50.1478 96.1377 49.6754 96.2964 49.2455C96.4552 48.8155 96.7602 48.4557 97.1577 48.2297C97.5597 48.001 98.03 47.9242 98.4836 48.0131C98.9371 48.1019 99.3441 48.3507 99.6309 48.7143L102.229 52.0076Z" fill="#4DA16E"/>
<path d="M90.088 64.8797C89.9875 64.8084 89.9034 64.7164 89.8411 64.61C89.7788 64.5035 89.7398 64.3849 89.7267 64.2621C89.1153 58.5344 89.5412 54.052 91.0283 50.5588C91.2902 49.9563 91.6848 49.4213 92.1824 48.9938C92.68 48.5664 93.2676 48.2577 93.9011 48.091L97.7594 47.8955L97.7794 47.9052C98.6501 48.3332 99.3601 49.0314 99.8043 49.8963C100.248 50.7612 100.403 51.7467 100.245 52.7068C99.0042 55.9898 97.9651 59.4079 98.7576 62.1653C98.7908 62.2806 98.8005 62.4014 98.7861 62.5206C98.7717 62.6397 98.7334 62.7547 98.6737 62.8586C98.6157 62.9591 98.5379 63.0466 98.445 63.1157C98.352 63.1848 98.246 63.2341 98.1334 63.2605L90.7845 65.015C90.6655 65.0434 90.5418 65.0461 90.4217 65.0227C90.3016 64.9994 90.1878 64.9507 90.088 64.8797Z" fill="#4DA16E"/>
<path d="M96.474 46.4492C98.8262 46.4492 100.733 44.5354 100.733 42.1746C100.733 39.8137 98.8262 37.8999 96.474 37.8999C94.1217 37.8999 92.2148 39.8137 92.2148 42.1746C92.2148 44.5354 94.1217 46.4492 96.474 46.4492Z" fill="#FFB8B8"/>
<path d="M84.655 45.5603L81.3357 47.0309C81.2094 47.0866 81.0663 47.0899 80.9377 47.0399C80.8091 46.9898 80.7055 46.8907 80.6497 46.7641L80.5676 46.5774C80.512 46.4507 80.5088 46.3071 80.5586 46.178C80.6085 46.0489 80.7073 45.9449 80.8334 45.8889L84.1528 44.4183C84.279 44.3625 84.4221 44.3593 84.5507 44.4093C84.6793 44.4594 84.7829 44.5585 84.8388 44.6851L84.9209 44.8718C84.9764 44.9985 84.9796 45.1421 84.9298 45.2712C84.88 45.4003 84.7811 45.5042 84.655 45.5603Z" fill="#CCCCCC"/>
<path d="M85.8699 47.823L82.5505 49.2936C82.4243 49.3493 82.2812 49.3526 82.1525 49.3025C82.0239 49.2525 81.9203 49.1533 81.8645 49.0268L81.7824 48.8401C81.7268 48.7134 81.7236 48.5698 81.7735 48.4407C81.8233 48.3116 81.9221 48.2076 82.0482 48.1516L85.3676 46.681C85.4938 46.6252 85.637 46.622 85.7656 46.672C85.8942 46.7221 85.9978 46.8212 86.0536 46.9478L86.1357 47.1345C86.1913 47.2612 86.1945 47.4048 86.1446 47.5339C86.0948 47.663 85.996 47.7669 85.8699 47.823Z" fill="#CCCCCC"/>
<path d="M88.4279 56.6601L81.0277 50.8008C80.9687 50.8216 80.9088 50.8394 80.848 50.854C80.5868 50.9153 80.3157 50.9208 80.0523 50.8701C79.7888 50.8194 79.539 50.7136 79.3189 50.5596C79.0974 50.4056 78.9112 50.2058 78.7729 49.9737C78.6345 49.7415 78.5471 49.4824 78.5166 49.2137C78.467 48.7841 78.5635 48.3502 78.7904 47.9825C79.0173 47.6148 79.3614 47.3349 79.7667 47.1881C80.0198 47.0971 80.2891 47.0607 80.5571 47.0813C80.8251 47.102 81.0857 47.1792 81.3219 47.308C81.5581 47.4368 81.7645 47.6142 81.9276 47.8286C82.0907 48.043 82.2069 48.2896 82.2684 48.5522C82.2875 48.6354 82.3007 48.7199 82.3081 48.8049L89.6748 53.0702L91.5081 52.0109L93.5389 54.6794L90.6925 56.7155C90.3593 56.9519 89.959 57.0742 89.551 57.0643C89.1431 57.0543 88.7492 56.9126 88.4279 56.6601Z" fill="#FFB8B8"/>
<path d="M94.4411 55.5104L90.2188 52.6287L92.2031 49.808C92.4666 49.4334 92.8535 49.1644 93.2955 49.0485C93.7375 48.9326 94.2061 48.9772 94.6184 49.1745C95.0356 49.374 95.3679 49.7167 95.5554 50.1407C95.7428 50.5646 95.773 51.0419 95.6406 51.4862L94.4411 55.5104Z" fill="#4DA16E"/>
<path d="M94.9128 41.5381C93.8181 42.29 92.3808 43.063 91.2627 42.2622C90.5286 41.7364 90.2973 40.7628 90.595 39.9083C91.1304 38.3718 92.6013 37.6953 94.0078 37.1768C95.8363 36.5027 97.8273 35.9665 99.7149 36.4492C101.603 36.9319 103.271 38.7662 102.93 40.6911C102.656 42.2391 101.201 43.5271 101.408 45.0856C101.616 46.6541 103.373 47.4797 104.925 47.7601C106.476 48.0404 108.213 48.1305 109.328 49.2491C110.75 50.676 110.395 53.2265 109.056 54.7331C107.718 56.2396 105.698 56.9225 103.741 57.3868C101.148 58.0019 98.3427 58.3252 95.8797 57.3043C93.4168 56.2835 91.5002 53.5356 92.2136 50.9588C92.515 49.8703 93.2249 48.9505 93.9111 48.055C94.5972 47.1594 95.292 46.223 95.5537 45.1243C95.7718 44.2087 95.6104 43.1456 95.0054 42.4588C94.8954 42.3386 94.8261 42.1865 94.8076 42.0243C94.7891 41.8621 94.8222 41.6982 94.9023 41.5562L94.9128 41.5381Z" fill="#2F2E41"/>
<path d="M14.9147 62.3073C13.8172 62.6945 12.6388 62.7915 11.4932 62.5889C10.3475 62.3864 9.27307 61.8911 8.37346 61.1509C6.08236 59.2209 5.36403 56.0412 4.77955 53.097C4.20329 50.1942 3.62704 47.2915 3.05078 44.3887L6.67014 46.8899C9.27297 48.6887 11.9344 50.545 13.7366 53.1504C15.5388 55.7558 16.3255 59.3124 14.8775 62.1316" fill="#E6E6E6"/>
<path d="M14.6061 72.8504C14.9724 70.1723 15.3491 67.4598 15.0921 64.7531C14.8639 62.3492 14.1332 60.0012 12.6455 58.076C11.8558 57.0561 10.895 56.1822 9.80609 55.4937C9.52215 55.3138 9.26081 55.7654 9.54352 55.9445C11.4276 57.1396 12.8848 58.9043 13.7052 60.9842C14.6112 63.2971 14.7567 65.8184 14.6006 68.2754C14.5062 69.7613 14.306 71.2374 14.1044 72.7116C14.0885 72.7783 14.0984 72.8485 14.1321 72.9081C14.1659 72.9677 14.2209 73.0123 14.2861 73.0327C14.3526 73.0507 14.4235 73.0417 14.4834 73.0075C14.5433 72.9734 14.5874 72.9169 14.6061 72.8504Z" fill="#F2F2F2"/>
<path d="M11.0783 68.1113C10.6076 68.8293 9.96064 69.4136 9.19967 69.8077C8.43869 70.2019 7.58939 70.3928 6.73359 70.3619C4.5342 70.2571 2.70062 68.7165 1.05004 67.2538L-3.83203 62.9276L-0.600908 62.7724C1.72272 62.6608 4.1063 62.5567 6.31948 63.2759C8.53266 63.9951 10.5738 65.7259 10.9785 68.0251" fill="#E6E6E6"/>
<path d="M15.642 74.39C13.8788 71.2588 11.8336 67.7788 8.17928 66.6665C7.1632 66.3583 6.09777 66.2479 5.04037 66.3412C4.70711 66.3701 4.79033 66.8857 5.12298 66.8569C6.89542 66.7092 8.66443 67.1789 10.1322 68.187C11.5446 69.1519 12.6443 70.4933 13.5751 71.9159C14.1452 72.7872 14.6559 73.6956 15.1667 74.6027C15.33 74.8926 15.8071 74.6833 15.642 74.39Z" fill="#F2F2F2"/>
<path d="M18.4646 77.6859C18.4052 76.995 18.158 76.3337 17.75 75.7741C17.3421 75.2144 16.7889 74.7778 16.1508 74.5119V72.7017H13.1257V74.5689C12.519 74.8479 11.9969 75.2834 11.6125 75.831C11.2282 76.3785 10.9954 77.0186 10.9379 77.6859L10.2266 85.9849H19.1759L18.4646 77.6859Z" fill="#F2F2F2"/>
</g>
<defs>
<clipPath id="clip0_932_4169">
<rect width="120" height="87" fill="white" transform="translate(-4)"/>
</clipPath>
</defs>
</svg>
