<svg width="80" height="80" viewBox="0 0 80 80" fill="none" xmlns="http://www.w3.org/2000/svg">
<rect width="80" height="80" rx="18" fill="#E7F4EB"/>
<g clip-path="url(#clip0_932_4183)">
<path d="M78.6359 43.9804V66.3126H23.1262C20.1881 66.4156 17.3298 65.3379 15.18 63.3167C13.0302 61.2954 11.7651 58.4962 11.663 55.5348C11.5608 52.5733 12.63 49.6923 14.6353 47.5254C16.6406 45.3585 19.4178 44.0834 22.3559 43.9804C22.6127 43.9714 22.8696 43.9714 23.1267 43.9804H78.6359Z" fill="#F2F2F2"/>
<path d="M80.0013 66.1409C80.0013 66.3688 79.9115 66.5874 79.7516 66.7486C79.5917 66.9098 79.3748 67.0003 79.1487 67.0003H22.1396C19.0433 67.0003 16.0737 65.7605 13.8843 63.5537C11.6949 61.3469 10.4648 58.3538 10.4648 55.2328C10.4648 52.1119 11.6949 49.1188 13.8843 46.912C16.0737 44.7051 19.0433 43.4653 22.1396 43.4653H79.1496C79.264 43.4614 79.3779 43.4807 79.4847 43.5221C79.5915 43.5635 79.6889 43.6262 79.7712 43.7063C79.8534 43.7865 79.9189 43.8825 79.9635 43.9886C80.0082 44.0948 80.0312 44.2089 80.0312 44.3243C80.0312 44.4396 80.0082 44.5537 79.9635 44.6599C79.9189 44.766 79.8534 44.8621 79.7712 44.9422C79.6889 45.0224 79.5915 45.085 79.4847 45.1264C79.3779 45.1678 79.264 45.1871 79.1496 45.1832H22.1396C19.501 45.192 16.9735 46.2547 15.1109 48.1384C13.2482 50.022 12.2023 52.5731 12.2023 55.2327C12.2023 57.8922 13.2482 60.4433 15.1109 62.327C16.9735 64.2107 19.501 65.2733 22.1396 65.2821H79.1496C79.3755 65.2824 79.592 65.373 79.7517 65.534C79.9114 65.695 80.0011 65.9132 80.0013 66.1409Z" fill="#4DA16E"/>
<path d="M78.6358 49.1341H18.9845C18.9393 49.1345 18.8958 49.1168 18.8635 49.0849C18.8313 49.053 18.8129 49.0095 18.8125 48.9639C18.8121 48.9183 18.8296 48.8745 18.8613 48.842C18.893 48.8095 18.9361 48.791 18.9813 48.7905H78.6358C78.681 48.7905 78.7244 48.8086 78.7563 48.8408C78.7883 48.8731 78.8062 48.9167 78.8062 48.9623C78.8062 49.0079 78.7883 49.0516 78.7563 49.0838C78.7244 49.116 78.681 49.1341 78.6358 49.1341Z" fill="#CCCCCC"/>
<path d="M78.6358 53.2571H18.9845C18.9621 53.2573 18.9399 53.2531 18.9192 53.2447C18.8984 53.2362 18.8795 53.2237 18.8635 53.2079C18.8476 53.1921 18.8348 53.1733 18.8261 53.1526C18.8173 53.1318 18.8127 53.1095 18.8125 53.0869C18.8123 53.0644 18.8165 53.042 18.8249 53.0211C18.8332 53.0002 18.8456 52.9811 18.8613 52.965C18.877 52.9489 18.8957 52.9361 18.9162 52.9273C18.9368 52.9184 18.959 52.9138 18.9813 52.9136H78.6358C78.681 52.9136 78.7244 52.9317 78.7563 52.9639C78.7883 52.9961 78.8062 53.0398 78.8062 53.0853C78.8062 53.1309 78.7883 53.1746 78.7563 53.2068C78.7244 53.239 78.681 53.2571 78.6358 53.2571Z" fill="#CCCCCC"/>
<path d="M78.6358 57.3797H18.9845C18.9393 57.3801 18.8958 57.3624 18.8635 57.3305C18.8313 57.2986 18.8129 57.2551 18.8125 57.2095C18.8121 57.1639 18.8296 57.1201 18.8613 57.0876C18.893 57.0551 18.9361 57.0366 18.9813 57.0361H78.6358C78.681 57.0361 78.7244 57.0542 78.7563 57.0864C78.7883 57.1187 78.8062 57.1624 78.8062 57.2079C78.8062 57.2535 78.7883 57.2972 78.7563 57.3294C78.7244 57.3616 78.681 57.3797 78.6358 57.3797Z" fill="#CCCCCC"/>
<path d="M78.6358 61.5027H18.9845C18.9621 61.5029 18.9399 61.4987 18.9192 61.4903C18.8984 61.4818 18.8795 61.4693 18.8635 61.4535C18.8476 61.4377 18.8348 61.4189 18.8261 61.3982C18.8173 61.3774 18.8127 61.3551 18.8125 61.3326C18.8123 61.31 18.8165 61.2876 18.8249 61.2667C18.8332 61.2458 18.8456 61.2267 18.8613 61.2106C18.877 61.1945 18.8957 61.1817 18.9162 61.1729C18.9368 61.164 18.959 61.1594 18.9813 61.1592H78.6358C78.681 61.1592 78.7244 61.1773 78.7563 61.2095C78.7883 61.2417 78.8062 61.2854 78.8062 61.331C78.8062 61.3765 78.7883 61.4202 78.7563 61.4524C78.7244 61.4846 78.681 61.5027 78.6358 61.5027Z" fill="#CCCCCC"/>
<path d="M68.1713 20.4527V42.7848H12.6616C9.72351 42.8878 6.86515 41.8102 4.71533 39.789C2.56551 37.7678 1.30033 34.9686 1.19812 32.0071C1.0959 29.0457 2.16503 26.1646 4.17031 23.9977C6.17558 21.8308 8.95274 20.5556 11.8908 20.4526C12.1477 20.4435 12.4046 20.4435 12.6616 20.4526L68.1713 20.4527Z" fill="#F2F2F2"/>
<path d="M69.5365 42.6131C69.5365 42.841 69.4466 43.0596 69.2867 43.2208C69.1268 43.3819 68.9099 43.4725 68.6838 43.4725H11.6747C8.57841 43.4725 5.6089 42.2327 3.41946 40.0259C1.23002 37.819 0 34.8259 0 31.705C0 28.5841 1.23002 25.591 3.41946 23.3841C5.6089 21.1773 8.57841 19.9375 11.6747 19.9375H68.6845C68.7988 19.9336 68.9128 19.9529 69.0195 19.9943C69.1263 20.0357 69.2238 20.0984 69.306 20.1785C69.3883 20.2586 69.4537 20.3547 69.4984 20.4608C69.543 20.567 69.5661 20.6811 69.5661 20.7964C69.5661 20.9118 69.543 21.0259 69.4984 21.1321C69.4537 21.2382 69.3883 21.3342 69.306 21.4144C69.2238 21.4945 69.1263 21.5572 69.0195 21.5986C68.9128 21.64 68.7988 21.6593 68.6845 21.6554H11.6747C9.03619 21.6642 6.50868 22.7268 4.64602 24.6105C2.78335 26.4942 1.73744 29.0453 1.73744 31.7048C1.73744 34.3644 2.78335 36.9155 4.64602 38.7991C6.50868 40.6828 9.03619 41.7455 11.6747 41.7543H68.6845C68.9106 41.7543 69.1275 41.8449 69.2874 42.006C69.4473 42.1672 69.5371 42.3858 69.5371 42.6137L69.5365 42.6131Z" fill="#4DA16E"/>
<path d="M68.171 25.6058H8.51967C8.49729 25.606 8.47509 25.6017 8.45433 25.5933C8.43358 25.5849 8.41467 25.5724 8.3987 25.5566C8.36644 25.5247 8.34808 25.4811 8.34766 25.4356C8.34724 25.39 8.3648 25.3462 8.39646 25.3136C8.42812 25.2811 8.4713 25.2626 8.5165 25.2622H68.171C68.2162 25.2622 68.2595 25.2803 68.2915 25.3125C68.3234 25.3447 68.3414 25.3884 68.3414 25.434C68.3414 25.4795 68.3234 25.5232 68.2915 25.5554C68.2595 25.5877 68.2162 25.6058 68.171 25.6058Z" fill="#CCCCCC"/>
<path d="M68.171 29.7288H8.51967C8.49729 29.729 8.47509 29.7248 8.45433 29.7163C8.43358 29.7079 8.41467 29.6954 8.3987 29.6796C8.38273 29.6638 8.37 29.645 8.36124 29.6242C8.35249 29.6035 8.34787 29.5812 8.34766 29.5586C8.34746 29.5361 8.35166 29.5137 8.36003 29.4928C8.3684 29.4718 8.38078 29.4528 8.39646 29.4367C8.41214 29.4206 8.43081 29.4078 8.4514 29.3989C8.472 29.3901 8.49412 29.3855 8.5165 29.3853H68.171C68.1933 29.3853 68.2155 29.3897 68.2362 29.3983C68.2569 29.407 68.2756 29.4196 68.2915 29.4356C68.3073 29.4515 68.3198 29.4705 68.3284 29.4913C68.337 29.5121 68.3414 29.5345 68.3414 29.557C68.3414 29.5796 68.337 29.6019 68.3284 29.6228C68.3198 29.6436 68.3073 29.6625 68.2915 29.6785C68.2756 29.6944 68.2569 29.7071 68.2362 29.7157C68.2155 29.7244 68.1933 29.7288 68.171 29.7288Z" fill="#CCCCCC"/>
<path d="M68.171 33.8514H8.51967C8.49729 33.8516 8.47509 33.8473 8.45433 33.8389C8.43358 33.8305 8.41467 33.818 8.3987 33.8022C8.36644 33.7703 8.34808 33.7267 8.34766 33.6812C8.34724 33.6356 8.3648 33.5918 8.39646 33.5593C8.42812 33.5267 8.4713 33.5082 8.5165 33.5078H68.171C68.2162 33.5078 68.2595 33.5259 68.2915 33.5581C68.3234 33.5903 68.3414 33.634 68.3414 33.6796C68.3414 33.7251 68.3234 33.7688 68.2915 33.801C68.2595 33.8333 68.2162 33.8514 68.171 33.8514Z" fill="#CCCCCC"/>
<path d="M68.171 37.9744H8.51967C8.47447 37.9748 8.43096 37.9571 8.3987 37.9252C8.36644 37.8933 8.34808 37.8498 8.34766 37.8042C8.34724 37.7587 8.3648 37.7148 8.39646 37.6823C8.42812 37.6498 8.4713 37.6313 8.5165 37.6309H68.171C68.2162 37.6309 68.2595 37.649 68.2915 37.6812C68.3234 37.7134 68.3414 37.7571 68.3414 37.8026C68.3414 37.8482 68.3234 37.8919 68.2915 37.9241C68.2595 37.9563 68.2162 37.9744 68.171 37.9744Z" fill="#CCCCCC"/>
<path d="M58.5197 13.0022H33.229C32.989 13.002 32.7522 13.0576 32.5369 13.1645L26.1536 16.3855C25.9435 16.4755 25.7644 16.6258 25.6384 16.8176C25.5125 17.0095 25.4453 17.2345 25.4453 17.4646C25.4453 17.6946 25.5125 17.9196 25.6384 18.1115C25.7644 18.3034 25.9435 18.4537 26.1536 18.5436L32.5368 21.7646C32.7521 21.8716 32.9889 21.9271 33.229 21.9269H58.5197C58.8682 21.9472 59.2106 21.8283 59.4728 21.596C59.735 21.3637 59.8958 21.0366 59.9204 20.6856V14.2439C59.8959 13.8928 59.7351 13.5657 59.4729 13.3332C59.2107 13.1008 58.8682 12.9819 58.5197 13.0022Z" fill="#090814"/>
<path d="M59.9198 14.2442V20.686C59.8951 21.037 59.7342 21.3641 59.472 21.5963C59.2098 21.8286 58.8674 21.9474 58.5189 21.927H53.4805V13.0022H58.5189C58.8675 12.9819 59.2101 13.1008 59.4723 13.3333C59.7346 13.5658 59.8954 13.8931 59.9198 14.2442Z" fill="#4DA16E"/>
</g>
<defs>
<clipPath id="clip0_932_4183">
<rect width="80" height="54" fill="white" transform="translate(0 13)"/>
</clipPath>
</defs>
</svg>
